STARTFONT 2.3
FONT -FontForge-Roboto Condensed-Book-R-Condensed---11-110-72-72-P-54-ISO10646-1
SIZE 11 72 72  4
FONTBOUNDINGBOX 20 18 -9 -4
COMMENT "Generated by fontforge, http://fontforge.sourceforge.net"
COMMENT "Copyright 2011 Google Inc. All Rights Reserved."
STARTPROPERTIES 42
FOUNDRY "FontForge"
FAMILY_NAME "Roboto Condensed"
WEIGHT_NAME "Book"
SLANT "R"
SETWIDTH_NAME "Condensed"
ADD_STYLE_NAME ""
PIXEL_SIZE 11
POINT_SIZE 110
RESOLUTION_X 72
RESOLUTION_Y 72
SPACING "P"
AVERAGE_WIDTH 54
CHARSET_REGISTRY "ISO10646"
CHARSET_ENCODING "1"
FONTNAME_REGISTRY ""
CHARSET_COLLECTIONS "ISO8859-2 ISO8859-5 ISO8859-7 ISO8859-9 ISO8859-4 ISO10646-1"
BITS_PER_PIXEL 4
FONT_NAME "RobotoCondensed-Regular"
FACE_NAME "Roboto Condensed"
COPYRIGHT "Copyright 2011 Google Inc. All Rights Reserved."
FONT_VERSION "2.137; 2017"
FONT_ASCENT 8
FONT_DESCENT 3
UNDERLINE_POSITION -1
UNDERLINE_THICKNESS 1
X_HEIGHT 5
CAP_HEIGHT 7
DEFAULT_CHAR 1
RAW_ASCENT 750
RAW_DESCENT 250
NORM_SPACE 3
RELATIVE_WEIGHT 40
RELATIVE_SETWIDTH 50
SUPERSCRIPT_X 0
SUPERSCRIPT_Y 5
SUPERSCRIPT_SIZE 7
SUBSCRIPT_X 0
SUBSCRIPT_Y 1
SUBSCRIPT_SIZE 7
FIGURE_WIDTH 5
AVG_LOWERCASE_WIDTH 52
AVG_UPPERCASE_WIDTH 63
ENDPROPERTIES
CHARS 1296
STARTCHAR uni0000
ENCODING 0
SWIDTH 0 0
DWIDTH 0 0
BBX 1 1 0 0
BITMAP
00
ENDCHAR
STARTCHAR uni0002
ENCODING 2
SWIDTH 0 0
DWIDTH 0 0
BBX 1 1 0 0
BITMAP
00
ENDCHAR
STARTCHAR uni000D
ENCODING 13
SWIDTH 229 0
DWIDTH 3 0
BBX 1 1 0 0
BITMAP
00
ENDCHAR
STARTCHAR space
ENCODING 32
SWIDTH 229 0
DWIDTH 3 0
BBX 1 1 0 0
BITMAP
00
ENDCHAR
STARTCHAR exclam
ENCODING 33
SWIDTH 245 0
DWIDTH 3 0
BBX 2 8 0 0
BITMAP
2D
2D
2C
2C
1C
18
01
1C
ENDCHAR
STARTCHAR quotedbl
ENCODING 34
SWIDTH 319 0
DWIDTH 4 0
BBX 3 3 0 5
BITMAP
47B0
47B0
4590
ENDCHAR
STARTCHAR numbersign
ENCODING 35
SWIDTH 547 0
DWIDTH 6 0
BBX 6 8 0 0
BITMAP
006592
0092B0
0EFFFB
00B1A0
01A380
4FFFF6
056830
083A10
ENDCHAR
STARTCHAR dollar
ENCODING 36
SWIDTH 493 0
DWIDTH 5 0
BBX 5 11 0 -1
BITMAP
002100
008300
07FD20
1E1790
1D0160
0AC500
005D60
2303C0
4C16B0
09FD30
00A100
ENDCHAR
STARTCHAR percent
ENCODING 37
SWIDTH 632 0
DWIDTH 7 0
BBX 7 8 0 0
BITMAP
1DC00000
66847200
66859000
1DC92000
0028BD20
00A49660
03639660
0000CD20
ENDCHAR
STARTCHAR ampersand
ENCODING 38
SWIDTH 543 0
DWIDTH 6 0
BBX 6 8 0 0
BITMAP
06EC10
0D3A50
0C4C20
06F500
1CB855
691DC5
5B16F1
09ECA8
ENDCHAR
STARTCHAR quotesingle
ENCODING 39
SWIDTH 174 0
DWIDTH 2 0
BBX 2 2 0 6
BITMAP
75
74
ENDCHAR
STARTCHAR parenleft
ENCODING 40
SWIDTH 313 0
DWIDTH 3 0
BBX 4 12 0 -3
BITMAP
0081
0390
0A30
0D00
3B00
4A00
4A00
3B00
0D00
0A30
0390
0081
ENDCHAR
STARTCHAR parenright
ENCODING 41
SWIDTH 318 0
DWIDTH 4 0
BBX 3 12 0 -3
BITMAP
7100
2A00
0B20
0770
0590
03B0
03B0
04A0
0770
0B20
2A00
7100
ENDCHAR
STARTCHAR asterisk
ENCODING 42
SWIDTH 430 0
DWIDTH 5 0
BBX 5 5 0 3
BITMAP
00C000
76C750
29F610
1C5A00
020300
ENDCHAR
STARTCHAR plus
ENCODING 43
SWIDTH 496 0
DWIDTH 5 0
BBX 5 7 0 0
BITMAP
003100
00B300
00B300
8FFFF0
00B300
00B300
005100
ENDCHAR
STARTCHAR comma
ENCODING 44
SWIDTH 196 0
DWIDTH 2 0
BBX 2 4 0 -2
BITMAP
12
5A
78
92
ENDCHAR
STARTCHAR hyphen
ENCODING 45
SWIDTH 248 0
DWIDTH 3 0
BBX 3 1 0 3
BITMAP
BF70
ENDCHAR
STARTCHAR period
ENCODING 46
SWIDTH 263 0
DWIDTH 3 0
BBX 2 2 0 0
BITMAP
01
2D
ENDCHAR
STARTCHAR slash
ENCODING 47
SWIDTH 370 0
DWIDTH 4 0
BBX 4 9 0 -1
BITMAP
0048
0084
00C0
02A0
0750
0B10
1B00
6600
A200
ENDCHAR
STARTCHAR zero
ENCODING 48
SWIDTH 493 0
DWIDTH 5 0
BBX 5 8 0 0
BITMAP
07EC10
2D1880
5903B0
6802C0
6802C0
4903B0
2D2880
07EC10
ENDCHAR
STARTCHAR one
ENCODING 49
SWIDTH 493 0
DWIDTH 5 0
BBX 4 8 0 0
BITMAP
04A6
2BA7
0087
0087
0087
0087
0087
0087
ENDCHAR
STARTCHAR two
ENCODING 50
SWIDTH 493 0
DWIDTH 5 0
BBX 5 8 0 0
BITMAP
09EC20
5B1890
3305A0
000A40
006A00
03C100
1C3000
6FFFF0
ENDCHAR
STARTCHAR three
ENCODING 51
SWIDTH 493 0
DWIDTH 5 0
BBX 5 8 0 0
BITMAP
08EC20
4C1880
230870
02FD10
000980
2304A0
4B1880
09EB10
ENDCHAR
STARTCHAR four
ENCODING 52
SWIDTH 493 0
DWIDTH 5 0
BBX 6 8 0 0
BITMAP
001E40
009E40
02BB40
0A3B40
3A0B40
9FFFF1
000B40
000B40
ENDCHAR
STARTCHAR five
ENCODING 53
SWIDTH 493 0
DWIDTH 5 0
BBX 5 8 0 0
BITMAP
0AFFB0
0C2000
0D1000
0EDD40
0415C0
0200E0
1D15C0
06ED30
ENDCHAR
STARTCHAR six
ENCODING 54
SWIDTH 493 0
DWIDTH 5 0
BBX 5 8 0 0
BITMAP
01BD00
0B7100
1D0000
4EED30
4D26B0
3A01D0
1D26B0
05ED30
ENDCHAR
STARTCHAR seven
ENCODING 55
SWIDTH 493 0
DWIDTH 5 0
BBX 5 8 0 0
BITMAP
8FFFE0
0004A0
000A40
001D00
006800
00C300
03C000
087000
ENDCHAR
STARTCHAR eight
ENCODING 56
SWIDTH 493 0
DWIDTH 5 0
BBX 5 8 0 0
BITMAP
08EC20
2D1890
1D1780
09FE10
2C1780
5903B0
3C1790
08EC20
ENDCHAR
STARTCHAR nine
ENCODING 57
SWIDTH 493 0
DWIDTH 5 0
BBX 5 8 0 0
BITMAP
08EA00
2D1B60
680590
6804A0
3D1AA0
09EA80
003D30
08D500
ENDCHAR
STARTCHAR colon
ENCODING 58
SWIDTH 233 0
DWIDTH 3 0
BBX 2 7 0 0
BITMAP
01
2C
00
00
00
01
2C
ENDCHAR
STARTCHAR semicolon
ENCODING 59
SWIDTH 202 0
DWIDTH 2 0
BBX 2 9 0 -2
BITMAP
01
4B
00
00
00
12
4B
59
82
ENDCHAR
STARTCHAR less
ENCODING 60
SWIDTH 445 0
DWIDTH 5 0
BBX 5 5 0 1
BITMAP
002A10
18D600
8C1000
18D600
002A10
ENDCHAR
STARTCHAR equal
ENCODING 61
SWIDTH 479 0
DWIDTH 5 0
BBX 5 3 0 2
BITMAP
3FFF80
000000
3FFF80
ENDCHAR
STARTCHAR greater
ENCODING 62
SWIDTH 459 0
DWIDTH 5 0
BBX 5 5 0 1
BITMAP
491000
06D710
001C90
07D810
491000
ENDCHAR
STARTCHAR question
ENCODING 63
SWIDTH 421 0
DWIDTH 5 0
BBX 5 8 0 0
BITMAP
1CE800
781E10
000D10
006A00
01D100
037000
000000
039000
ENDCHAR
STARTCHAR at
ENCODING 64
SWIDTH 769 0
DWIDTH 8 0
BBX 8 10 0 -2
BITMAP
004CEC40
04C303C2
0C16E939
291C1B0A
56480B0A
56661A0A
47686B3A
1C1D9BD2
09911300
008EE700
ENDCHAR
STARTCHAR A
ENCODING 65
SWIDTH 576 0
DWIDTH 6 0
BBX 6 8 0 0
BITMAP
006B00
00BD10
01C860
0583B0
0A40D1
0EFFF5
4A005A
96001E
ENDCHAR
STARTCHAR B
ENCODING 66
SWIDTH 545 0
DWIDTH 6 0
BBX 6 8 0 0
BITMAP
2FFE80
2C01D2
2C02D1
2FFF80
2C01D3
2C00A5
2C01D3
2FFE80
ENDCHAR
STARTCHAR C
ENCODING 67
SWIDTH 566 0
DWIDTH 6 0
BBX 6 8 0 0
BITMAP
03CEA0
0D41A7
3B0048
5A0000
5A0000
3B0048
0D41A7
04DEA0
ENDCHAR
STARTCHAR D
ENCODING 68
SWIDTH 570 0
DWIDTH 6 0
BBX 6 8 0 0
BITMAP
2FFD50
2C03D3
2C0077
2C0069
2C0069
2C0077
2C03D3
2FFD50
ENDCHAR
STARTCHAR E
ENCODING 69
SWIDTH 496 0
DWIDTH 5 0
BBX 6 8 0 0
BITMAP
2FFFF0
2C0000
2C0000
2FFF90
2C0000
2C0000
2C0000
2FFFF1
ENDCHAR
STARTCHAR F
ENCODING 70
SWIDTH 480 0
DWIDTH 5 0
BBX 5 8 0 0
BITMAP
2FFFE0
2C0000
2C0000
2FFF70
2C0000
2C0000
2C0000
2C0000
ENDCHAR
STARTCHAR G
ENCODING 71
SWIDTH 590 0
DWIDTH 7 0
BBX 6 8 0 0
BITMAP
05DEA1
1E41A7
4B0036
5A0000
5A0AFB
3C004B
1E516B
04CEC3
ENDCHAR
STARTCHAR H
ENCODING 72
SWIDTH 620 0
DWIDTH 7 0
BBX 6 8 0 0
BITMAP
2C000F
2C000F
2C000F
2FFFFF
2C000F
2C000F
2C000F
2C000F
ENDCHAR
STARTCHAR I
ENCODING 73
SWIDTH 250 0
DWIDTH 3 0
BBX 2 8 0 0
BITMAP
2D
2D
2D
2D
2D
2D
2D
2D
ENDCHAR
STARTCHAR J
ENCODING 74
SWIDTH 483 0
DWIDTH 5 0
BBX 5 8 0 0
BITMAP
000780
000780
000780
000780
000780
310780
881B50
2CEA00
ENDCHAR
STARTCHAR K
ENCODING 75
SWIDTH 544 0
DWIDTH 6 0
BBX 6 8 0 0
BITMAP
2C00B6
2C07A0
2C3D10
2DD600
2FAC00
2D0B60
2C02E1
2C008A
ENDCHAR
STARTCHAR L
ENCODING 76
SWIDTH 475 0
DWIDTH 5 0
BBX 5 8 0 0
BITMAP
2C0000
2C0000
2C0000
2C0000
2C0000
2C0000
2C0000
2FFFE0
ENDCHAR
STARTCHAR M
ENCODING 77
SWIDTH 755 0
DWIDTH 8 0
BBX 8 8 0 0
BITMAP
2F4000E7
2F9004F7
2CD009C7
2CB30D87
2C683A87
2C1C8587
2C0BD187
2C06A087
ENDCHAR
STARTCHAR N
ENCODING 78
SWIDTH 619 0
DWIDTH 7 0
BBX 6 8 0 0
BITMAP
2F200E
2F900E
2DC20E
2C590E
2C0C2E
2C05AE
2C00CE
2C004E
ENDCHAR
STARTCHAR O
ENCODING 79
SWIDTH 600 0
DWIDTH 7 0
BBX 6 8 0 0
BITMAP
04CEA1
0D4198
3B002C
5A001E
5A001E
3B002D
1E4198
04DEA1
ENDCHAR
STARTCHAR P
ENCODING 80
SWIDTH 554 0
DWIDTH 6 0
BBX 6 8 0 0
BITMAP
2FFEA1
2C01A7
2C005A
2C01A7
2FFFB1
2C0000
2C0000
2C0000
ENDCHAR
STARTCHAR Q
ENCODING 81
SWIDTH 600 0
DWIDTH 7 0
BBX 6 10 0 -2
BITMAP
04DEA1
1E41A8
4B003C
69001D
69001D
4B003C
1E41A8
04DFF2
00007B
000001
ENDCHAR
STARTCHAR R
ENCODING 82
SWIDTH 530 0
DWIDTH 6 0
BBX 6 8 0 0
BITMAP
2FFE80
2C02D3
2C00A5
2C02D3
2FFF80
2C0970
2C02E1
2C00A7
ENDCHAR
STARTCHAR S
ENCODING 83
SWIDTH 518 0
DWIDTH 6 0
BBX 6 8 0 0
BITMAP
07ED40
3D13E1
4B0062
0BB400
005BA0
4400C3
4C12E2
07EE70
ENDCHAR
STARTCHAR T
ENCODING 84
SWIDTH 520 0
DWIDTH 6 0
BBX 6 8 0 0
BITMAP
AFFFF6
009500
009500
009500
009500
009500
009500
009500
ENDCHAR
STARTCHAR U
ENCODING 85
SWIDTH 561 0
DWIDTH 6 0
BBX 6 8 0 0
BITMAP
4A0078
4A0078
4A0078
4A0078
4A0078
4A0087
2E21C5
07EE90
ENDCHAR
STARTCHAR V
ENCODING 86
SWIDTH 560 0
DWIDTH 6 0
BBX 6 8 0 0
BITMAP
97004C
5B0087
1E00D3
0B42D0
068690
02CA40
00CD00
007A00
ENDCHAR
STARTCHAR W
ENCODING 87
SWIDTH 761 0
DWIDTH 8 0
BBX 8 8 0 0
BITMAP
8704C00E
5907E02C
2C0BA359
0E0C5686
0B5A2AA3
08B60CC1
05F30AC0
02E00790
ENDCHAR
STARTCHAR X
ENCODING 88
SWIDTH 550 0
DWIDTH 6 0
BBX 6 8 0 0
BITMAP
5C00B6
0C43D0
05CA60
00CD00
00CD00
05BA60
0D43D0
6C00A7
ENDCHAR
STARTCHAR Y
ENCODING 89
SWIDTH 524 0
DWIDTH 6 0
BBX 6 8 0 0
BITMAP
9700B6
3D02D0
0B4870
04AD10
00D900
009600
009600
009600
ENDCHAR
STARTCHAR Z
ENCODING 90
SWIDTH 522 0
DWIDTH 6 0
BBX 6 8 0 0
BITMAP
7FFFF2
0004C0
000C30
006900
01D100
097000
3D0000
8FFFF4
ENDCHAR
STARTCHAR bracketleft
ENCODING 91
SWIDTH 250 0
DWIDTH 3 0
BBX 3 11 0 -2
BITMAP
4F80
4A00
4A00
4A00
4A00
4A00
4A00
4A00
4A00
4A00
4F80
ENDCHAR
STARTCHAR backslash
ENCODING 92
SWIDTH 369 0
DWIDTH 4 0
BBX 4 9 0 -1
BITMAP
9500
4900
0D00
0A40
0580
01C0
00B2
0077
002B
ENDCHAR
STARTCHAR bracketright
ENCODING 93
SWIDTH 250 0
DWIDTH 3 0
BBX 2 11 0 -2
BITMAP
DE
0E
0E
0E
0E
0E
0E
0E
0E
0E
DE
ENDCHAR
STARTCHAR asciicircum
ENCODING 94
SWIDTH 371 0
DWIDTH 4 0
BBX 4 4 0 4
BITMAP
0780
0BC0
2A93
7658
ENDCHAR
STARTCHAR underscore
ENCODING 95
SWIDTH 404 0
DWIDTH 4 0
BBX 5 1 0 -1
BITMAP
DFFF50
ENDCHAR
STARTCHAR grave
ENCODING 96
SWIDTH 309 0
DWIDTH 3 0
BBX 3 2 0 7
BITMAP
5C00
0940
ENDCHAR
STARTCHAR a
ENCODING 97
SWIDTH 479 0
DWIDTH 5 0
BBX 5 6 0 0
BITMAP
0AEC20
251870
09EF80
4C1780
5B1A80
1CEB90
ENDCHAR
STARTCHAR b
ENCODING 98
SWIDTH 493 0
DWIDTH 5 0
BBX 5 8 0 0
BITMAP
4A0000
4A0000
4CDD40
4D15B0
4A01D0
4A01D0
4D15B0
4BDD30
ENDCHAR
STARTCHAR c
ENCODING 99
SWIDTH 461 0
DWIDTH 5 0
BBX 5 6 0 0
BITMAP
09EC20
4B1790
770010
770000
4B1780
09EC20
ENDCHAR
STARTCHAR d
ENCODING 100
SWIDTH 496 0
DWIDTH 5 0
BBX 5 8 0 0
BITMAP
0004B0
0004B0
0AEBB0
5B17B0
7704B0
7704B0
5B17B0
0AEAB0
ENDCHAR
STARTCHAR e
ENCODING 101
SWIDTH 468 0
DWIDTH 5 0
BBX 5 6 0 0
BITMAP
09EC20
4A1690
7FFFB0
780000
4C1220
09ED40
ENDCHAR
STARTCHAR f
ENCODING 102
SWIDTH 316 0
DWIDTH 3 0
BBX 4 9 0 0
BITMAP
04E5
0C40
0D10
9FF1
0D10
0D10
0D10
0D10
0D10
ENDCHAR
STARTCHAR g
ENCODING 103
SWIDTH 492 0
DWIDTH 5 0
BBX 5 8 0 -2
BITMAP
0AEAB0
5C17B0
7704B0
7704B0
4B17B0
0AEBB0
020790
0BEC20
ENDCHAR
STARTCHAR h
ENCODING 104
SWIDTH 482 0
DWIDTH 5 0
BBX 5 8 0 0
BITMAP
4A0000
4A0000
4CDD30
4D2880
4A0590
4A0590
4A0590
4A0590
ENDCHAR
STARTCHAR i
ENCODING 105
SWIDTH 229 0
DWIDTH 3 0
BBX 2 9 0 0
BITMAP
01
3A
00
3B
3B
3B
3B
3B
3B
ENDCHAR
STARTCHAR j
ENCODING 106
SWIDTH 223 0
DWIDTH 2 0
BBX 3 11 -1 -2
BITMAP
0010
0490
0000
04A0
04A0
04A0
04A0
04A0
04A0
05A0
2E50
ENDCHAR
STARTCHAR k
ENCODING 107
SWIDTH 450 0
DWIDTH 5 0
BBX 5 8 0 0
BITMAP
4A0000
4A0000
4A0C40
4A8800
4CD000
4EC500
4A3D10
4A0880
ENDCHAR
STARTCHAR l
ENCODING 108
SWIDTH 229 0
DWIDTH 3 0
BBX 2 8 0 0
BITMAP
3B
3B
3B
3B
3B
3B
3B
3B
ENDCHAR
STARTCHAR m
ENCODING 109
SWIDTH 752 0
DWIDTH 8 0
BBX 8 6 0 0
BITMAP
4CDD6DD2
4C18D197
4A059068
4A059068
4A059068
4A059068
ENDCHAR
STARTCHAR n
ENCODING 110
SWIDTH 483 0
DWIDTH 5 0
BBX 5 6 0 0
BITMAP
4CDD30
4D2880
4A0590
4A0590
4A0590
4A0590
ENDCHAR
STARTCHAR o
ENCODING 111
SWIDTH 501 0
DWIDTH 6 0
BBX 5 6 0 0
BITMAP
08EC30
4C16B0
7800E0
7800E0
4C15B0
08EC30
ENDCHAR
STARTCHAR p
ENCODING 112
SWIDTH 493 0
DWIDTH 5 0
BBX 5 8 0 -2
BITMAP
4CDD40
4C16B0
4A01D0
4A01D0
4C16B0
4CDD30
4A0000
4A0000
ENDCHAR
STARTCHAR q
ENCODING 113
SWIDTH 500 0
DWIDTH 6 0
BBX 5 8 0 -2
BITMAP
0AEBB0
5C17B0
7704B0
7704B0
5C17B0
0AEBB0
0004B0
0004B0
ENDCHAR
STARTCHAR r
ENCODING 114
SWIDTH 304 0
DWIDTH 3 0
BBX 4 6 0 0
BITMAP
4CE2
4D10
4A00
4A00
4A00
4A00
ENDCHAR
STARTCHAR s
ENCODING 115
SWIDTH 455 0
DWIDTH 5 0
BBX 5 6 0 0
BITMAP
0AEB10
4C1840
1DA300
016E40
591A60
1BEC10
ENDCHAR
STARTCHAR t
ENCODING 116
SWIDTH 295 0
DWIDTH 3 0
BBX 3 7 0 0
BITMAP
0E00
DFC0
0E00
0E00
0E00
0E10
0AC0
ENDCHAR
STARTCHAR u
ENCODING 117
SWIDTH 483 0
DWIDTH 5 0
BBX 5 6 0 0
BITMAP
5A0590
5A0590
5A0590
5A0590
3C1990
0BEB90
ENDCHAR
STARTCHAR v
ENCODING 118
SWIDTH 427 0
DWIDTH 5 0
BBX 5 6 0 0
BITMAP
950A40
590D00
1C2B00
0B7600
07E200
02D000
ENDCHAR
STARTCHAR w
ENCODING 119
SWIDTH 649 0
DWIDTH 7 0
BBX 7 6 0 0
BITMAP
950E13B0
683F5680
2B799940
0DB2CC10
0AC0BC00
06907800
ENDCHAR
STARTCHAR x
ENCODING 120
SWIDTH 438 0
DWIDTH 5 0
BBX 5 6 0 0
BITMAP
690D30
0D6A00
05F200
06F300
0D5B00
790C40
ENDCHAR
STARTCHAR y
ENCODING 121
SWIDTH 416 0
DWIDTH 5 0
BBX 5 8 0 -2
BITMAP
A50C30
591D00
1D4900
0BA500
06F100
03B000
087000
8C1000
ENDCHAR
STARTCHAR z
ENCODING 122
SWIDTH 438 0
DWIDTH 5 0
BBX 5 6 0 0
BITMAP
7FFF40
003C00
00C300
079000
2D1000
7FFF60
ENDCHAR
STARTCHAR braceleft
ENCODING 123
SWIDTH 306 0
DWIDTH 3 0
BBX 4 11 0 -2
BITMAP
01B1
0870
0A40
0A40
1D20
9A00
1D20
0A40
0A40
0870
01B1
ENDCHAR
STARTCHAR bar
ENCODING 124
SWIDTH 243 0
DWIDTH 3 0
BBX 2 9 0 -1
BITMAP
1B
1B
1B
1B
1B
1B
1B
1B
1B
ENDCHAR
STARTCHAR braceright
ENCODING 125
SWIDTH 306 0
DWIDTH 3 0
BBX 3 11 0 -2
BITMAP
8400
2D00
0E00
0E10
0B40
04F0
0B40
0E10
0E00
2D00
8400
ENDCHAR
STARTCHAR asciitilde
ENCODING 126
SWIDTH 589 0
DWIDTH 6 0
BBX 6 2 0 2
BITMAP
0BE62A
4A2BE4
ENDCHAR
STARTCHAR uni00A0
ENCODING 160
SWIDTH 229 0
DWIDTH 3 0
BBX 1 1 0 0
BITMAP
00
ENDCHAR
STARTCHAR exclamdown
ENCODING 161
SWIDTH 231 0
DWIDTH 3 0
BBX 2 8 0 -2
BITMAP
3A
01
28
2B
2B
3B
3C
3C
ENDCHAR
STARTCHAR cent
ENCODING 162
SWIDTH 479 0
DWIDTH 5 0
BBX 5 10 0 -2
BITMAP
002100
00C300
08FD20
3D1690
680010
680000
3D1680
08FD20
00C300
003100
ENDCHAR
STARTCHAR sterling
ENCODING 163
SWIDTH 510 0
DWIDTH 6 0
BBX 6 8 0 0
BITMAP
02CE70
0A72E1
0C2010
0C3000
7FF900
0B3000
0D2000
7FFFF4
ENDCHAR
STARTCHAR currency
ENCODING 164
SWIDTH 712 0
DWIDTH 8 0
BBX 8 7 0 0
BITMAP
3C9EE8D2
0C912BB0
1D0001E0
3B0000C2
1D0001E0
0DA12BC0
3B9EE8B2
ENDCHAR
STARTCHAR yen
ENCODING 165
SWIDTH 463 0
DWIDTH 5 0
BBX 5 8 0 0
BITMAP
A705B0
3D0B50
0C5D00
06E800
5FFF60
00F000
5FFF60
00F000
ENDCHAR
STARTCHAR brokenbar
ENCODING 166
SWIDTH 239 0
DWIDTH 3 0
BBX 2 9 0 -1
BITMAP
3C
3C
3C
3C
00
3C
3C
3C
3C
ENDCHAR
STARTCHAR section
ENCODING 167
SWIDTH 537 0
DWIDTH 6 0
BBX 6 11 0 -3
BITMAP
07EE60
3D13E1
3C0051
0DC610
4B4BC0
6800B4
2D94D2
017EA0
3301E1
5B13E0
09EE60
ENDCHAR
STARTCHAR dieresis
ENCODING 168
SWIDTH 417 0
DWIDTH 5 0
BBX 4 2 0 7
BITMAP
0101
591D
ENDCHAR
STARTCHAR copyright
ENCODING 169
SWIDTH 785 0
DWIDTH 9 0
BBX 9 8 0 0
BITMAP
007DEB4000
0A8214C400
382CE81B00
7395150910
7395050910
392DE91B00
0A8204C400
007DEC4000
ENDCHAR
STARTCHAR ordfeminine
ENCODING 170
SWIDTH 395 0
DWIDTH 4 0
BBX 4 4 0 4
BITMAP
0BE4
1658
1DF8
2ED9
ENDCHAR
STARTCHAR guillemotleft
ENCODING 171
SWIDTH 417 0
DWIDTH 5 0
BBX 4 4 0 1
BITMAP
075A
3A94
3A94
075A
ENDCHAR
STARTCHAR logicalnot
ENCODING 172
SWIDTH 487 0
DWIDTH 5 0
BBX 5 2 0 2
BITMAP
5FFF70
000770
ENDCHAR
STARTCHAR uni00AD
ENCODING 173
SWIDTH 248 0
DWIDTH 3 0
BBX 3 1 0 3
BITMAP
BF70
ENDCHAR
STARTCHAR registered
ENCODING 174
SWIDTH 786 0
DWIDTH 9 0
BBX 9 8 0 0
BITMAP
007DEB4000
0A8214C400
384FE81B00
72481D0910
734FF90910
38480C1B00
0A8204C400
007DEC4000
ENDCHAR
STARTCHAR macron
ENCODING 175
SWIDTH 414 0
DWIDTH 5 0
BBX 4 1 0 7
BITMAP
4FFD
ENDCHAR
STARTCHAR degree
ENCODING 176
SWIDTH 373 0
DWIDTH 4 0
BBX 4 3 0 5
BITMAP
1CD1
4976
1CD2
ENDCHAR
STARTCHAR plusminus
ENCODING 177
SWIDTH 469 0
DWIDTH 5 0
BBX 5 8 0 0
BITMAP
002000
00B200
00B200
7FFFB0
00B200
00B200
003000
4FFF80
ENDCHAR
STARTCHAR uni00B2
ENCODING 178
SWIDTH 329 0
DWIDTH 4 0
BBX 4 5 0 3
BITMAP
3EB0
74C1
03A0
1B10
8FF3
ENDCHAR
STARTCHAR uni00B3
ENCODING 179
SWIDTH 329 0
DWIDTH 4 0
BBX 4 5 0 3
BITMAP
4EB0
43C0
0BB0
43C1
4EB0
ENDCHAR
STARTCHAR acute
ENCODING 180
SWIDTH 313 0
DWIDTH 3 0
BBX 3 2 0 7
BITMAP
0A80
2B00
ENDCHAR
STARTCHAR mu
ENCODING 181
SWIDTH 498 0
DWIDTH 5 0
BBX 5 8 0 -2
BITMAP
3B04A0
3B04A0
3B04A0
3B04A0
3E17A0
3EEBA0
3B0000
3B0000
ENDCHAR
STARTCHAR paragraph
ENCODING 182
SWIDTH 434 0
DWIDTH 5 0
BBX 4 8 0 0
BITMAP
07CB
5FFE
9FFE
8FFE
1DFE
003E
001E
001E
ENDCHAR
STARTCHAR periodcentered
ENCODING 183
SWIDTH 243 0
DWIDTH 3 0
BBX 2 2 0 3
BITMAP
2B
01
ENDCHAR
STARTCHAR cedilla
ENCODING 184
SWIDTH 229 0
DWIDTH 3 0
BBX 2 2 0 -2
BITMAP
25
5C
ENDCHAR
STARTCHAR uni00B9
ENCODING 185
SWIDTH 329 0
DWIDTH 4 0
BBX 3 5 0 3
BITMAP
1850
5C60
0660
0660
0660
ENDCHAR
STARTCHAR ordmasculine
ENCODING 186
SWIDTH 402 0
DWIDTH 4 0
BBX 4 4 0 4
BITMAP
1BE4
593B
593B
1CE4
ENDCHAR
STARTCHAR guillemotright
ENCODING 187
SWIDTH 417 0
DWIDTH 5 0
BBX 5 4 0 1
BITMAP
398300
095C10
095C10
398300
ENDCHAR
STARTCHAR onequarter
ENCODING 188
SWIDTH 637 0
DWIDTH 7 0
BBX 7 8 0 0
BITMAP
1A300000
7E306200
09319000
09382000
00282E20
00919B20
0265FF90
00000A20
ENDCHAR
STARTCHAR onehalf
ENCODING 189
SWIDTH 677 0
DWIDTH 7 0
BBX 7 8 0 0
BITMAP
1A300000
8E308000
09337000
093A1000
00559E70
00A04580
05404900
0000DFD0
ENDCHAR
STARTCHAR threequarters
ENCODING 190
SWIDTH 673 0
DWIDTH 7 0
BBX 7 8 0 0
BITMAP
2BE20000
07E10800
11957400
3ED39000
00082A80
00286980
0081EFE0
00000480
ENDCHAR
STARTCHAR questiondown
ENCODING 191
SWIDTH 421 0
DWIDTH 5 0
BBX 5 8 0 -2
BITMAP
02B000
001000
029000
078000
2D1000
860000
881D10
2CE700
ENDCHAR
STARTCHAR Agrave
ENCODING 192
SWIDTH 576 0
DWIDTH 6 0
BBX 6 11 0 0
BITMAP
02E200
007700
000000
006B00
00BD10
01C860
0583B0
0A40D1
0EFFF5
4A005A
96001E
ENDCHAR
STARTCHAR Aacute
ENCODING 193
SWIDTH 576 0
DWIDTH 6 0
BBX 6 11 0 0
BITMAP
000A80
002B00
000000
006B00
00BD10
01C860
0583B0
0A40D1
0EFFF5
4A005A
96001E
ENDCHAR
STARTCHAR Acircumflex
ENCODING 194
SWIDTH 576 0
DWIDTH 6 0
BBX 6 11 0 0
BITMAP
007C10
01B750
000000
006B00
00BD10
01C860
0583B0
0A40D1
0EFFF5
4A005A
96001E
ENDCHAR
STARTCHAR Atilde
ENCODING 195
SWIDTH 576 0
DWIDTH 6 0
BBX 6 11 0 0
BITMAP
02D3A0
065C60
000000
006B00
00BD10
01C860
0583B0
0A40D1
0EFFF5
4A005A
96001E
ENDCHAR
STARTCHAR Adieresis
ENCODING 196
SWIDTH 576 0
DWIDTH 6 0
BBX 6 11 0 0
BITMAP
000010
0682C0
000000
006B00
00BD10
01C860
0583B0
0A40D1
0EFFF5
4A005A
96001E
ENDCHAR
STARTCHAR Aring
ENCODING 197
SWIDTH 576 0
DWIDTH 6 0
BBX 6 11 0 0
BITMAP
008920
008920
000000
006B00
00BD10
01C860
0583B0
0A40D1
0EFFF5
4A005A
96001E
ENDCHAR
STARTCHAR AE
ENCODING 198
SWIDTH 812 0
DWIDTH 9 0
BBX 9 8 0 0
BITMAP
0004FFFF60
000CC50000
004A950000
00C39FFF00
04B0860000
0CFFF70000
4C00770000
C6007FFFA0
ENDCHAR
STARTCHAR Ccedilla
ENCODING 199
SWIDTH 566 0
DWIDTH 6 0
BBX 6 10 0 -2
BITMAP
03CEA0
0D41A7
3B0048
5A0000
5A0000
3B0048
0D41A7
04DEA0
001500
004D10
ENDCHAR
STARTCHAR Egrave
ENCODING 200
SWIDTH 496 0
DWIDTH 5 0
BBX 6 11 0 0
BITMAP
06B000
00A300
000000
2FFFF0
2C0000
2C0000
2FFF90
2C0000
2C0000
2C0000
2FFFF1
ENDCHAR
STARTCHAR Eacute
ENCODING 201
SWIDTH 496 0
DWIDTH 5 0
BBX 6 11 0 0
BITMAP
001D40
006800
000000
2FFFF0
2C0000
2C0000
2FFF90
2C0000
2C0000
2C0000
2FFFF1
ENDCHAR
STARTCHAR Ecircumflex
ENCODING 202
SWIDTH 496 0
DWIDTH 5 0
BBX 6 11 0 0
BITMAP
00B900
048A20
000000
2FFFF0
2C0000
2C0000
2FFF90
2C0000
2C0000
2C0000
2FFFF1
ENDCHAR
STARTCHAR Edieresis
ENCODING 203
SWIDTH 496 0
DWIDTH 5 0
BBX 6 11 0 0
BITMAP
010000
0A3680
000000
2FFFF0
2C0000
2C0000
2FFF90
2C0000
2C0000
2C0000
2FFFF1
ENDCHAR
STARTCHAR Igrave
ENCODING 204
SWIDTH 250 0
DWIDTH 3 0
BBX 3 11 -1 0
BITMAP
1D40
0490
0000
02D0
02D0
02D0
02D0
02D0
02D0
02D0
02D0
ENDCHAR
STARTCHAR Iacute
ENCODING 205
SWIDTH 250 0
DWIDTH 3 0
BBX 3 11 0 0
BITMAP
07B0
1B10
0000
2D00
2D00
2D00
2D00
2D00
2D00
2D00
2D00
ENDCHAR
STARTCHAR Icircumflex
ENCODING 206
SWIDTH 250 0
DWIDTH 3 0
BBX 3 11 0 0
BITMAP
5D20
A580
0000
2D00
2D00
2D00
2D00
2D00
2D00
2D00
2D00
ENDCHAR
STARTCHAR Idieresis
ENCODING 207
SWIDTH 250 0
DWIDTH 3 0
BBX 5 11 -1 0
BITMAP
010100
4A0D10
000000
02D000
02D000
02D000
02D000
02D000
02D000
02D000
02D000
ENDCHAR
STARTCHAR Eth
ENCODING 208
SWIDTH 585 0
DWIDTH 6 0
BBX 6 8 0 0
BITMAP
0FFD70
0F02C5
0F005A
EFF03B
0F003B
0F005A
0F02C5
0FFD70
ENDCHAR
STARTCHAR Ntilde
ENCODING 209
SWIDTH 619 0
DWIDTH 7 0
BBX 6 11 0 0
BITMAP
00C5A0
037990
000000
2F200E
2F900E
2DC20E
2C590E
2C0C2E
2C05AE
2C00CE
2C004E
ENDCHAR
STARTCHAR Ograve
ENCODING 210
SWIDTH 600 0
DWIDTH 7 0
BBX 6 11 0 0
BITMAP
01D300
005900
000000
04CEA1
0D4198
3B002C
5A001E
5A001E
3B002D
1E4198
04DEA1
ENDCHAR
STARTCHAR Oacute
ENCODING 211
SWIDTH 600 0
DWIDTH 7 0
BBX 6 11 0 0
BITMAP
0008A0
001B10
000000
04CEA1
0D4198
3B002C
5A001E
5A001E
3B002D
1E4198
04DEA1
ENDCHAR
STARTCHAR Ocircumflex
ENCODING 212
SWIDTH 600 0
DWIDTH 7 0
BBX 6 11 0 0
BITMAP
005D10
00B570
000000
04CEA1
0D4198
3B002C
5A001E
5A001E
3B002D
1E4198
04DEA1
ENDCHAR
STARTCHAR Otilde
ENCODING 213
SWIDTH 600 0
DWIDTH 7 0
BBX 6 11 0 0
BITMAP
01D5A0
046A80
000000
04CEA1
0D4198
3B002C
5A001E
5A001E
3B002D
1E4198
04DEA1
ENDCHAR
STARTCHAR Odieresis
ENCODING 214
SWIDTH 600 0
DWIDTH 7 0
BBX 6 11 0 0
BITMAP
001010
0490D0
000000
04CEA1
0D4198
3B002C
5A001E
5A001E
3B002D
1E4198
04DEA1
ENDCHAR
STARTCHAR multiply
ENCODING 215
SWIDTH 470 0
DWIDTH 5 0
BBX 5 5 0 1
BITMAP
470660
1C8D10
03F500
0C8D10
480650
ENDCHAR
STARTCHAR Oslash
ENCODING 216
SWIDTH 600 0
DWIDTH 7 0
BBX 6 10 0 -1
BITMAP
000002
03CEAA
0D51B7
3C01BC
5A083E
59280E
3B913C
0C91A7
0ACE90
040000
ENDCHAR
STARTCHAR Ugrave
ENCODING 217
SWIDTH 561 0
DWIDTH 6 0
BBX 6 11 0 0
BITMAP
04D100
008500
000000
4A0078
4A0078
4A0078
4A0078
4A0078
4A0087
2E21C5
07EE90
ENDCHAR
STARTCHAR Uacute
ENCODING 218
SWIDTH 561 0
DWIDTH 6 0
BBX 6 11 0 0
BITMAP
000B60
003A00
000000
4A0078
4A0078
4A0078
4A0078
4A0078
4A0087
2E21C5
07EE90
ENDCHAR
STARTCHAR Ucircumflex
ENCODING 219
SWIDTH 561 0
DWIDTH 6 0
BBX 6 11 0 0
BITMAP
009B00
02A840
000000
4A0078
4A0078
4A0078
4A0078
4A0078
4A0087
2E21C5
07EE90
ENDCHAR
STARTCHAR Udieresis
ENCODING 220
SWIDTH 561 0
DWIDTH 6 0
BBX 6 11 0 0
BITMAP
000010
0863B0
000000
4A0078
4A0078
4A0078
4A0078
4A0078
4A0087
2E21C5
07EE90
ENDCHAR
STARTCHAR Yacute
ENCODING 221
SWIDTH 524 0
DWIDTH 6 0
BBX 6 11 0 0
BITMAP
001D40
006800
000000
9700B6
3D02D0
0B4870
04AD10
00D900
009600
009600
009600
ENDCHAR
STARTCHAR Thorn
ENCODING 222
SWIDTH 515 0
DWIDTH 6 0
BBX 6 8 0 0
BITMAP
3C0000
3C0000
3FFE60
3C02E1
3C02E1
3FFE60
3C0000
3C0000
ENDCHAR
STARTCHAR germandbls
ENCODING 223
SWIDTH 521 0
DWIDTH 6 0
BBX 6 9 0 0
BITMAP
08EA00
2D1B30
4A0A30
4A1D00
4A2C00
4A0A70
4A01D2
4A21D3
4A9EA0
ENDCHAR
STARTCHAR agrave
ENCODING 224
SWIDTH 479 0
DWIDTH 5 0
BBX 5 9 0 0
BITMAP
099000
01C100
000000
0AEC20
251870
09EF80
4C1780
5B1A80
1CEB90
ENDCHAR
STARTCHAR aacute
ENCODING 225
SWIDTH 479 0
DWIDTH 5 0
BBX 5 9 0 0
BITMAP
002E20
008500
000000
0AEC20
251870
09EF80
4C1780
5B1A80
1CEB90
ENDCHAR
STARTCHAR acircumflex
ENCODING 226
SWIDTH 479 0
DWIDTH 5 0
BBX 5 9 0 0
BITMAP
01D600
066B00
000000
0AEC20
251870
09EF80
4C1780
5B1A80
1CEB90
ENDCHAR
STARTCHAR atilde
ENCODING 227
SWIDTH 479 0
DWIDTH 5 0
BBX 5 9 0 0
BITMAP
08A650
0A5D10
000000
0AEC20
251870
09EF80
4C1780
5B1A80
1CEB90
ENDCHAR
STARTCHAR adieresis
ENCODING 228
SWIDTH 479 0
DWIDTH 5 0
BBX 5 9 0 0
BITMAP
010100
0D1860
000000
0AEC20
251870
09EF80
4C1780
5B1A80
1CEB90
ENDCHAR
STARTCHAR aring
ENCODING 229
SWIDTH 479 0
DWIDTH 5 0
BBX 5 9 0 0
BITMAP
039800
039800
000000
0AEC20
251870
09EF80
4C1780
5B1A80
1CEB90
ENDCHAR
STARTCHAR ae
ENCODING 230
SWIDTH 728 0
DWIDTH 8 0
BBX 8 6 0 0
BITMAP
1CEA8EB1
251BA187
1BEFFFF9
79196000
791BC121
2DE78ED4
ENDCHAR
STARTCHAR ccedilla
ENCODING 231
SWIDTH 461 0
DWIDTH 5 0
BBX 5 8 0 -2
BITMAP
09EC20
4B1790
770010
770000
4B1780
09EC20
007000
00D400
ENDCHAR
STARTCHAR egrave
ENCODING 232
SWIDTH 468 0
DWIDTH 5 0
BBX 5 9 0 0
BITMAP
0A8000
01C100
000000
09EC20
4A1690
7FFFB0
780000
4C1220
09ED40
ENDCHAR
STARTCHAR eacute
ENCODING 233
SWIDTH 468 0
DWIDTH 5 0
BBX 5 9 0 0
BITMAP
003D10
009400
000000
09EC20
4A1690
7FFFB0
780000
4C1220
09ED40
ENDCHAR
STARTCHAR ecircumflex
ENCODING 234
SWIDTH 468 0
DWIDTH 5 0
BBX 5 9 0 0
BITMAP
02D500
075B00
000000
09EC20
4A1690
7FFFB0
780000
4C1220
09ED40
ENDCHAR
STARTCHAR edieresis
ENCODING 235
SWIDTH 468 0
DWIDTH 5 0
BBX 5 9 0 0
BITMAP
010100
0D0A40
000000
09EC20
4A1690
7FFFB0
780000
4C1220
09ED40
ENDCHAR
STARTCHAR igrave
ENCODING 236
SWIDTH 234 0
DWIDTH 3 0
BBX 3 9 -1 0
BITMAP
2E30
0580
0000
03B0
03B0
03B0
03B0
03B0
03B0
ENDCHAR
STARTCHAR iacute
ENCODING 237
SWIDTH 234 0
DWIDTH 3 0
BBX 3 9 0 0
BITMAP
0990
1B10
0000
3B00
3B00
3B00
3B00
3B00
3B00
ENDCHAR
STARTCHAR icircumflex
ENCODING 238
SWIDTH 234 0
DWIDTH 3 0
BBX 3 9 0 0
BITMAP
6D10
B570
0000
3B00
3B00
3B00
3B00
3B00
3B00
ENDCHAR
STARTCHAR idieresis
ENCODING 239
SWIDTH 234 0
DWIDTH 3 0
BBX 4 9 -1 0
BITMAP
0101
591D
0000
03B0
03B0
03B0
03B0
03B0
03B0
ENDCHAR
STARTCHAR eth
ENCODING 240
SWIDTH 513 0
DWIDTH 6 0
BBX 5 9 0 0
BITMAP
098240
02CE10
019B50
06EBB0
1E24D0
4A00E0
5A01D0
2E27A0
06EC20
ENDCHAR
STARTCHAR ntilde
ENCODING 241
SWIDTH 483 0
DWIDTH 5 0
BBX 5 9 0 0
BITMAP
08A740
0A5D10
000000
4CDD30
4D2880
4A0590
4A0590
4A0590
4A0590
ENDCHAR
STARTCHAR ograve
ENCODING 242
SWIDTH 501 0
DWIDTH 6 0
BBX 5 9 0 0
BITMAP
099000
01C100
000000
08EC30
4C16B0
7800E0
7800E0
4C15B0
08EC30
ENDCHAR
STARTCHAR oacute
ENCODING 243
SWIDTH 501 0
DWIDTH 6 0
BBX 5 9 0 0
BITMAP
003E20
008500
000000
08EC30
4C16B0
7800E0
7800E0
4C15B0
08EC30
ENDCHAR
STARTCHAR ocircumflex
ENCODING 244
SWIDTH 501 0
DWIDTH 6 0
BBX 5 9 0 0
BITMAP
01D600
075B00
000000
08EC30
4C16B0
7800E0
7800E0
4C15B0
08EC30
ENDCHAR
STARTCHAR otilde
ENCODING 245
SWIDTH 501 0
DWIDTH 6 0
BBX 5 9 0 0
BITMAP
08A640
0A5D10
000000
08EC30
4C16B0
7800E0
7800E0
4C15B0
08EC30
ENDCHAR
STARTCHAR odieresis
ENCODING 246
SWIDTH 501 0
DWIDTH 6 0
BBX 5 9 0 0
BITMAP
010100
0D1950
000000
08EC30
4C16B0
7800E0
7800E0
4C15B0
08EC30
ENDCHAR
STARTCHAR divide
ENCODING 247
SWIDTH 500 0
DWIDTH 6 0
BBX 5 7 0 0
BITMAP
002000
00A200
000000
9FFFE0
000000
00A200
002000
ENDCHAR
STARTCHAR oslash
ENCODING 248
SWIDTH 498 0
DWIDTH 5 0
BBX 5 8 0 -1
BITMAP
000140
07EE40
3D2BA0
6855D0
6891E0
3D76B0
0AEC20
060000
ENDCHAR
STARTCHAR ugrave
ENCODING 249
SWIDTH 483 0
DWIDTH 5 0
BBX 5 9 0 0
BITMAP
0A8000
01C100
000000
5A0590
5A0590
5A0590
5A0590
3C1990
0BEB90
ENDCHAR
STARTCHAR uacute
ENCODING 250
SWIDTH 483 0
DWIDTH 5 0
BBX 5 9 0 0
BITMAP
003D10
009400
000000
5A0590
5A0590
5A0590
5A0590
3C1990
0BEB90
ENDCHAR
STARTCHAR ucircumflex
ENCODING 251
SWIDTH 483 0
DWIDTH 5 0
BBX 5 9 0 0
BITMAP
02D500
075B00
000000
5A0590
5A0590
5A0590
5A0590
3C1990
0BEB90
ENDCHAR
STARTCHAR udieresis
ENCODING 252
SWIDTH 483 0
DWIDTH 5 0
BBX 5 9 0 0
BITMAP
010100
0D0A40
000000
5A0590
5A0590
5A0590
5A0590
3C1990
0BEB90
ENDCHAR
STARTCHAR yacute
ENCODING 253
SWIDTH 416 0
DWIDTH 5 0
BBX 5 11 0 -2
BITMAP
007B00
00B100
000000
A50C30
591D00
1D4900
0BA500
06F100
03B000
087000
8C1000
ENDCHAR
STARTCHAR thorn
ENCODING 254
SWIDTH 508 0
DWIDTH 6 0
BBX 5 10 0 -2
BITMAP
4B0000
4B0000
4DDD30
4D17B0
4B01D0
4B01E0
4D17B0
4DDD30
4B0000
4B0000
ENDCHAR
STARTCHAR ydieresis
ENCODING 255
SWIDTH 416 0
DWIDTH 5 0
BBX 5 11 0 -2
BITMAP
010100
3B0D10
000000
A50C30
591D00
1D4900
0BA500
06F100
03B000
087000
8C1000
ENDCHAR
STARTCHAR Amacron
ENCODING 256
SWIDTH 576 0
DWIDTH 6 0
BBX 6 10 0 0
BITMAP
05FFC0
000000
006B00
00BD10
01C860
0583B0
0A40D1
0EFFF5
4A005A
96001E
ENDCHAR
STARTCHAR amacron
ENCODING 257
SWIDTH 479 0
DWIDTH 5 0
BBX 5 8 0 0
BITMAP
0CFF50
000000
0AEC20
251870
09EF80
4C1780
5B1A80
1CEB90
ENDCHAR
STARTCHAR Abreve
ENCODING 258
SWIDTH 576 0
DWIDTH 6 0
BBX 6 11 0 0
BITMAP
0593B0
01CE40
000000
006B00
00BD10
01C860
0583B0
0A40D1
0EFFF5
4A005A
96001E
ENDCHAR
STARTCHAR abreve
ENCODING 259
SWIDTH 479 0
DWIDTH 5 0
BBX 5 9 0 0
BITMAP
0C2A40
05EB00
000000
0AEC20
251870
09EF80
4C1780
5B1A80
1CEB90
ENDCHAR
STARTCHAR Aogonek
ENCODING 260
SWIDTH 576 0
DWIDTH 6 0
BBX 6 10 0 -2
BITMAP
006B00
00BD10
01C860
0583B0
0A40D1
0EFFF5
4A005A
96001E
000056
00007D
ENDCHAR
STARTCHAR aogonek
ENCODING 261
SWIDTH 479 0
DWIDTH 5 0
BBX 5 8 0 -2
BITMAP
0AEC20
251870
09EF80
4C1780
5B1A80
1CEA90
000A20
000D70
ENDCHAR
STARTCHAR Cacute
ENCODING 262
SWIDTH 566 0
DWIDTH 6 0
BBX 6 11 0 0
BITMAP
000A80
002B00
000000
03CEA0
0D41A7
3B0048
5A0000
5A0000
3B0048
0D41A7
04DEA0
ENDCHAR
STARTCHAR cacute
ENCODING 263
SWIDTH 461 0
DWIDTH 5 0
BBX 5 9 0 0
BITMAP
005C00
00B200
000000
09EC20
4B1790
770010
770000
4B1780
09EC20
ENDCHAR
STARTCHAR Ccircumflex
ENCODING 264
SWIDTH 566 0
DWIDTH 6 0
BBX 6 11 0 0
BITMAP
008C00
01A750
000000
03CEA0
0D41A7
3B0048
5A0000
5A0000
3B0048
0D41A7
04DEA0
ENDCHAR
STARTCHAR ccircumflex
ENCODING 265
SWIDTH 461 0
DWIDTH 5 0
BBX 5 9 0 0
BITMAP
03E300
094900
000000
09EC20
4B1790
770010
770000
4B1780
09EC20
ENDCHAR
STARTCHAR Cdotaccent
ENCODING 266
SWIDTH 566 0
DWIDTH 6 0
BBX 6 11 0 0
BITMAP
000100
005900
000000
03CEA0
0D41A7
3B0048
5A0000
5A0000
3B0048
0D41A7
04DEA0
ENDCHAR
STARTCHAR cdotaccent
ENCODING 267
SWIDTH 461 0
DWIDTH 5 0
BBX 5 9 0 0
BITMAP
001000
00D000
000000
09EC20
4B1790
770010
770000
4B1780
09EC20
ENDCHAR
STARTCHAR Ccaron
ENCODING 268
SWIDTH 566 0
DWIDTH 6 0
BBX 6 11 0 0
BITMAP
01B750
006B00
000000
03CEA0
0D41A7
3B0048
5A0000
5A0000
3B0048
0D41A7
04DEA0
ENDCHAR
STARTCHAR ccaron
ENCODING 269
SWIDTH 461 0
DWIDTH 5 0
BBX 5 9 0 0
BITMAP
0A4A00
02E200
000000
09EC20
4B1790
770010
770000
4B1780
09EC20
ENDCHAR
STARTCHAR Dcaron
ENCODING 270
SWIDTH 570 0
DWIDTH 6 0
BBX 6 11 0 0
BITMAP
057B20
00B700
000000
2FFD50
2C03D3
2C0077
2C0069
2C0069
2C0077
2C03D3
2FFD50
ENDCHAR
STARTCHAR dcaron
ENCODING 271
SWIDTH 569 0
DWIDTH 6 0
BBX 7 8 0 0
BITMAP
0004BB20
0004BA00
0AEBB000
5B17B000
7704B000
7704B000
5B17B000
0AEAB000
ENDCHAR
STARTCHAR Dcroat
ENCODING 272
SWIDTH 585 0
DWIDTH 6 0
BBX 6 8 0 0
BITMAP
0FFD70
0F02C5
0F005A
EFF03B
0F003B
0F005A
0F02C5
0FFD70
ENDCHAR
STARTCHAR dcroat
ENCODING 273
SWIDTH 529 0
DWIDTH 6 0
BBX 6 8 0 0
BITMAP
0004B0
005FF9
09ECB0
4C17B0
7804B0
6804B0
3C17B0
09ECB0
ENDCHAR
STARTCHAR Emacron
ENCODING 274
SWIDTH 496 0
DWIDTH 5 0
BBX 6 10 0 0
BITMAP
0AFF70
000000
2FFFF0
2C0000
2C0000
2FFF90
2C0000
2C0000
2C0000
2FFFF1
ENDCHAR
STARTCHAR emacron
ENCODING 275
SWIDTH 468 0
DWIDTH 5 0
BBX 5 8 0 0
BITMAP
0DFF40
000000
09EC20
4A1690
7FFFB0
780000
4C1220
09ED40
ENDCHAR
STARTCHAR Ebreve
ENCODING 276
SWIDTH 496 0
DWIDTH 5 0
BBX 6 11 0 0
BITMAP
094770
03DC10
000000
2FFFF0
2C0000
2C0000
2FFF90
2C0000
2C0000
2C0000
2FFFF1
ENDCHAR
STARTCHAR ebreve
ENCODING 277
SWIDTH 468 0
DWIDTH 5 0
BBX 5 9 0 0
BITMAP
0D1B30
06EA00
000000
09EC20
4A1690
7FFFB0
780000
4C1220
09ED40
ENDCHAR
STARTCHAR Edotaccent
ENCODING 278
SWIDTH 496 0
DWIDTH 5 0
BBX 6 11 0 0
BITMAP
001000
008600
000000
2FFFF0
2C0000
2C0000
2FFF90
2C0000
2C0000
2C0000
2FFFF1
ENDCHAR
STARTCHAR edotaccent
ENCODING 279
SWIDTH 468 0
DWIDTH 5 0
BBX 5 9 0 0
BITMAP
001000
00C200
000000
09EC20
4A1690
7FFFB0
780000
4C1220
09ED40
ENDCHAR
STARTCHAR Eogonek
ENCODING 280
SWIDTH 496 0
DWIDTH 5 0
BBX 6 10 0 -2
BITMAP
2FFFF0
2C0000
2C0000
2FFF90
2C0000
2C0000
2C0000
2FFFF1
000930
000AA0
ENDCHAR
STARTCHAR eogonek
ENCODING 281
SWIDTH 468 0
DWIDTH 5 0
BBX 5 8 0 -2
BITMAP
09EC20
4A1690
7FFFB0
780000
4C1220
09EE40
00A300
009B00
ENDCHAR
STARTCHAR Ecaron
ENCODING 282
SWIDTH 496 0
DWIDTH 5 0
BBX 6 11 0 0
BITMAP
048A20
00A700
000000
2FFFF0
2C0000
2C0000
2FFF90
2C0000
2C0000
2C0000
2FFFF1
ENDCHAR
STARTCHAR ecaron
ENCODING 283
SWIDTH 468 0
DWIDTH 5 0
BBX 5 9 0 0
BITMAP
085B00
01D300
000000
09EC20
4A1690
7FFFB0
780000
4C1220
09ED40
ENDCHAR
STARTCHAR Gcircumflex
ENCODING 284
SWIDTH 590 0
DWIDTH 7 0
BBX 6 11 0 0
BITMAP
008B00
02A740
000000
05DEA1
1E41A7
4B0036
5A0000
5A0AFB
3C004B
1E516B
04CEC3
ENDCHAR
STARTCHAR gcircumflex
ENCODING 285
SWIDTH 492 0
DWIDTH 5 0
BBX 5 11 0 -2
BITMAP
02E400
085A00
000000
0AEAB0
5C17B0
7704B0
7704B0
4B17B0
0AEBB0
020790
0BEC20
ENDCHAR
STARTCHAR Gbreve
ENCODING 286
SWIDTH 590 0
DWIDTH 7 0
BBX 6 11 0 0
BITMAP
0674A0
01CE30
000000
05DEA1
1E41A7
4B0036
5A0000
5A0AFB
3C004B
1E516B
04CEC3
ENDCHAR
STARTCHAR gbreve
ENCODING 287
SWIDTH 492 0
DWIDTH 5 0
BBX 5 11 0 -2
BITMAP
0D1B20
06E900
000000
0AEAB0
5C17B0
7704B0
7704B0
4B17B0
0AEBB0
020790
0BEC20
ENDCHAR
STARTCHAR Gdotaccent
ENCODING 288
SWIDTH 590 0
DWIDTH 7 0
BBX 6 11 0 0
BITMAP
000100
005900
000000
05DEA1
1E41A7
4B0036
5A0000
5A0AFB
3C004B
1E516B
04CEC3
ENDCHAR
STARTCHAR gdotaccent
ENCODING 289
SWIDTH 492 0
DWIDTH 5 0
BBX 5 11 0 -2
BITMAP
001000
00D200
000000
0AEAB0
5C17B0
7704B0
7704B0
4B17B0
0AEBB0
020790
0BEC20
ENDCHAR
STARTCHAR uni0122
ENCODING 290
SWIDTH 590 0
DWIDTH 7 0
BBX 6 11 0 -3
BITMAP
05DEA1
1E41A7
4B0036
5A0000
5A0AFB
3C004B
1E516B
04CEC3
000000
001C00
003700
ENDCHAR
STARTCHAR uni0123
ENCODING 291
SWIDTH 492 0
DWIDTH 5 0
BBX 5 11 0 -2
BITMAP
008300
00D100
000000
0AEAB0
5C17B0
7704B0
7704B0
4B17B0
0AEBB0
020790
0BEC20
ENDCHAR
STARTCHAR Hcircumflex
ENCODING 292
SWIDTH 620 0
DWIDTH 7 0
BBX 6 11 0 0
BITMAP
005D10
00B570
000000
2C000F
2C000F
2C000F
2FFFFF
2C000F
2C000F
2C000F
2C000F
ENDCHAR
STARTCHAR hcircumflex
ENCODING 293
SWIDTH 482 0
DWIDTH 5 0
BBX 5 11 0 0
BITMAP
04E200
0A5800
000000
4A0000
4A0000
4CDD30
4D2880
4A0590
4A0590
4A0590
4A0590
ENDCHAR
STARTCHAR Hbar
ENCODING 294
SWIDTH 611 0
DWIDTH 7 0
BBX 7 8 0 0
BITMAP
2D000F00
BFFFFF80
2D000F00
2FFFFF00
2D000F00
2D000F00
2D000F00
2D000F00
ENDCHAR
STARTCHAR hbar
ENCODING 295
SWIDTH 497 0
DWIDTH 5 0
BBX 6 9 -1 0
BITMAP
02C000
1FFC00
02C000
02DCE4
02E36A
02C03B
02C03C
02C03C
02C03C
ENDCHAR
STARTCHAR Itilde
ENCODING 296
SWIDTH 250 0
DWIDTH 3 0
BBX 4 11 -1 0
BITMAP
0C5A
3799
0000
02D0
02D0
02D0
02D0
02D0
02D0
02D0
02D0
ENDCHAR
STARTCHAR itilde
ENCODING 297
SWIDTH 234 0
DWIDTH 3 0
BBX 4 9 -1 0
BITMAP
1D4A
46B8
0000
03B0
03B0
03B0
03B0
03B0
03B0
ENDCHAR
STARTCHAR Imacron
ENCODING 298
SWIDTH 250 0
DWIDTH 3 0
BBX 4 10 -1 0
BITMAP
3FFE
0000
02D0
02D0
02D0
02D0
02D0
02D0
02D0
02D0
ENDCHAR
STARTCHAR imacron
ENCODING 299
SWIDTH 234 0
DWIDTH 3 0
BBX 4 8 -1 0
BITMAP
4FFD
0000
03B0
03B0
03B0
03B0
03B0
03B0
ENDCHAR
STARTCHAR Ibreve
ENCODING 300
SWIDTH 250 0
DWIDTH 3 0
BBX 4 11 -1 0
BITMAP
2B1D
0AE6
0000
02D0
02D0
02D0
02D0
02D0
02D0
02D0
02D0
ENDCHAR
STARTCHAR ibreve
ENCODING 301
SWIDTH 234 0
DWIDTH 3 0
BBX 4 9 -1 0
BITMAP
4A2C
0BE5
0000
03B0
03B0
03B0
03B0
03B0
03B0
ENDCHAR
STARTCHAR Iogonek
ENCODING 302
SWIDTH 250 0
DWIDTH 3 0
BBX 2 10 0 -2
BITMAP
2D
2D
2D
2D
2D
2D
2D
2F
94
9B
ENDCHAR
STARTCHAR iogonek
ENCODING 303
SWIDTH 229 0
DWIDTH 3 0
BBX 2 11 0 -2
BITMAP
01
3A
00
3B
3B
3B
3B
3B
4D
A2
BA
ENDCHAR
STARTCHAR Idotaccent
ENCODING 304
SWIDTH 250 0
DWIDTH 3 0
BBX 2 11 0 0
BITMAP
01
2C
00
2D
2D
2D
2D
2D
2D
2D
2D
ENDCHAR
STARTCHAR dotlessi
ENCODING 305
SWIDTH 234 0
DWIDTH 3 0
BBX 2 6 0 0
BITMAP
3B
3B
3B
3B
3B
3B
ENDCHAR
STARTCHAR IJ
ENCODING 306
SWIDTH 733 0
DWIDTH 8 0
BBX 8 8 0 0
BITMAP
2D0000B4
2D0000B4
2D0000B4
2D0000B4
2D0000B4
2D0400B4
2D0C52E2
2D04DE70
ENDCHAR
STARTCHAR ij
ENCODING 307
SWIDTH 452 0
DWIDTH 5 0
BBX 5 11 0 -2
BITMAP
010100
3A0B20
000000
3B0B30
3B0B30
3B0B30
3B0B30
3B0B30
3B0B30
000C30
009C00
ENDCHAR
STARTCHAR Jcircumflex
ENCODING 308
SWIDTH 483 0
DWIDTH 5 0
BBX 6 11 0 0
BITMAP
000B90
0048A2
000000
000780
000780
000780
000780
000780
310780
881B50
2CEA00
ENDCHAR
STARTCHAR jcircumflex
ENCODING 309
SWIDTH 237 0
DWIDTH 3 0
BBX 4 11 -1 -2
BITMAP
05D2
0B57
0000
02C0
02C0
02C0
02C0
02C0
02C0
04C0
2E50
ENDCHAR
STARTCHAR uni0136
ENCODING 310
SWIDTH 544 0
DWIDTH 6 0
BBX 6 10 0 -2
BITMAP
2C00B6
2C07A0
2C3D10
2DD600
2FAC00
2D0B60
2C02E1
2C008A
005800
007300
ENDCHAR
STARTCHAR uni0137
ENCODING 311
SWIDTH 450 0
DWIDTH 5 0
BBX 5 11 0 -3
BITMAP
4A0000
4A0000
4A0C40
4A8800
4CD000
4EC500
4A3D10
4A0880
000000
00D000
028000
ENDCHAR
STARTCHAR kgreenlandic
ENCODING 312
SWIDTH 491 0
DWIDTH 5 0
BBX 5 6 0 0
BITMAP
3B0A70
3B7A00
3FF100
3B8800
3B1E30
3B06B0
ENDCHAR
STARTCHAR Lacute
ENCODING 313
SWIDTH 475 0
DWIDTH 5 0
BBX 5 11 0 0
BITMAP
08A000
1B1000
000000
2C0000
2C0000
2C0000
2C0000
2C0000
2C0000
2C0000
2FFFE0
ENDCHAR
STARTCHAR lacute
ENCODING 314
SWIDTH 229 0
DWIDTH 3 0
BBX 3 11 0 1
BITMAP
0990
1B10
0000
3B00
3B00
3B00
3B00
3B00
3B00
3B00
3B00
ENDCHAR
STARTCHAR uni013B
ENCODING 315
SWIDTH 475 0
DWIDTH 5 0
BBX 5 11 0 -3
BITMAP
2C0000
2C0000
2C0000
2C0000
2C0000
2C0000
2C0000
2FFFE0
000000
009400
009100
ENDCHAR
STARTCHAR uni013C
ENCODING 316
SWIDTH 229 0
DWIDTH 3 0
BBX 2 11 0 -3
BITMAP
3B
3B
3B
3B
3B
3B
3B
3B
00
3A
55
ENDCHAR
STARTCHAR Lcaron
ENCODING 317
SWIDTH 475 0
DWIDTH 5 0
BBX 5 8 0 0
BITMAP
2C0D00
2C3800
2C0000
2C0000
2C0000
2C0000
2C0000
2FFFE0
ENDCHAR
STARTCHAR lcaron
ENCODING 318
SWIDTH 302 0
DWIDTH 3 0
BBX 4 8 0 0
BITMAP
3B95
3B91
3B00
3B00
3B00
3B00
3B00
3B00
ENDCHAR
STARTCHAR Ldot
ENCODING 319
SWIDTH 475 0
DWIDTH 5 0
BBX 5 8 0 0
BITMAP
2C0000
2C0000
2C0100
2C2C00
2C0000
2C0000
2C0000
2FFFE0
ENDCHAR
STARTCHAR ldot
ENCODING 320
SWIDTH 336 0
DWIDTH 4 0
BBX 4 8 0 0
BITMAP
3B00
3B00
3B10
3BA4
3B00
3B00
3B00
3B00
ENDCHAR
STARTCHAR Lslash
ENCODING 321
SWIDTH 475 0
DWIDTH 5 0
BBX 5 8 0 0
BITMAP
2C0000
2C0000
2C0000
3EC000
AD3000
2C0000
2C0000
2FFFE0
ENDCHAR
STARTCHAR lslash
ENCODING 322
SWIDTH 250 0
DWIDTH 3 0
BBX 3 9 0 0
BITMAP
2C00
2C00
2C00
2C00
3E70
AD10
2C00
2C00
2C00
ENDCHAR
STARTCHAR Nacute
ENCODING 323
SWIDTH 619 0
DWIDTH 7 0
BBX 6 11 0 0
BITMAP
0007B0
000B10
000000
2F200E
2F900E
2DC20E
2C590E
2C0C2E
2C05AE
2C00CE
2C004E
ENDCHAR
STARTCHAR nacute
ENCODING 324
SWIDTH 483 0
DWIDTH 5 0
BBX 5 9 0 0
BITMAP
003E20
009500
000000
4CDD30
4D2880
4A0590
4A0590
4A0590
4A0590
ENDCHAR
STARTCHAR uni0145
ENCODING 325
SWIDTH 619 0
DWIDTH 7 0
BBX 6 11 0 -3
BITMAP
2F200E
2F900E
2DC20E
2C590E
2C0C2E
2C05AE
2C00CE
2C004E
000000
002B00
004600
ENDCHAR
STARTCHAR uni0146
ENCODING 326
SWIDTH 483 0
DWIDTH 5 0
BBX 5 9 0 -3
BITMAP
4CDD30
4D2880
4A0590
4A0590
4A0590
4A0590
000000
00D100
01A000
ENDCHAR
STARTCHAR Ncaron
ENCODING 327
SWIDTH 619 0
DWIDTH 7 0
BBX 6 11 0 0
BITMAP
00B590
003D10
000000
2F200E
2F900E
2DC20E
2C590E
2C0C2E
2C05AE
2C00CE
2C004E
ENDCHAR
STARTCHAR ncaron
ENCODING 328
SWIDTH 483 0
DWIDTH 5 0
BBX 5 9 0 0
BITMAP
085B00
01D400
000000
4CDD30
4D2880
4A0590
4A0590
4A0590
4A0590
ENDCHAR
STARTCHAR napostrophe
ENCODING 329
SWIDTH 483 0
DWIDTH 5 0
BBX 6 8 -1 0
BITMAP
0D0000
190000
04CDD3
04D288
04A059
04A059
04A059
04A059
ENDCHAR
STARTCHAR Eng
ENCODING 330
SWIDTH 599 0
DWIDTH 7 0
BBX 6 10 0 -2
BITMAP
3E103C
3F803C
3CD13C
3C683C
3C0C4C
3C05BC
3C00BC
3C004C
00004C
0002E5
ENDCHAR
STARTCHAR eng
ENCODING 331
SWIDTH 498 0
DWIDTH 5 0
BBX 5 8 0 -2
BITMAP
4BCD30
4D1790
4A04B0
4A04B0
4A04B0
4A04B0
0006A0
004E40
ENDCHAR
STARTCHAR Omacron
ENCODING 332
SWIDTH 600 0
DWIDTH 7 0
BBX 6 10 0 0
BITMAP
03FFE0
000000
04CEA1
0D4198
3B002C
5A001E
5A001E
3B002D
1E4198
04DEA1
ENDCHAR
STARTCHAR omacron
ENCODING 333
SWIDTH 501 0
DWIDTH 6 0
BBX 5 8 0 0
BITMAP
0DFF40
000000
08EC30
4C16B0
7800E0
7800E0
4C15B0
08EC30
ENDCHAR
STARTCHAR Obreve
ENCODING 334
SWIDTH 600 0
DWIDTH 7 0
BBX 6 11 0 0
BITMAP
03A2C0
00AE50
000000
04CEA1
0D4198
3B002C
5A001E
5A001E
3B002D
1E4198
04DEA1
ENDCHAR
STARTCHAR obreve
ENCODING 335
SWIDTH 501 0
DWIDTH 6 0
BBX 5 9 0 0
BITMAP
0C2A40
05EB00
000000
08EC30
4C16B0
7800E0
7800E0
4C15B0
08EC30
ENDCHAR
STARTCHAR Ohungarumlaut
ENCODING 336
SWIDTH 600 0
DWIDTH 7 0
BBX 6 11 0 0
BITMAP
006AD3
009780
000000
04CEA1
0D4198
3B002C
5A001E
5A001E
3B002D
1E4198
04DEA1
ENDCHAR
STARTCHAR ohungarumlaut
ENCODING 337
SWIDTH 501 0
DWIDTH 6 0
BBX 5 9 0 0
BITMAP
01D990
048B10
000000
08EC30
4C16B0
7800E0
7800E0
4C15B0
08EC30
ENDCHAR
STARTCHAR OE
ENCODING 338
SWIDTH 826 0
DWIDTH 9 0
BBX 9 8 0 0
BITMAP
05DFFFFF30
2E31F00000
5900F00000
7800FFFC00
7800F00000
5900F00000
2E30F00000
05DFFFFF40
ENDCHAR
STARTCHAR oe
ENCODING 339
SWIDTH 777 0
DWIDTH 9 0
BBX 9 6 0 0
BITMAP
07EC3CE600
3D17F52D00
6801FFFF20
6801F10000
3D17F71300
07EC4CE900
ENDCHAR
STARTCHAR Racute
ENCODING 340
SWIDTH 530 0
DWIDTH 6 0
BBX 6 11 0 0
BITMAP
001D30
006700
000000
2FFE80
2C02D3
2C00A5
2C02D3
2FFF80
2C0970
2C02E1
2C00A7
ENDCHAR
STARTCHAR racute
ENCODING 341
SWIDTH 304 0
DWIDTH 3 0
BBX 4 9 0 0
BITMAP
01D4
0580
0000
4CE2
4D10
4A00
4A00
4A00
4A00
ENDCHAR
STARTCHAR uni0156
ENCODING 342
SWIDTH 530 0
DWIDTH 6 0
BBX 6 11 0 -3
BITMAP
2FFE80
2C02D3
2C00A5
2C02D3
2FFF80
2C0970
2C02E1
2C00A7
000000
009400
00A100
ENDCHAR
STARTCHAR uni0157
ENCODING 343
SWIDTH 304 0
DWIDTH 3 0
BBX 4 9 0 -3
BITMAP
4CE2
4D10
4A00
4A00
4A00
4A00
0000
3A00
5500
ENDCHAR
STARTCHAR Rcaron
ENCODING 344
SWIDTH 530 0
DWIDTH 6 0
BBX 6 11 0 0
BITMAP
057B10
00B600
000000
2FFE80
2C02D3
2C00A5
2C02D3
2FFF80
2C0970
2C02E1
2C00A7
ENDCHAR
STARTCHAR rcaron
ENCODING 345
SWIDTH 304 0
DWIDTH 3 0
BBX 4 9 0 0
BITMAP
48A2
0980
0000
4CE2
4D10
4A00
4A00
4A00
4A00
ENDCHAR
STARTCHAR Sacute
ENCODING 346
SWIDTH 518 0
DWIDTH 6 0
BBX 6 11 0 0
BITMAP
001D40
005800
000000
07ED40
3D13E1
4B0062
0BB400
005BA0
4400C3
4C12E2
07EE70
ENDCHAR
STARTCHAR sacute
ENCODING 347
SWIDTH 455 0
DWIDTH 5 0
BBX 5 9 0 0
BITMAP
003E20
009500
000000
0AEB10
4C1840
1DA300
016E40
591A60
1BEC10
ENDCHAR
STARTCHAR Scircumflex
ENCODING 348
SWIDTH 518 0
DWIDTH 6 0
BBX 6 11 0 0
BITMAP
00B900
048A20
000000
07ED40
3D13E1
4B0062
0BB400
005BA0
4400C3
4C12E2
07EE70
ENDCHAR
STARTCHAR scircumflex
ENCODING 349
SWIDTH 455 0
DWIDTH 5 0
BBX 5 9 0 0
BITMAP
01D500
075B00
000000
0AEB10
4C1840
1DA300
016E40
591A60
1BEC10
ENDCHAR
STARTCHAR Scedilla
ENCODING 350
SWIDTH 518 0
DWIDTH 6 0
BBX 6 10 0 -2
BITMAP
07ED40
3D13E1
4B0062
0BB400
005BA0
4400C3
4C12E2
07EE70
003400
007A00
ENDCHAR
STARTCHAR scedilla
ENCODING 351
SWIDTH 455 0
DWIDTH 5 0
BBX 5 8 0 -2
BITMAP
0AEB10
4C1840
1DA300
016E40
591A60
1BEC10
006000
00B700
ENDCHAR
STARTCHAR Scaron
ENCODING 352
SWIDTH 518 0
DWIDTH 6 0
BBX 6 11 0 0
BITMAP
048A20
00A700
000000
07ED40
3D13E1
4B0062
0BB400
005BA0
4400C3
4C12E2
07EE70
ENDCHAR
STARTCHAR scaron
ENCODING 353
SWIDTH 455 0
DWIDTH 5 0
BBX 5 9 0 0
BITMAP
085B00
01D400
000000
0AEB10
4C1840
1DA300
016E40
591A60
1BEC10
ENDCHAR
STARTCHAR uni0162
ENCODING 354
SWIDTH 520 0
DWIDTH 6 0
BBX 6 10 0 -2
BITMAP
AFFFF6
009500
009500
009500
009500
009500
009500
009500
004300
008900
ENDCHAR
STARTCHAR uni0163
ENCODING 355
SWIDTH 295 0
DWIDTH 3 0
BBX 4 9 0 -2
BITMAP
0E00
DFC0
0E00
0E00
0E00
0E10
0AC0
0150
04D1
ENDCHAR
STARTCHAR Tcaron
ENCODING 356
SWIDTH 520 0
DWIDTH 6 0
BBX 6 11 0 0
BITMAP
057B20
00B700
000000
AFFFF6
009500
009500
009500
009500
009500
009500
009500
ENDCHAR
STARTCHAR tcaron
ENCODING 357
SWIDTH 314 0
DWIDTH 3 0
BBX 4 9 0 0
BITMAP
0049
0064
0E00
DFC0
0E00
0E00
0E00
0E10
0AC0
ENDCHAR
STARTCHAR Tbar
ENCODING 358
SWIDTH 520 0
DWIDTH 6 0
BBX 6 8 0 0
BITMAP
AFFFF6
009500
009500
08FF60
009500
009500
009500
009500
ENDCHAR
STARTCHAR tbar
ENCODING 359
SWIDTH 295 0
DWIDTH 3 0
BBX 3 7 0 0
BITMAP
0E00
DFC0
0E00
FFE0
0E00
0E10
0AC0
ENDCHAR
STARTCHAR Utilde
ENCODING 360
SWIDTH 561 0
DWIDTH 6 0
BBX 6 11 0 0
BITMAP
03D3A0
074C50
000000
4A0078
4A0078
4A0078
4A0078
4A0078
4A0087
2E21C5
07EE90
ENDCHAR
STARTCHAR utilde
ENCODING 361
SWIDTH 483 0
DWIDTH 5 0
BBX 5 9 0 0
BITMAP
099730
0A5D00
000000
5A0590
5A0590
5A0590
5A0590
3C1990
0BEB90
ENDCHAR
STARTCHAR Umacron
ENCODING 362
SWIDTH 561 0
DWIDTH 6 0
BBX 6 10 0 0
BITMAP
07FFA0
000000
4A0078
4A0078
4A0078
4A0078
4A0078
4A0087
2E21C5
07EE90
ENDCHAR
STARTCHAR umacron
ENCODING 363
SWIDTH 483 0
DWIDTH 5 0
BBX 5 8 0 0
BITMAP
0DFF40
000000
5A0590
5A0590
5A0590
5A0590
3C1990
0BEB90
ENDCHAR
STARTCHAR Ubreve
ENCODING 364
SWIDTH 561 0
DWIDTH 6 0
BBX 6 11 0 0
BITMAP
077490
01CD30
000000
4A0078
4A0078
4A0078
4A0078
4A0078
4A0087
2E21C5
07EE90
ENDCHAR
STARTCHAR ubreve
ENCODING 365
SWIDTH 483 0
DWIDTH 5 0
BBX 5 9 0 0
BITMAP
0D1B30
06EA00
000000
5A0590
5A0590
5A0590
5A0590
3C1990
0BEB90
ENDCHAR
STARTCHAR Uring
ENCODING 366
SWIDTH 561 0
DWIDTH 6 0
BBX 6 11 0 0
BITMAP
009910
009910
000000
4A0078
4A0078
4A0078
4A0078
4A0078
4A0087
2E21C5
07EE90
ENDCHAR
STARTCHAR uring
ENCODING 367
SWIDTH 483 0
DWIDTH 5 0
BBX 5 9 0 0
BITMAP
048700
048700
000000
5A0590
5A0590
5A0590
5A0590
3C1990
0BEB90
ENDCHAR
STARTCHAR Uhungarumlaut
ENCODING 368
SWIDTH 561 0
DWIDTH 6 0
BBX 6 11 0 0
BITMAP
0098D1
00B850
000000
4A0078
4A0078
4A0078
4A0078
4A0078
4A0087
2E21C5
07EE90
ENDCHAR
STARTCHAR uhungarumlaut
ENCODING 369
SWIDTH 483 0
DWIDTH 5 0
BBX 5 9 0 0
BITMAP
01D980
048B10
000000
5A0590
5A0590
5A0590
5A0590
3C1990
0BEB90
ENDCHAR
STARTCHAR Uogonek
ENCODING 370
SWIDTH 561 0
DWIDTH 6 0
BBX 6 10 0 -2
BITMAP
4A0078
4A0078
4A0078
4A0078
4A0078
4A0087
2E21C5
07EF90
002B00
001E50
ENDCHAR
STARTCHAR uogonek
ENCODING 371
SWIDTH 483 0
DWIDTH 5 0
BBX 5 8 0 -2
BITMAP
5A0590
5A0590
5A0590
5A0590
3C1990
0BEB90
000A20
000C80
ENDCHAR
STARTCHAR Wcircumflex
ENCODING 372
SWIDTH 761 0
DWIDTH 8 0
BBX 8 11 0 0
BITMAP
0006D100
000B6600
00000000
8704C00E
5907E02C
2C0BA359
0E0C5686
0B5A2AA3
08B60CC1
05F30AC0
02E00790
ENDCHAR
STARTCHAR wcircumflex
ENCODING 373
SWIDTH 649 0
DWIDTH 7 0
BBX 7 9 0 0
BITMAP
003E3000
0094A000
00000000
950E13B0
683F5680
2B799940
0DB2CC10
0AC0BC00
06907800
ENDCHAR
STARTCHAR Ycircumflex
ENCODING 374
SWIDTH 524 0
DWIDTH 6 0
BBX 6 11 0 0
BITMAP
00B900
048A20
000000
9700B6
3D02D0
0B4870
04AD10
00D900
009600
009600
009600
ENDCHAR
STARTCHAR ycircumflex
ENCODING 375
SWIDTH 416 0
DWIDTH 5 0
BBX 5 11 0 -2
BITMAP
04E200
0A5800
000000
A50C30
591D00
1D4900
0BA500
06F100
03B000
087000
8C1000
ENDCHAR
STARTCHAR Ydieresis
ENCODING 376
SWIDTH 524 0
DWIDTH 6 0
BBX 6 11 0 0
BITMAP
010000
0A3680
000000
9700B6
3D02D0
0B4870
04AD10
00D900
009600
009600
009600
ENDCHAR
STARTCHAR Zacute
ENCODING 377
SWIDTH 522 0
DWIDTH 6 0
BBX 6 11 0 0
BITMAP
001D40
006800
000000
7FFFF2
0004C0
000C30
006900
01D100
097000
3D0000
8FFFF4
ENDCHAR
STARTCHAR zacute
ENCODING 378
SWIDTH 438 0
DWIDTH 5 0
BBX 5 9 0 0
BITMAP
006B00
00B200
000000
7FFF40
003C00
00C300
079000
2D1000
7FFF60
ENDCHAR
STARTCHAR Zdotaccent
ENCODING 379
SWIDTH 522 0
DWIDTH 6 0
BBX 6 11 0 0
BITMAP
001000
009500
000000
7FFFF2
0004C0
000C30
006900
01D100
097000
3D0000
8FFFF4
ENDCHAR
STARTCHAR zdotaccent
ENCODING 380
SWIDTH 438 0
DWIDTH 5 0
BBX 5 9 0 0
BITMAP
001000
01D000
000000
7FFF40
003C00
00C300
079000
2D1000
7FFF60
ENDCHAR
STARTCHAR Zcaron
ENCODING 381
SWIDTH 522 0
DWIDTH 6 0
BBX 6 11 0 0
BITMAP
048A20
00A700
000000
7FFFF2
0004C0
000C30
006900
01D100
097000
3D0000
8FFFF4
ENDCHAR
STARTCHAR zcaron
ENCODING 382
SWIDTH 438 0
DWIDTH 5 0
BBX 5 9 0 0
BITMAP
0B4900
03D100
000000
7FFF40
003C00
00C300
079000
2D1000
7FFF60
ENDCHAR
STARTCHAR longs
ENCODING 383
SWIDTH 234 0
DWIDTH 3 0
BBX 3 9 0 0
BITMAP
09E0
2D10
3C00
3C00
3C00
3C00
3C00
3C00
3C00
ENDCHAR
STARTCHAR uni018F
ENCODING 399
SWIDTH 597 0
DWIDTH 7 0
BBX 6 8 0 0
BITMAP
08EE80
0312C6
00004B
00001D
8FFFFE
68003C
2D21A6
06DE80
ENDCHAR
STARTCHAR florin
ENCODING 402
SWIDTH 309 0
DWIDTH 3 0
BBX 4 11 0 -2
BITMAP
06E3
0D30
0E00
AFD0
0E00
0E00
0E00
0E00
0E00
1E00
D800
ENDCHAR
STARTCHAR Ohorn
ENCODING 416
SWIDTH 592 0
DWIDTH 7 0
BBX 7 9 0 0
BITMAP
00000240
04DE6870
1E41BD10
5A004900
78002C00
78002D00
5A004B00
1E41B600
04DE9000
ENDCHAR
STARTCHAR ohorn
ENCODING 417
SWIDTH 502 0
DWIDTH 6 0
BBX 6 7 0 0
BITMAP
000012
07EB57
3D16E3
6800D0
6800E0
3D16C0
07EC30
ENDCHAR
STARTCHAR Uhorn
ENCODING 431
SWIDTH 608 0
DWIDTH 7 0
BBX 8 9 0 0
BITMAP
00000052
4A0078C1
4A007E80
4A007800
4A007800
4A007800
4B008700
1E32D400
06DE8000
ENDCHAR
STARTCHAR uhorn
ENCODING 432
SWIDTH 549 0
DWIDTH 6 0
BBX 6 7 0 0
BITMAP
000002
5A059B
5A05F8
5A0590
5A0590
3C1990
0BEB90
ENDCHAR
STARTCHAR uni01F0
ENCODING 496
SWIDTH 237 0
DWIDTH 3 0
BBX 4 11 -1 -2
BITMAP
0B58
04D1
0000
02C0
02C0
02C0
02C0
02C0
02C0
04C0
2E50
ENDCHAR
STARTCHAR Aringacute
ENCODING 506
SWIDTH 576 0
DWIDTH 6 0
BBX 6 12 0 0
BITMAP
000950
000900
006C00
006C00
006B00
00BD10
01C860
0583B0
0A40D1
0EFFF5
4A005A
96001E
ENDCHAR
STARTCHAR aringacute
ENCODING 507
SWIDTH 479 0
DWIDTH 5 0
BBX 5 10 0 0
BITMAP
001C00
004500
00C500
00C500
0AEC20
251870
09EF80
4C1780
5B1A80
1CEB90
ENDCHAR
STARTCHAR AEacute
ENCODING 508
SWIDTH 812 0
DWIDTH 9 0
BBX 9 11 0 0
BITMAP
00008A0000
0001B10000
0000000000
0004FFFF60
000CC50000
004A950000
00C39FFF00
04B0860000
0CFFF70000
4C00770000
C6007FFFA0
ENDCHAR
STARTCHAR aeacute
ENCODING 509
SWIDTH 728 0
DWIDTH 8 0
BBX 8 9 0 0
BITMAP
0000C500
00049000
00000000
1CEA8EB1
251BA187
1BEFFFF9
79196000
791BC121
2DE78ED4
ENDCHAR
STARTCHAR Oslashacute
ENCODING 510
SWIDTH 600 0
DWIDTH 7 0
BBX 6 12 0 -1
BITMAP
0008A0
001C10
000002
03CEAA
0D51B7
3C01BC
5A083E
59280E
3B913C
0C91A7
0ACE90
040000
ENDCHAR
STARTCHAR oslashacute
ENCODING 511
SWIDTH 498 0
DWIDTH 5 0
BBX 5 10 0 -1
BITMAP
005D10
00A300
000140
07EE40
3D2BA0
6855D0
6891E0
3D76B0
0AEC20
060000
ENDCHAR
STARTCHAR uni0218
ENCODING 536
SWIDTH 518 0
DWIDTH 6 0
BBX 6 11 0 -3
BITMAP
07ED40
3D13E1
4B0062
0BB400
005BA0
4400C3
4C12E2
07EE70
000000
008500
009100
ENDCHAR
STARTCHAR uni0219
ENCODING 537
SWIDTH 455 0
DWIDTH 5 0
BBX 5 9 0 -3
BITMAP
0AEB10
4C1840
1DA300
016E40
591A60
1BEC10
000000
00C100
00A000
ENDCHAR
STARTCHAR uni021A
ENCODING 538
SWIDTH 520 0
DWIDTH 6 0
BBX 6 11 0 -3
BITMAP
AFFFF6
009500
009500
009500
009500
009500
009500
009500
000000
009400
00A100
ENDCHAR
STARTCHAR uni021B
ENCODING 539
SWIDTH 295 0
DWIDTH 3 0
BBX 3 10 0 -3
BITMAP
0E00
DFC0
0E00
0E00
0E00
0E10
0AC0
0000
0590
0740
ENDCHAR
STARTCHAR uni0237
ENCODING 567
SWIDTH 237 0
DWIDTH 3 0
BBX 3 8 -1 -2
BITMAP
02C0
02C0
02C0
02C0
02C0
02C0
04C0
2E50
ENDCHAR
STARTCHAR uni0259
ENCODING 601
SWIDTH 465 0
DWIDTH 5 0
BBX 5 6 0 0
BITMAP
1BE900
141B60
000590
6FFFA0
4A1960
0AEA00
ENDCHAR
STARTCHAR uni02BC
ENCODING 700
SWIDTH 194 0
DWIDTH 2 0
BBX 2 3 0 6
BITMAP
4A
58
82
ENDCHAR
STARTCHAR circumflex
ENCODING 710
SWIDTH 428 0
DWIDTH 5 0
BBX 3 2 1 7
BITMAP
6D10
B570
ENDCHAR
STARTCHAR caron
ENCODING 711
SWIDTH 403 0
DWIDTH 4 0
BBX 4 2 0 7
BITMAP
1B75
06B0
ENDCHAR
STARTCHAR uni02C9
ENCODING 713
SWIDTH 414 0
DWIDTH 5 0
BBX 4 1 0 7
BITMAP
4FFD
ENDCHAR
STARTCHAR breve
ENCODING 728
SWIDTH 426 0
DWIDTH 5 0
BBX 4 2 0 6
BITMAP
4A2C
0BE5
ENDCHAR
STARTCHAR dotaccent
ENCODING 729
SWIDTH 242 0
DWIDTH 3 0
BBX 2 2 0 7
BITMAP
01
2C
ENDCHAR
STARTCHAR ring
ENCODING 730
SWIDTH 334 0
DWIDTH 4 0
BBX 3 2 0 6
BITMAP
2980
2990
ENDCHAR
STARTCHAR ogonek
ENCODING 731
SWIDTH 253 0
DWIDTH 3 0
BBX 2 3 0 -2
BITMAP
02
75
7D
ENDCHAR
STARTCHAR tilde
ENCODING 732
SWIDTH 427 0
DWIDTH 5 0
BBX 4 2 0 7
BITMAP
1D5A
46A8
ENDCHAR
STARTCHAR hungarumlaut
ENCODING 733
SWIDTH 331 0
DWIDTH 4 0
BBX 4 2 0 7
BITMAP
1D98
48B1
ENDCHAR
STARTCHAR uni02F3
ENCODING 755
SWIDTH 263 0
DWIDTH 3 0
BBX 3 2 0 -3
BITMAP
3E10
3E10
ENDCHAR
STARTCHAR gravecomb
ENCODING 768
SWIDTH 0 0
DWIDTH 0 0
BBX 2 2 -4 7
BITMAP
89
1B
ENDCHAR
STARTCHAR acutecomb
ENCODING 769
SWIDTH 0 0
DWIDTH 0 0
BBX 2 2 -3 7
BITMAP
5C
A2
ENDCHAR
STARTCHAR tildecomb
ENCODING 771
SWIDTH 0 0
DWIDTH 0 0
BBX 4 2 -4 7
BITMAP
8A74
A5D1
ENDCHAR
STARTCHAR hookabovecomb
ENCODING 777
SWIDTH 0 0
DWIDTH 0 0
BBX 2 3 -3 7
BITMAP
D3
66
C1
ENDCHAR
STARTCHAR uni030F
ENCODING 783
SWIDTH 0 0
DWIDTH 0 0
BBX 4 2 -5 7
BITMAP
1D97
05AB
ENDCHAR
STARTCHAR dotbelowcomb
ENCODING 803
SWIDTH 0 0
DWIDTH 0 0
BBX 2 2 -4 -3
BITMAP
A4
10
ENDCHAR
STARTCHAR tonos
ENCODING 900
SWIDTH 256 0
DWIDTH 3 0
BBX 2 2 1 7
BITMAP
C1
90
ENDCHAR
STARTCHAR dieresistonos
ENCODING 901
SWIDTH 452 0
DWIDTH 5 0
BBX 5 2 0 7
BITMAP
00A100
580A30
ENDCHAR
STARTCHAR Alphatonos
ENCODING 902
SWIDTH 576 0
DWIDTH 6 0
BBX 6 9 0 0
BITMAP
0D0000
186B00
00BD10
01C860
0583B0
0A40D1
0EFFF5
4A005A
96001E
ENDCHAR
STARTCHAR anoteleia
ENCODING 903
SWIDTH 243 0
DWIDTH 3 0
BBX 2 2 0 3
BITMAP
2B
01
ENDCHAR
STARTCHAR Epsilontonos
ENCODING 904
SWIDTH 496 0
DWIDTH 5 0
BBX 7 9 -1 0
BITMAP
C1000000
92FFFF00
02C00000
02C00000
02FFF900
02C00000
02C00000
02C00000
02FFFF10
ENDCHAR
STARTCHAR Etatonos
ENCODING 905
SWIDTH 620 0
DWIDTH 7 0
BBX 7 9 -1 0
BITMAP
B2000000
92C000F0
02C000F0
02C000F0
02FFFFF0
02C000F0
02C000F0
02C000F0
02C000F0
ENDCHAR
STARTCHAR Iotatonos
ENCODING 906
SWIDTH 250 0
DWIDTH 3 0
BBX 3 9 -1 0
BITMAP
B200
92D0
02D0
02D0
02D0
02D0
02D0
02D0
02D0
ENDCHAR
STARTCHAR Omicrontonos
ENCODING 908
SWIDTH 610 0
DWIDTH 7 0
BBX 8 9 -1 0
BITMAP
0D000000
183CEB10
00C518A0
02D001E0
03C000E1
03C000E1
02D001E0
00D618A0
003CEB20
ENDCHAR
STARTCHAR Upsilontonos
ENCODING 910
SWIDTH 573 0
DWIDTH 6 0
BBX 7 9 -1 0
BITMAP
D0000000
82E103D0
00A60970
003C1D10
000B9900
0005F200
0001E000
0001E000
0001E000
ENDCHAR
STARTCHAR Omegatonos
ENCODING 911
SWIDTH 591 0
DWIDTH 7 0
BBX 7 9 -1 0
BITMAP
0D000000
183CE800
00D51C60
03C005A0
04B003C0
04B003B0
01C00580
00940A20
04FF7FB0
ENDCHAR
STARTCHAR iotadieresistonos
ENCODING 912
SWIDTH 299 0
DWIDTH 3 0
BBX 5 9 -1 0
BITMAP
019200
490940
000000
00E000
00E000
00E000
00E000
00E100
00AC00
ENDCHAR
STARTCHAR Alpha
ENCODING 913
SWIDTH 576 0
DWIDTH 6 0
BBX 6 8 0 0
BITMAP
006B00
00BD10
01C860
0583B0
0A40D1
0EFFF5
4A005A
96001E
ENDCHAR
STARTCHAR Beta
ENCODING 914
SWIDTH 545 0
DWIDTH 6 0
BBX 6 8 0 0
BITMAP
2FFE80
2C01D2
2C02D1
2FFF80
2C01D3
2C00A5
2C01D3
2FFE80
ENDCHAR
STARTCHAR Gamma
ENCODING 915
SWIDTH 487 0
DWIDTH 5 0
BBX 5 8 0 0
BITMAP
2FFFE0
2D0000
2D0000
2D0000
2D0000
2D0000
2D0000
2D0000
ENDCHAR
STARTCHAR Delta.dup1
ENCODING 916
SWIDTH 614 0
DWIDTH 7 0
BBX 7 8 0 0
BITMAP
003F1000
008E5000
00D5A000
03B0D000
0860A500
0D105900
4A001D00
9FFFFF40
ENDCHAR
STARTCHAR Epsilon
ENCODING 917
SWIDTH 496 0
DWIDTH 5 0
BBX 6 8 0 0
BITMAP
2FFFF0
2C0000
2C0000
2FFF90
2C0000
2C0000
2C0000
2FFFF1
ENDCHAR
STARTCHAR Zeta
ENCODING 918
SWIDTH 522 0
DWIDTH 6 0
BBX 6 8 0 0
BITMAP
7FFFF2
0004C0
000C30
006900
01D100
097000
3D0000
8FFFF4
ENDCHAR
STARTCHAR Eta
ENCODING 919
SWIDTH 620 0
DWIDTH 7 0
BBX 6 8 0 0
BITMAP
2C000F
2C000F
2C000F
2FFFFF
2C000F
2C000F
2C000F
2C000F
ENDCHAR
STARTCHAR Theta
ENCODING 920
SWIDTH 593 0
DWIDTH 7 0
BBX 6 8 0 0
BITMAP
04DE80
1D41B6
5A004B
68DF8D
78002D
5B004B
1E41B6
04DE90
ENDCHAR
STARTCHAR Iota
ENCODING 921
SWIDTH 250 0
DWIDTH 3 0
BBX 2 8 0 0
BITMAP
2D
2D
2D
2D
2D
2D
2D
2D
ENDCHAR
STARTCHAR Kappa
ENCODING 922
SWIDTH 544 0
DWIDTH 6 0
BBX 6 8 0 0
BITMAP
2C00B6
2C07A0
2C3D10
2DD600
2FAC00
2D0B60
2C02E1
2C008A
ENDCHAR
STARTCHAR Lambda
ENCODING 923
SWIDTH 572 0
DWIDTH 6 0
BBX 6 8 0 0
BITMAP
007B00
00BE10
01DA50
05A690
0A52E0
0E10C3
4C0088
88004C
ENDCHAR
STARTCHAR Mu
ENCODING 924
SWIDTH 755 0
DWIDTH 8 0
BBX 8 8 0 0
BITMAP
2F4000E7
2F9004F7
2CD009C7
2CB30D87
2C683A87
2C1C8587
2C0BD187
2C06A087
ENDCHAR
STARTCHAR Nu
ENCODING 925
SWIDTH 619 0
DWIDTH 7 0
BBX 6 8 0 0
BITMAP
2F200E
2F900E
2DC20E
2C590E
2C0C2E
2C05AE
2C00CE
2C004E
ENDCHAR
STARTCHAR Xi
ENCODING 926
SWIDTH 502 0
DWIDTH 6 0
BBX 5 8 0 0
BITMAP
5FFFD0
000000
000000
0FFF80
000000
000000
000000
5FFFE0
ENDCHAR
STARTCHAR Omicron
ENCODING 927
SWIDTH 600 0
DWIDTH 7 0
BBX 6 8 0 0
BITMAP
04CEA1
0D4198
3B002C
5A001E
5A001E
3B002D
1E4198
04DEA1
ENDCHAR
STARTCHAR Pi
ENCODING 928
SWIDTH 620 0
DWIDTH 7 0
BBX 6 8 0 0
BITMAP
2FFFFE
2D001E
2D001E
2D001E
2D001E
2D001E
2D001E
2D001E
ENDCHAR
STARTCHAR Rho
ENCODING 929
SWIDTH 554 0
DWIDTH 6 0
BBX 6 8 0 0
BITMAP
2FFEA1
2C01A7
2C005A
2C01A7
2FFFB1
2C0000
2C0000
2C0000
ENDCHAR
STARTCHAR Sigma
ENCODING 931
SWIDTH 502 0
DWIDTH 6 0
BBX 6 8 0 0
BITMAP
8FFFD0
3D1000
079000
00C500
00C400
079000
3D1000
8FFFF1
ENDCHAR
STARTCHAR Tau
ENCODING 932
SWIDTH 520 0
DWIDTH 6 0
BBX 6 8 0 0
BITMAP
AFFFF6
009500
009500
009500
009500
009500
009500
009500
ENDCHAR
STARTCHAR Upsilon
ENCODING 933
SWIDTH 524 0
DWIDTH 6 0
BBX 6 8 0 0
BITMAP
9700B6
3D02D0
0B4870
04AD10
00D900
009600
009600
009600
ENDCHAR
STARTCHAR Phi
ENCODING 934
SWIDTH 621 0
DWIDTH 7 0
BBX 7 8 0 0
BITMAP
001E0000
07EFD500
3D3E3D20
871E0950
771E0960
3D3E3D20
07EFD500
001E0000
ENDCHAR
STARTCHAR Chi
ENCODING 935
SWIDTH 550 0
DWIDTH 6 0
BBX 6 8 0 0
BITMAP
5C00B6
0C43D0
05CA60
00CD00
00CD00
05BA60
0D43D0
6C00A7
ENDCHAR
STARTCHAR Psi
ENCODING 936
SWIDTH 600 0
DWIDTH 7 0
BBX 7 8 0 0
BITMAP
874B0E10
874B0E10
874B0E10
784B0F00
3D6B8B00
06EFB200
004B0000
004B0000
ENDCHAR
STARTCHAR Omega.dup2
ENCODING 937
SWIDTH 581 0
DWIDTH 6 0
BBX 6 8 0 0
BITMAP
04DE70
1E42D4
5B0079
69005A
59005A
2B0077
0A20B1
5FD9FA
ENDCHAR
STARTCHAR Iotadieresis
ENCODING 938
SWIDTH 250 0
DWIDTH 3 0
BBX 5 11 -1 0
BITMAP
010100
4A0D10
000000
02D000
02D000
02D000
02D000
02D000
02D000
02D000
02D000
ENDCHAR
STARTCHAR Upsilondieresis
ENCODING 939
SWIDTH 524 0
DWIDTH 6 0
BBX 6 11 0 0
BITMAP
010000
0A3680
000000
9700B6
3D02D0
0B4870
04AD10
00D900
009600
009600
009600
ENDCHAR
STARTCHAR alphatonos
ENCODING 940
SWIDTH 494 0
DWIDTH 5 0
BBX 6 9 0 0
BITMAP
004900
004500
000000
09EAA0
3D18A0
6804A0
6804A0
4C18B0
09E8D3
ENDCHAR
STARTCHAR epsilontonos
ENCODING 941
SWIDTH 470 0
DWIDTH 5 0
BBX 5 9 0 0
BITMAP
009400
008000
000000
1CFC30
4B1330
0CF700
5B1000
6B1770
1AEC20
ENDCHAR
STARTCHAR etatonos
ENCODING 942
SWIDTH 498 0
DWIDTH 5 0
BBX 5 11 0 -2
BITMAP
007600
007100
000000
4BDE30
4D2790
4A04B0
4A04B0
4A04B0
4A04B0
0004B0
0004B0
ENDCHAR
STARTCHAR iotatonos
ENCODING 943
SWIDTH 299 0
DWIDTH 3 0
BBX 2 9 1 0
BITMAP
A3
90
00
E0
E0
E0
E0
E1
AC
ENDCHAR
STARTCHAR upsilondieresistonos
ENCODING 944
SWIDTH 480 0
DWIDTH 5 0
BBX 5 9 0 0
BITMAP
019300
3A0850
000000
4A0960
4A0590
4A03B0
4B04A0
2D1B70
09EA10
ENDCHAR
STARTCHAR alpha
ENCODING 945
SWIDTH 494 0
DWIDTH 5 0
BBX 6 6 0 0
BITMAP
09EAA0
3D18A0
6804A0
6804A0
4C18B0
09E8D3
ENDCHAR
STARTCHAR beta
ENCODING 946
SWIDTH 517 0
DWIDTH 6 0
BBX 6 10 0 -2
BITMAP
05ED30
1E25B0
3B05A0
3B8F40
3B03D0
3B00D1
3D13E0
3EDE50
3B0000
3B0000
ENDCHAR
STARTCHAR gamma
ENCODING 947
SWIDTH 444 0
DWIDTH 5 0
BBX 5 8 0 -2
BITMAP
860770
3B0C20
0D2D00
09A800
04F400
00F000
00E000
00E000
ENDCHAR
STARTCHAR delta
ENCODING 948
SWIDTH 498 0
DWIDTH 5 0
BBX 5 9 0 0
BITMAP
06ED00
0D3200
09B200
07FE30
3D29B0
6802E0
6801D0
2D17A0
07EC20
ENDCHAR
STARTCHAR epsilon
ENCODING 949
SWIDTH 470 0
DWIDTH 5 0
BBX 5 6 0 0
BITMAP
1CFC30
4B1330
0CF700
5B1000
6B1770
1AEC20
ENDCHAR
STARTCHAR zeta
ENCODING 950
SWIDTH 462 0
DWIDTH 5 0
BBX 5 10 0 -2
BITMAP
5FFF80
000C20
009600
03B000
0A3000
0E0000
0E1000
07E910
001B40
000900
ENDCHAR
STARTCHAR eta
ENCODING 951
SWIDTH 498 0
DWIDTH 5 0
BBX 5 8 0 -2
BITMAP
4BDE30
4D2790
4A04B0
4A04B0
4A04B0
4A04B0
0004B0
0004B0
ENDCHAR
STARTCHAR theta
ENCODING 952
SWIDTH 496 0
DWIDTH 5 0
BBX 5 8 0 0
BITMAP
06EB10
1D1780
4902B0
5FFFC0
5902C0
4A04B0
1E2970
06EB10
ENDCHAR
STARTCHAR iota
ENCODING 953
SWIDTH 299 0
DWIDTH 3 0
BBX 2 6 1 0
BITMAP
E0
E0
E0
E0
E1
AC
ENDCHAR
STARTCHAR kappa
ENCODING 954
SWIDTH 491 0
DWIDTH 5 0
BBX 5 6 0 0
BITMAP
3B0A70
3B7A00
3FF100
3B8800
3B1E30
3B06B0
ENDCHAR
STARTCHAR lambda
ENCODING 955
SWIDTH 485 0
DWIDTH 5 0
BBX 5 8 0 0
BITMAP
2E3000
08A000
02E100
04F500
09AA00
0D1E10
4B0A60
9704E0
ENDCHAR
STARTCHAR uni03BC
ENCODING 956
SWIDTH 498 0
DWIDTH 5 0
BBX 5 8 0 -2
BITMAP
3B04A0
3B04A0
3B04A0
3B04A0
3E17A0
3EEBA0
3B0000
3B0000
ENDCHAR
STARTCHAR nu
ENCODING 957
SWIDTH 427 0
DWIDTH 5 0
BBX 5 6 0 0
BITMAP
950A40
590D00
1C2B00
0B7600
07E200
02D000
ENDCHAR
STARTCHAR xi
ENCODING 958
SWIDTH 431 0
DWIDTH 5 0
BBX 5 10 0 -2
BITMAP
07EE20
2D2100
1D2000
06FC00
3C2000
780000
4C2000
08EB10
000A40
000910
ENDCHAR
STARTCHAR omicron
ENCODING 959
SWIDTH 501 0
DWIDTH 6 0
BBX 5 6 0 0
BITMAP
08EC30
4C16B0
7800E0
7800E0
4C15B0
08EC30
ENDCHAR
STARTCHAR pi
ENCODING 960
SWIDTH 520 0
DWIDTH 6 0
BBX 6 6 0 0
BITMAP
BFFFF4
0E0590
0E0590
0E0590
0E05A0
0E02E6
ENDCHAR
STARTCHAR rho
ENCODING 961
SWIDTH 498 0
DWIDTH 5 0
BBX 5 8 0 -2
BITMAP
06EC20
1E2790
3B01D0
4A01D0
4D17B0
4DDD30
4A0000
4A0000
ENDCHAR
STARTCHAR sigma1
ENCODING 962
SWIDTH 472 0
DWIDTH 5 0
BBX 5 8 0 -2
BITMAP
08EB10
3D1870
680130
680000
3E3000
06DB10
000B40
000900
ENDCHAR
STARTCHAR sigma
ENCODING 963
SWIDTH 498 0
DWIDTH 5 0
BBX 6 6 0 0
BITMAP
07EFF5
3D1760
6801C0
6801E0
2D17A0
07EC20
ENDCHAR
STARTCHAR tau
ENCODING 964
SWIDTH 460 0
DWIDTH 5 0
BBX 5 6 0 0
BITMAP
8FFF90
00E000
00E000
00E000
00E100
00AC00
ENDCHAR
STARTCHAR upsilon
ENCODING 965
SWIDTH 480 0
DWIDTH 5 0
BBX 5 6 0 0
BITMAP
4A0960
4A0590
4A03B0
4B04A0
2D1B70
09EA10
ENDCHAR
STARTCHAR phi
ENCODING 966
SWIDTH 617 0
DWIDTH 7 0
BBX 7 9 0 -3
BITMAP
0A1CE500
5A2D3E10
872C0A40
782C0B40
3E5D5E10
06DFC300
002C0000
002C0000
002C0000
ENDCHAR
STARTCHAR chi
ENCODING 967
SWIDTH 438 0
DWIDTH 5 0
BBX 5 8 0 -2
BITMAP
A90860
1C3D10
06D900
01E300
03F500
09AB00
1D1D20
6905D0
ENDCHAR
STARTCHAR psi
ENCODING 968
SWIDTH 612 0
DWIDTH 7 0
BBX 7 9 0 -3
BITMAP
873C1E00
873C0C20
873C0B40
683C0C30
2E5C6D00
06DFC300
003C0000
003C0000
003C0000
ENDCHAR
STARTCHAR omega
ENCODING 969
SWIDTH 711 0
DWIDTH 8 0
BBX 8 6 0 0
BITMAP
0E1004B0
3B0320E0
590960C2
590960C2
2D1B91D0
08E68D60
ENDCHAR
STARTCHAR iotadieresis
ENCODING 970
SWIDTH 299 0
DWIDTH 3 0
BBX 5 9 -1 0
BITMAP
010100
2C0B30
000000
00E000
00E000
00E000
00E000
00E100
00AC00
ENDCHAR
STARTCHAR upsilondieresis
ENCODING 971
SWIDTH 480 0
DWIDTH 5 0
BBX 5 9 0 0
BITMAP
010100
1D0B30
000000
4A0960
4A0590
4A03B0
4B04A0
2D1B70
09EA10
ENDCHAR
STARTCHAR omicrontonos
ENCODING 972
SWIDTH 501 0
DWIDTH 6 0
BBX 5 9 0 0
BITMAP
007600
007100
000000
08EC30
4C16B0
7800E0
7800E0
4C15B0
08EC30
ENDCHAR
STARTCHAR upsilontonos
ENCODING 973
SWIDTH 480 0
DWIDTH 5 0
BBX 5 9 0 0
BITMAP
009400
008000
000000
4A0960
4A0590
4A03B0
4B04A0
2D1B70
09EA10
ENDCHAR
STARTCHAR omegatonos
ENCODING 974
SWIDTH 711 0
DWIDTH 8 0
BBX 8 9 0 0
BITMAP
00049000
00044000
00000000
0E1004B0
3B0320E0
590960C2
590960C2
2D1B91D0
08E68D60
ENDCHAR
STARTCHAR theta1
ENCODING 977
SWIDTH 507 0
DWIDTH 6 0
BBX 6 8 0 0
BITMAP
01CE30
06A690
0694A0
13E7A0
595DF3
5904A0
3D1880
08EC20
ENDCHAR
STARTCHAR Upsilon1
ENCODING 978
SWIDTH 465 0
DWIDTH 5 0
BBX 6 8 0 0
BITMAP
D503E1
4C0960
0D3E10
07D900
01F300
00E100
00E100
00E100
ENDCHAR
STARTCHAR omega1
ENCODING 982
SWIDTH 678 0
DWIDTH 7 0
BBX 8 6 0 0
BITMAP
8FFFFFF2
2D0005A0
4A0B43C0
4A0B42C0
2D2D86A0
09E5BE30
ENDCHAR
STARTCHAR uni0400
ENCODING 1024
SWIDTH 496 0
DWIDTH 5 0
BBX 6 11 0 0
BITMAP
06B000
00A300
000000
2FFFF0
2C0000
2C0000
2FFF90
2C0000
2C0000
2C0000
2FFFF1
ENDCHAR
STARTCHAR uni0401
ENCODING 1025
SWIDTH 496 0
DWIDTH 5 0
BBX 6 11 0 0
BITMAP
010000
0A3680
000000
2FFFF0
2C0000
2C0000
2FFF90
2C0000
2C0000
2C0000
2FFFF1
ENDCHAR
STARTCHAR uni0402
ENCODING 1026
SWIDTH 650 0
DWIDTH 7 0
BBX 7 8 0 0
BITMAP
BFFFF600
00D20000
00D20000
00DDEB10
00D41980
00D205A0
00D20980
00D28B10
ENDCHAR
STARTCHAR uni0403
ENCODING 1027
SWIDTH 487 0
DWIDTH 5 0
BBX 5 11 0 0
BITMAP
001D40
005800
000000
2FFFE0
2D0000
2D0000
2D0000
2D0000
2D0000
2D0000
2D0000
ENDCHAR
STARTCHAR uni0404
ENCODING 1028
SWIDTH 589 0
DWIDTH 6 0
BBX 6 8 0 0
BITMAP
03CEA0
0D41A7
3B0037
5FFF20
5A0000
3C0037
0D51A7
03CE90
ENDCHAR
STARTCHAR uni0405
ENCODING 1029
SWIDTH 518 0
DWIDTH 6 0
BBX 6 8 0 0
BITMAP
07ED40
3D13E1
4B0062
0BB400
005BA0
4400C3
4C12E2
07EE70
ENDCHAR
STARTCHAR uni0406
ENCODING 1030
SWIDTH 250 0
DWIDTH 3 0
BBX 2 8 0 0
BITMAP
2D
2D
2D
2D
2D
2D
2D
2D
ENDCHAR
STARTCHAR uni0407
ENCODING 1031
SWIDTH 250 0
DWIDTH 3 0
BBX 5 11 -1 0
BITMAP
010100
4A0D10
000000
02D000
02D000
02D000
02D000
02D000
02D000
02D000
02D000
ENDCHAR
STARTCHAR uni0408
ENCODING 1032
SWIDTH 483 0
DWIDTH 5 0
BBX 5 8 0 0
BITMAP
000780
000780
000780
000780
000780
310780
881B50
2CEA00
ENDCHAR
STARTCHAR uni0409
ENCODING 1033
SWIDTH 923 0
DWIDTH 10 0
BBX 10 8 0 0
BITMAP
04FFFD0000
05A01D0000
05A01D0000
06901FFFB1
06801D0098
08701D005A
1C401D0098
AA001FFFB1
ENDCHAR
STARTCHAR uni040A
ENCODING 1034
SWIDTH 927 0
DWIDTH 10 0
BBX 10 8 0 0
BITMAP
2D001E0000
2D001E0000
2D001E0000
2FFFFFFFB1
2D001E0098
2D001E004A
2D001E0098
2D001FFFB1
ENDCHAR
STARTCHAR uni040B
ENCODING 1035
SWIDTH 705 0
DWIDTH 8 0
BBX 7 8 0 0
BITMAP
9FFFF800
00C30000
00C30000
00CDEC30
00C416B0
00C302D0
00C302D0
00C302D0
ENDCHAR
STARTCHAR uni040C
ENCODING 1036
SWIDTH 544 0
DWIDTH 6 0
BBX 6 11 0 0
BITMAP
001D30
006700
000000
2C00B6
2C07A0
2C3D10
2DD600
2FAC00
2D0B60
2C02E1
2C008A
ENDCHAR
STARTCHAR uni040D
ENCODING 1037
SWIDTH 619 0
DWIDTH 7 0
BBX 6 11 0 0
BITMAP
01D400
003A00
000000
2D005E
2D00CE
2D05AE
2D0C3E
2D591E
2DC21E
2F901E
2F201E
ENDCHAR
STARTCHAR uni040E
ENCODING 1038
SWIDTH 547 0
DWIDTH 6 0
BBX 6 11 0 0
BITMAP
086580
02DD20
000000
5B00A7
0E20E2
0974C0
03C970
00CE20
007B00
00A600
0AB100
ENDCHAR
STARTCHAR uni040F
ENCODING 1039
SWIDTH 621 0
DWIDTH 7 0
BBX 6 10 0 -2
BITMAP
2D001E
2D001E
2D001E
2D001E
2D001E
2D001E
2D001E
2FFFFE
001E00
001E00
ENDCHAR
STARTCHAR uni0410
ENCODING 1040
SWIDTH 576 0
DWIDTH 6 0
BBX 6 8 0 0
BITMAP
006B00
00BD10
01C860
0583B0
0A40D1
0EFFF5
4A005A
96001E
ENDCHAR
STARTCHAR uni0411
ENCODING 1041
SWIDTH 549 0
DWIDTH 6 0
BBX 6 8 0 0
BITMAP
3FFFD0
3C0000
3C0000
3FFEA1
3C01A7
3C0069
3C01B6
3FFEA1
ENDCHAR
STARTCHAR uni0412
ENCODING 1042
SWIDTH 545 0
DWIDTH 6 0
BBX 6 8 0 0
BITMAP
2FFE80
2C01D2
2C02D1
2FFF80
2C01D3
2C00A5
2C01D3
2FFE80
ENDCHAR
STARTCHAR uni0413
ENCODING 1043
SWIDTH 487 0
DWIDTH 5 0
BBX 5 8 0 0
BITMAP
2FFFE0
2D0000
2D0000
2D0000
2D0000
2D0000
2D0000
2D0000
ENDCHAR
STARTCHAR uni0414
ENCODING 1044
SWIDTH 660 0
DWIDTH 7 0
BBX 7 10 0 -2
BITMAP
01FFFF00
02D00F00
03C00F00
04C00F00
06A00F00
08700F00
0D200F00
BFFFFFE0
B40001D0
B40001D0
ENDCHAR
STARTCHAR uni0415
ENCODING 1045
SWIDTH 496 0
DWIDTH 5 0
BBX 6 8 0 0
BITMAP
2FFFF0
2C0000
2C0000
2FFF90
2C0000
2C0000
2C0000
2FFFF1
ENDCHAR
STARTCHAR uni0416
ENCODING 1046
SWIDTH 791 0
DWIDTH 9 0
BBX 9 8 0 0
BITMAP
4C01E01E20
0A61E09700
02D2E2C000
00BFFF8000
02E2E3D000
0981E0B600
1E21E05D00
8A01E00D50
ENDCHAR
STARTCHAR uni0417
ENCODING 1047
SWIDTH 517 0
DWIDTH 6 0
BBX 6 8 0 0
BITMAP
09ED60
5C13E1
1102D1
00DF60
0003E1
2200C3
6B14E1
09ED50
ENDCHAR
STARTCHAR uni0418
ENCODING 1048
SWIDTH 619 0
DWIDTH 7 0
BBX 6 8 0 0
BITMAP
2D005E
2D00CE
2D05AE
2D0C3E
2D591E
2DC21E
2F901E
2F201E
ENDCHAR
STARTCHAR uni0419
ENCODING 1049
SWIDTH 619 0
DWIDTH 7 0
BBX 6 11 0 0
BITMAP
02C1D0
009E70
000000
2D005E
2D00CE
2D05AE
2D0C3E
2D591E
2DC21E
2F901E
2F201E
ENDCHAR
STARTCHAR uni041A
ENCODING 1050
SWIDTH 560 0
DWIDTH 6 0
BBX 6 8 0 0
BITMAP
2D00A8
2D06C0
2D3E20
2FF900
2D2E20
2D08A0
2D01E3
2D006C
ENDCHAR
STARTCHAR uni041B
ENCODING 1051
SWIDTH 615 0
DWIDTH 7 0
BBX 6 8 0 0
BITMAP
04FFFD
04A02D
05A02D
05902D
06802D
08702D
1C402D
AA002D
ENDCHAR
STARTCHAR uni041C
ENCODING 1052
SWIDTH 755 0
DWIDTH 8 0
BBX 8 8 0 0
BITMAP
2F4000E7
2F9004F7
2CD009C7
2CB30D87
2C683A87
2C1C8587
2C0BD187
2C06A087
ENDCHAR
STARTCHAR uni041D
ENCODING 1053
SWIDTH 620 0
DWIDTH 7 0
BBX 6 8 0 0
BITMAP
2C000F
2C000F
2C000F
2FFFFF
2C000F
2C000F
2C000F
2C000F
ENDCHAR
STARTCHAR uni041E
ENCODING 1054
SWIDTH 600 0
DWIDTH 7 0
BBX 6 8 0 0
BITMAP
04CEA1
0D4198
3B002C
5A001E
5A001E
3B002D
1E4198
04DEA1
ENDCHAR
STARTCHAR uni041F
ENCODING 1055
SWIDTH 620 0
DWIDTH 7 0
BBX 6 8 0 0
BITMAP
2FFFFE
2D001E
2D001E
2D001E
2D001E
2D001E
2D001E
2D001E
ENDCHAR
STARTCHAR uni0420
ENCODING 1056
SWIDTH 554 0
DWIDTH 6 0
BBX 6 8 0 0
BITMAP
2FFEA1
2C01A7
2C005A
2C01A7
2FFFB1
2C0000
2C0000
2C0000
ENDCHAR
STARTCHAR uni0421
ENCODING 1057
SWIDTH 566 0
DWIDTH 6 0
BBX 6 8 0 0
BITMAP
03CEA0
0D41A7
3B0048
5A0000
5A0000
3B0048
0D41A7
04DEA0
ENDCHAR
STARTCHAR uni0422
ENCODING 1058
SWIDTH 520 0
DWIDTH 6 0
BBX 6 8 0 0
BITMAP
AFFFF6
009500
009500
009500
009500
009500
009500
009500
ENDCHAR
STARTCHAR uni0423
ENCODING 1059
SWIDTH 547 0
DWIDTH 6 0
BBX 6 8 0 0
BITMAP
5B00A7
0E20E2
0974C0
03C970
00CE20
007B00
00A600
0AB100
ENDCHAR
STARTCHAR uni0424
ENCODING 1060
SWIDTH 676 0
DWIDTH 7 0
BBX 7 8 0 0
BITMAP
000B4000
05DFFA10
2D3B48A0
780B40E0
780B40E0
2D3B4890
05DFFA10
000B4000
ENDCHAR
STARTCHAR uni0425
ENCODING 1061
SWIDTH 550 0
DWIDTH 6 0
BBX 6 8 0 0
BITMAP
5C00B6
0C43D0
05CA60
00CD00
00CD00
05BA60
0D43D0
6C00A7
ENDCHAR
STARTCHAR uni0426
ENCODING 1062
SWIDTH 639 0
DWIDTH 7 0
BBX 7 10 0 -2
BITMAP
2D001E00
2D001E00
2D001E00
2D001E00
2D001E00
2D001E00
2D001E00
2FFFFF90
00000590
00000580
ENDCHAR
STARTCHAR uni0427
ENCODING 1063
SWIDTH 600 0
DWIDTH 7 0
BBX 6 8 0 0
BITMAP
4B004B
4B004B
4B004B
2E216B
07EEDB
00004B
00004B
00004B
ENDCHAR
STARTCHAR uni0428
ENCODING 1064
SWIDTH 814 0
DWIDTH 9 0
BBX 9 8 0 0
BITMAP
2D00F00E10
2D00F00E10
2D00F00E10
2D00F00E10
2D00F00E10
2D00F00E10
2D00F00E10
2FFFFFFF10
ENDCHAR
STARTCHAR uni0429
ENCODING 1065
SWIDTH 841 0
DWIDTH 9 0
BBX 9 10 0 -2
BITMAP
2D00F00E10
2D00F00E10
2D00F00E10
2D00F00E10
2D00F00E10
2D00F00E10
2D00F00E10
2FFFFFFFB0
00000003B0
00000003A0
ENDCHAR
STARTCHAR uni042A
ENCODING 1066
SWIDTH 651 0
DWIDTH 7 0
BBX 7 8 0 0
BITMAP
CFE00000
01E00000
01E00000
01FFFB10
01E00980
01E004B0
01E00980
01FFFB10
ENDCHAR
STARTCHAR uni042B
ENCODING 1067
SWIDTH 755 0
DWIDTH 8 0
BBX 8 8 0 0
BITMAP
2D000096
2D000096
2D000096
2FFFB196
2D009896
2D005A96
2D00A896
2FFFB196
ENDCHAR
STARTCHAR uni042C
ENCODING 1068
SWIDTH 551 0
DWIDTH 6 0
BBX 6 8 0 0
BITMAP
3C0000
3C0000
3C0000
3FFEA1
3C01A7
3C0069
3C01B6
3FFEA1
ENDCHAR
STARTCHAR uni042D
ENCODING 1069
SWIDTH 589 0
DWIDTH 6 0
BBX 6 8 0 0
BITMAP
04DE80
0E41A6
18002B
009FFD
00002D
17004C
0D41B7
04DE90
ENDCHAR
STARTCHAR uni042E
ENCODING 1070
SWIDTH 765 0
DWIDTH 8 0
BBX 8 8 0 0
BITMAP
2D05DEB1
2D1E518A
2D3D001E
2FFB000F
2D3B000F
2D1D001E
2D0C518A
2D02CEB1
ENDCHAR
STARTCHAR uni042F
ENCODING 1071
SWIDTH 562 0
DWIDTH 6 0
BBX 6 8 0 0
BITMAP
06EFF4
1E30B4
3C00B4
1E30B4
05FFF4
05A0B4
0C30B4
4C00B4
ENDCHAR
STARTCHAR uni0430
ENCODING 1072
SWIDTH 479 0
DWIDTH 5 0
BBX 5 6 0 0
BITMAP
0AEC20
251870
09EF80
4C1780
5B1A80
1CEB90
ENDCHAR
STARTCHAR uni0431
ENCODING 1073
SWIDTH 484 0
DWIDTH 5 0
BBX 5 8 0 0
BITMAP
001870
05D910
1C1000
5BED30
6C15B0
6801D0
3C16B0
08EC20
ENDCHAR
STARTCHAR uni0432
ENCODING 1074
SWIDTH 503 0
DWIDTH 6 0
BBX 5 6 0 0
BITMAP
3FFE50
3B05B0
3FFF50
3B03D0
3B03D0
3FFE60
ENDCHAR
STARTCHAR uni0433
ENCODING 1075
SWIDTH 371 0
DWIDTH 4 0
BBX 4 6 0 0
BITMAP
3FFE
3B00
3B00
3B00
3B00
3B00
ENDCHAR
STARTCHAR uni0434
ENCODING 1076
SWIDTH 536 0
DWIDTH 6 0
BBX 6 8 0 -2
BITMAP
06FFD0
0772D0
0772D0
0A42D0
1D12D0
AFFFF8
A40078
A40078
ENDCHAR
STARTCHAR uni0435
ENCODING 1077
SWIDTH 468 0
DWIDTH 5 0
BBX 5 6 0 0
BITMAP
09EC20
4A1690
7FFFB0
780000
4C1220
09ED40
ENDCHAR
STARTCHAR uni0436
ENCODING 1078
SWIDTH 662 0
DWIDTH 7 0
BBX 7 6 0 0
BITMAP
5B0D2890
0B5D3D10
04FFF800
096D4D00
2E1D2B50
890D25C0
ENDCHAR
STARTCHAR uni0437
ENCODING 1079
SWIDTH 446 0
DWIDTH 5 0
BBX 5 6 0 0
BITMAP
1BEB10
481D30
05FC00
001B40
581B40
1BEA00
ENDCHAR
STARTCHAR uni0438
ENCODING 1080
SWIDTH 509 0
DWIDTH 6 0
BBX 5 6 0 0
BITMAP
3B06C0
3B0CC0
3B59C0
3BB3C0
3F72C0
3E12C0
ENDCHAR
STARTCHAR uni0439
ENCODING 1081
SWIDTH 509 0
DWIDTH 6 0
BBX 5 9 0 0
BITMAP
0B3950
04EC10
000000
3B06C0
3B0CC0
3B59C0
3BB3C0
3F72C0
3E12C0
ENDCHAR
STARTCHAR uni043A
ENCODING 1082
SWIDTH 479 0
DWIDTH 5 0
BBX 5 6 0 0
BITMAP
3B0980
3B6A00
3FF300
3B7A00
3B0D30
3B06C0
ENDCHAR
STARTCHAR uni043B
ENCODING 1083
SWIDTH 509 0
DWIDTH 6 0
BBX 5 6 0 0
BITMAP
09FFC0
0A52C0
0A42C0
0B32C0
1E12C0
A802C0
ENDCHAR
STARTCHAR uni043C
ENCODING 1084
SWIDTH 645 0
DWIDTH 7 0
BBX 7 6 0 0
BITMAP
3F301F40
3F806F40
3CC0BC40
3BA4BA40
3B4D6A40
3B0E1A40
ENDCHAR
STARTCHAR uni043D
ENCODING 1085
SWIDTH 508 0
DWIDTH 6 0
BBX 5 6 0 0
BITMAP
3B02C0
3B02C0
3FFFC0
3B02C0
3B02C0
3B02C0
ENDCHAR
STARTCHAR uni043E
ENCODING 1086
SWIDTH 501 0
DWIDTH 6 0
BBX 5 6 0 0
BITMAP
08EC30
4C16B0
7800E0
7800E0
4C15B0
08EC30
ENDCHAR
STARTCHAR uni043F
ENCODING 1087
SWIDTH 509 0
DWIDTH 6 0
BBX 5 6 0 0
BITMAP
3FFFC0
3B02C0
3B02C0
3B02C0
3B02C0
3B02C0
ENDCHAR
STARTCHAR uni0440
ENCODING 1088
SWIDTH 493 0
DWIDTH 5 0
BBX 5 8 0 -2
BITMAP
4CDD40
4C16B0
4A01D0
4A01D0
4C16B0
4CDD30
4A0000
4A0000
ENDCHAR
STARTCHAR uni0441
ENCODING 1089
SWIDTH 461 0
DWIDTH 5 0
BBX 5 6 0 0
BITMAP
09EC10
4B1780
770130
770010
4B1780
09EB10
ENDCHAR
STARTCHAR uni0442
ENCODING 1090
SWIDTH 424 0
DWIDTH 5 0
BBX 5 6 0 0
BITMAP
BFFF60
02C000
02C000
02C000
02C000
02C000
ENDCHAR
STARTCHAR uni0443
ENCODING 1091
SWIDTH 416 0
DWIDTH 5 0
BBX 5 8 0 -2
BITMAP
A50C30
591D00
1D4900
0BA500
06F100
03B000
087000
8C1000
ENDCHAR
STARTCHAR uni0444
ENCODING 1092
SWIDTH 628 0
DWIDTH 7 0
BBX 7 10 0 -2
BITMAP
001D0000
001D0000
0AEFE800
4C2D1D20
681D0950
681D0950
4C2D1D30
0AEFE900
001D0000
001D0000
ENDCHAR
STARTCHAR uni0445
ENCODING 1093
SWIDTH 438 0
DWIDTH 5 0
BBX 5 6 0 0
BITMAP
690D30
0D6A00
05F200
06F300
0D5B00
790C40
ENDCHAR
STARTCHAR uni0446
ENCODING 1094
SWIDTH 524 0
DWIDTH 6 0
BBX 6 8 0 -2
BITMAP
3B02C0
3B02C0
3B02C0
3B02C0
3B02C0
3FFFF6
000085
000085
ENDCHAR
STARTCHAR uni0447
ENCODING 1095
SWIDTH 479 0
DWIDTH 5 0
BBX 5 6 0 0
BITMAP
780770
780770
5B1870
0BEE70
000770
000770
ENDCHAR
STARTCHAR uni0448
ENCODING 1096
SWIDTH 703 0
DWIDTH 8 0
BBX 7 6 0 0
BITMAP
3B0950E0
3B0950E0
3B0950E0
3B0950E0
3B0950E0
3FFFFFE0
ENDCHAR
STARTCHAR uni0449
ENCODING 1097
SWIDTH 722 0
DWIDTH 8 0
BBX 8 8 0 -2
BITMAP
4A0A41D0
4A0A41D0
4A0A41D0
4A0A41D0
4A0A41D0
4FFFFFF9
00000058
00000058
ENDCHAR
STARTCHAR uni044A
ENCODING 1098
SWIDTH 538 0
DWIDTH 6 0
BBX 6 6 0 0
BITMAP
CF9000
059000
05FFC2
059088
059088
05FFC2
ENDCHAR
STARTCHAR uni044B
ENCODING 1099
SWIDTH 679 0
DWIDTH 7 0
BBX 7 6 0 0
BITMAP
3B000680
3B000680
3FFD3680
3B06A680
3B06A680
3FFD3680
ENDCHAR
STARTCHAR uni044C
ENCODING 1100
SWIDTH 478 0
DWIDTH 5 0
BBX 5 6 0 0
BITMAP
3B0000
3B0000
3FFD30
3B06A0
3B06A0
3FFD30
ENDCHAR
STARTCHAR uni044D
ENCODING 1101
SWIDTH 472 0
DWIDTH 5 0
BBX 5 6 0 0
BITMAP
1BE900
351A50
01FF80
110690
5A1C50
0AEA00
ENDCHAR
STARTCHAR uni044E
ENCODING 1102
SWIDTH 706 0
DWIDTH 8 0
BBX 8 6 0 0
BITMAP
3B05EE50
3B1F43E1
3FFC00B4
3B2C00B4
3B0C43E1
3B03DE50
ENDCHAR
STARTCHAR uni044F
ENCODING 1103
SWIDTH 482 0
DWIDTH 5 0
BBX 5 6 0 0
BITMAP
1BFF80
6A0780
5A0780
1CFF80
0D2780
780780
ENDCHAR
STARTCHAR uni0450
ENCODING 1104
SWIDTH 468 0
DWIDTH 5 0
BBX 5 9 0 0
BITMAP
0A8000
01C100
000000
09EC20
4A1690
7FFFB0
780000
4C1220
09ED40
ENDCHAR
STARTCHAR uni0451
ENCODING 1105
SWIDTH 468 0
DWIDTH 5 0
BBX 5 9 0 0
BITMAP
010100
0D0A40
000000
09EC20
4A1690
7FFFB0
780000
4C1220
09ED40
ENDCHAR
STARTCHAR uni0452
ENCODING 1106
SWIDTH 482 0
DWIDTH 5 0
BBX 5 11 0 -2
BITMAP
4A0000
FFE000
4A0000
4CDD30
4D2880
4A0590
4A0590
4A0590
4A0590
000790
005E30
ENDCHAR
STARTCHAR uni0453
ENCODING 1107
SWIDTH 371 0
DWIDTH 4 0
BBX 4 9 0 0
BITMAP
00C6
04A0
0000
3FFE
3B00
3B00
3B00
3B00
3B00
ENDCHAR
STARTCHAR uni0454
ENCODING 1108
SWIDTH 472 0
DWIDTH 5 0
BBX 5 6 0 0
BITMAP
07EC20
3B1690
6FF310
690000
3D1690
07EC20
ENDCHAR
STARTCHAR uni0455
ENCODING 1109
SWIDTH 455 0
DWIDTH 5 0
BBX 5 6 0 0
BITMAP
0AEB10
4C1840
1DA300
016E40
591A60
1BEC10
ENDCHAR
STARTCHAR uni0456
ENCODING 1110
SWIDTH 229 0
DWIDTH 3 0
BBX 2 9 0 0
BITMAP
01
3A
00
3B
3B
3B
3B
3B
3B
ENDCHAR
STARTCHAR uni0457
ENCODING 1111
SWIDTH 234 0
DWIDTH 3 0
BBX 4 9 -1 0
BITMAP
0101
591D
0000
03B0
03B0
03B0
03B0
03B0
03B0
ENDCHAR
STARTCHAR uni0458
ENCODING 1112
SWIDTH 223 0
DWIDTH 2 0
BBX 3 11 -1 -2
BITMAP
0010
0490
0000
04A0
04A0
04A0
04A0
04A0
04A0
05A0
2E50
ENDCHAR
STARTCHAR uni0459
ENCODING 1113
SWIDTH 729 0
DWIDTH 8 0
BBX 8 6 0 0
BITMAP
09FF9000
0A459000
0A35FFC2
0B259088
1E159088
A805FFC2
ENDCHAR
STARTCHAR uni045A
ENCODING 1114
SWIDTH 743 0
DWIDTH 8 0
BBX 8 6 0 0
BITMAP
3B02C000
3B02C000
3FFFFFD3
3B02C05B
3B02C05B
3B02FFD4
ENDCHAR
STARTCHAR uni045B
ENCODING 1115
SWIDTH 499 0
DWIDTH 5 0
BBX 5 9 0 0
BITMAP
4A0000
DFF000
4A0000
4CDD30
4D2880
4A0590
4A0590
4A0590
4A0590
ENDCHAR
STARTCHAR uni045C
ENCODING 1116
SWIDTH 479 0
DWIDTH 5 0
BBX 5 9 0 0
BITMAP
005D10
00A300
000000
3B0980
3B6A00
3FF300
3B7A00
3B0D30
3B06C0
ENDCHAR
STARTCHAR uni045D
ENCODING 1117
SWIDTH 509 0
DWIDTH 6 0
BBX 5 9 0 0
BITMAP
08A000
00B200
000000
3B06C0
3B0CC0
3B59C0
3BB3C0
3F72C0
3E12C0
ENDCHAR
STARTCHAR uni045E
ENCODING 1118
SWIDTH 416 0
DWIDTH 5 0
BBX 5 11 0 -2
BITMAP
2B1D00
09E600
000000
A50C30
591D00
1D4900
0BA500
06F100
03B000
087000
8C1000
ENDCHAR
STARTCHAR uni045F
ENCODING 1119
SWIDTH 509 0
DWIDTH 6 0
BBX 5 8 0 -2
BITMAP
3B02C0
3B02C0
3B02C0
3B02C0
3B02C0
3FFFC0
00A400
00A400
ENDCHAR
STARTCHAR uni0460
ENCODING 1120
SWIDTH 754 0
DWIDTH 8 0
BBX 8 8 0 0
BITMAP
3C05A069
3C05A069
3C05A069
3C05A069
3C05A069
3C05A069
2E19D1A7
08EB7EB1
ENDCHAR
STARTCHAR uni0461
ENCODING 1121
SWIDTH 650 0
DWIDTH 7 0
BBX 7 6 0 0
BITMAP
590D1680
590D1680
590D1680
590D1680
4B2F4970
0BE8EC20
ENDCHAR
STARTCHAR uni0462
ENCODING 1122
SWIDTH 551 0
DWIDTH 6 0
BBX 7 8 -1 0
BITMAP
03C00000
2FFB0000
03C00000
03FFEA10
03C01A70
03C00690
03C01B60
03FFEA10
ENDCHAR
STARTCHAR uni0463
ENCODING 1123
SWIDTH 477 0
DWIDTH 5 0
BBX 6 9 -1 0
BITMAP
03B000
03B000
1FFF30
03B000
03B000
03FFD3
03B06A
03B06A
03FFD3
ENDCHAR
STARTCHAR uni0464
ENCODING 1124
SWIDTH 772 0
DWIDTH 9 0
BBX 8 8 0 0
BITMAP
2D04CEA1
2D1E4197
2D4B0027
2FFFFF20
2D5A0000
2D2C0026
2D0C51A7
2D02CEA1
ENDCHAR
STARTCHAR uni0465
ENCODING 1125
SWIDTH 646 0
DWIDTH 7 0
BBX 7 6 0 0
BITMAP
3B0AEB10
3B6A1880
3FFFF610
3B680000
3B3C1780
3B08EB10
ENDCHAR
STARTCHAR uni0466
ENCODING 1126
SWIDTH 526 0
DWIDTH 6 0
BBX 6 8 0 0
BITMAP
008A00
00CE00
01DB30
069780
0A54C0
0EFFF1
4C78A6
87786A
ENDCHAR
STARTCHAR uni0467
ENCODING 1127
SWIDTH 470 0
DWIDTH 5 0
BBX 5 6 0 0
BITMAP
01F200
06E700
0A8C00
1E1E20
5FFF70
A6E5C0
ENDCHAR
STARTCHAR uni0468
ENCODING 1128
SWIDTH 759 0
DWIDTH 8 0
BBX 8 8 1 0
BITMAP
E002F100
E006F500
E00A9900
E00D2D00
E03B0D30
FFFFFF70
E0C4D5C0
E2D1D0E1
ENDCHAR
STARTCHAR uni0469
ENCODING 1129
SWIDTH 654 0
DWIDTH 7 0
BBX 7 6 0 0
BITMAP
1D00E200
1D04E700
1D098C00
1D0D1E20
1FFFFF70
1D86E5C0
ENDCHAR
STARTCHAR uni046A
ENCODING 1130
SWIDTH 747 0
DWIDTH 8 0
BBX 8 8 0 0
BITMAP
06FFFFB0
01E20C40
00884C00
001EB600
08EFFFB1
2E2591B6
4B059087
4B059087
ENDCHAR
STARTCHAR uni046B
ENCODING 1131
SWIDTH 645 0
DWIDTH 7 0
BBX 7 6 0 0
BITMAP
06FFF800
01D1D200
008AB000
09EFFA00
2D1E1C30
3B0E1950
ENDCHAR
STARTCHAR uni046C
ENCODING 1132
SWIDTH 980 0
DWIDTH 11 0
BBX 11 8 0 0
BITMAP
2D00CFFFF400
2D006A04C000
2D000E2A6000
2D0008AD0000
2FFFFFFFE600
2D0891C44E00
2D0A50C30E10
2D0A50C30E10
ENDCHAR
STARTCHAR uni046D
ENCODING 1133
SWIDTH 856 0
DWIDTH 9 0
BBX 9 6 0 0
BITMAP
3B02FFFD00
3B00A58700
3B003BD100
3FFFFFFC20
3B0C496880
3B0E1954A0
ENDCHAR
STARTCHAR uni046E
ENCODING 1134
SWIDTH 454 0
DWIDTH 5 0
BBX 5 13 0 -2
BITMAP
0A4A00
02E200
000000
5FE700
002D10
002D10
0BF600
002D10
000B40
002E20
4EE600
860000
2A0000
ENDCHAR
STARTCHAR uni046F
ENCODING 1135
SWIDTH 423 0
DWIDTH 5 0
BBX 5 11 0 -2
BITMAP
1B6600
06B000
000000
5FE700
003E00
0BF700
002D00
002E10
4EE700
870000
2A0000
ENDCHAR
STARTCHAR uni0470
ENCODING 1136
SWIDTH 600 0
DWIDTH 7 0
BBX 7 8 0 0
BITMAP
874B0E10
874B0E10
874B0E10
784B0F00
3D6B8B00
06EFB200
004B0000
004B0000
ENDCHAR
STARTCHAR uni0471
ENCODING 1137
SWIDTH 612 0
DWIDTH 7 0
BBX 7 9 0 -3
BITMAP
873C1E00
873C0C20
873C0B40
683C0C30
2E5C6D00
06DFC300
003C0000
003C0000
003C0000
ENDCHAR
STARTCHAR uni0472
ENCODING 1138
SWIDTH 593 0
DWIDTH 7 0
BBX 6 8 0 0
BITMAP
04DE80
1D31A6
59002B
6FFFFD
79002D
5B005B
1E51C6
04DE90
ENDCHAR
STARTCHAR uni0473
ENCODING 1139
SWIDTH 497 0
DWIDTH 5 0
BBX 5 6 0 0
BITMAP
07EC20
3B14B0
6FFFE0
6801E0
3D27B0
07EC20
ENDCHAR
STARTCHAR uni0474
ENCODING 1140
SWIDTH 553 0
DWIDTH 6 0
BBX 6 8 0 0
BITMAP
A6005B
6A00C3
1D01D0
0C2590
086850
03AC10
00DC00
00A800
ENDCHAR
STARTCHAR uni0475
ENCODING 1141
SWIDTH 443 0
DWIDTH 5 0
BBX 5 6 0 0
BITMAP
8607B0
4A0E20
0D2C00
0A7700
06E300
02D000
ENDCHAR
STARTCHAR uni0476
ENCODING 1142
SWIDTH 553 0
DWIDTH 6 0
BBX 6 11 0 0
BITMAP
2DA600
079B00
000000
A6005B
6A00C3
1D01D0
0C2590
086850
03AC10
00DC00
00A800
ENDCHAR
STARTCHAR uni0477
ENCODING 1143
SWIDTH 443 0
DWIDTH 5 0
BBX 5 9 0 0
BITMAP
99D000
1C9400
000000
8607B0
4A0E20
0D2C00
0A7700
06E300
02D000
ENDCHAR
STARTCHAR uni0478
ENCODING 1144
SWIDTH 1017 0
DWIDTH 11 0
BBX 11 10 0 -2
BITMAP
04CEA1000000
0D4198000000
3B002C1E02C0
5A001E0B3680
5A001E077A40
3B002D02BD00
1E419800CA00
04DEA1009600
00000001C100
0000000D8000
ENDCHAR
STARTCHAR uni0479
ENCODING 1145
SWIDTH 918 0
DWIDTH 10 0
BBX 10 8 0 -2
BITMAP
08EC32D04B
4C16B0D287
7800E086C2
7800E03AD0
4C15B00E80
08EC300A40
0000002D00
000000E600
ENDCHAR
STARTCHAR uni047A
ENCODING 1146
SWIDTH 593 0
DWIDTH 7 0
BBX 6 10 0 -1
BITMAP
002700
04DF90
0D56A6
4A003B
68001D
68001D
5A003B
1E56A6
04DF90
002800
ENDCHAR
STARTCHAR uni047B
ENCODING 1147
SWIDTH 498 0
DWIDTH 5 0
BBX 5 8 0 -1
BITMAP
007200
08FD20
3C67B0
7801E0
7800E0
3C67B0
08FD20
006200
ENDCHAR
STARTCHAR uni047C
ENCODING 1148
SWIDTH 752 0
DWIDTH 8 0
BBX 8 11 0 0
BITMAP
001DA200
00476D20
0001B000
079364B1
1E1000A6
3C000078
3C036078
3C05A078
3C05A078
1E19D1A6
07EA7EB1
ENDCHAR
STARTCHAR uni047D
ENCODING 1149
SWIDTH 654 0
DWIDTH 7 0
BBX 7 9 0 0
BITMAP
006E6000
00A2AB00
00075000
0B482D20
4B000870
59040690
590D1690
4B2F5870
0BE8DD20
ENDCHAR
STARTCHAR uni047E
ENCODING 1150
SWIDTH 754 0
DWIDTH 8 0
BBX 8 11 0 0
BITMAP
00AFFF10
00049000
00000000
3C05A069
3C05A069
3C05A069
3C05A069
3C05A069
3C05A069
2E19D1A7
08EB7EB1
ENDCHAR
STARTCHAR uni047F
ENCODING 1151
SWIDTH 650 0
DWIDTH 7 0
BBX 7 9 0 0
BITMAP
04FFF800
000C0000
00000000
590D1680
590D1680
590D1680
590D1680
4B2F4970
0BE8EC20
ENDCHAR
STARTCHAR uni0480
ENCODING 1152
SWIDTH 570 0
DWIDTH 6 0
BBX 6 10 0 -2
BITMAP
04DE90
1E41B5
4B0045
690000
690000
4B0000
1E4000
04DB00
004B00
004B00
ENDCHAR
STARTCHAR uni0481
ENCODING 1153
SWIDTH 472 0
DWIDTH 5 0
BBX 5 8 0 -2
BITMAP
08EB10
3D1870
680010
680000
3D1000
08F300
00B300
00B300
ENDCHAR
STARTCHAR uni0482
ENCODING 1154
SWIDTH 547 0
DWIDTH 6 0
BBX 6 7 0 0
BITMAP
0000B0
00B960
001E91
236642
1AE100
06AB00
0B1100
ENDCHAR
STARTCHAR uni0483
ENCODING 1155
SWIDTH 0 0
DWIDTH 0 0
BBX 5 3 -5 6
BITMAP
000610
2FFF30
270000
ENDCHAR
STARTCHAR uni0484
ENCODING 1156
SWIDTH 0 0
DWIDTH 0 0
BBX 4 2 -4 7
BITMAP
19E2
E756
ENDCHAR
STARTCHAR uni0485
ENCODING 1157
SWIDTH 0 0
DWIDTH 0 0
BBX 2 2 -3 7
BITMAP
D0
71
ENDCHAR
STARTCHAR uni0486
ENCODING 1158
SWIDTH 0 0
DWIDTH 0 0
BBX 2 2 -3 7
BITMAP
67
72
ENDCHAR
STARTCHAR uni0488
ENCODING 1160
SWIDTH 0 0
DWIDTH 0 0
BBX 12 11 -9 -3
BITMAP
00000AB00000
000005510000
00BA00007D10
015500006330
0AB0000007D1
155100000633
000000000000
00C900008C10
014600006420
00000AC00000
000006410000
ENDCHAR
STARTCHAR uni0489
ENCODING 1161
SWIDTH 0 0
DWIDTH 0 0
BBX 10 10 -8 -2
BITMAP
0000270000
0530640000
01A0001870
0000000400
0000000000
99000000A7
0100000001
0030000A00
0870460440
0000710000
ENDCHAR
STARTCHAR uni048A
ENCODING 1162
SWIDTH 666 0
DWIDTH 7 0
BBX 7 13 0 -2
BITMAP
00D1A300
006EA000
00000000
2D005E00
2D00CE00
2D05AE00
2D0C3E00
2D591E00
2DC21E00
2F901E20
2F201EE0
000003C0
00000650
ENDCHAR
STARTCHAR uni048B
ENCODING 1163
SWIDTH 550 0
DWIDTH 6 0
BBX 6 11 0 -2
BITMAP
076590
02DD30
000000
3B06C0
3B0CC0
3B59C0
3BB3C0
3F72C2
3E12EC
00004A
000073
ENDCHAR
STARTCHAR uni048C
ENCODING 1164
SWIDTH 551 0
DWIDTH 6 0
BBX 7 8 -1 0
BITMAP
03C00000
2FFB0000
03C00000
03FFEA10
03C01A70
03C00690
03C01B60
03FFEA10
ENDCHAR
STARTCHAR uni048D
ENCODING 1165
SWIDTH 477 0
DWIDTH 5 0
BBX 6 9 -1 0
BITMAP
03B000
1FFF30
03B000
03B000
03B000
03FFD3
03B06A
03B06A
03FFD3
ENDCHAR
STARTCHAR uni048E
ENCODING 1166
SWIDTH 557 0
DWIDTH 6 0
BBX 6 8 0 0
BITMAP
2FFEA1
2C01A7
2C006A
2C04F7
2FFFD7
2C0004
2C0000
2C0000
ENDCHAR
STARTCHAR uni048F
ENCODING 1167
SWIDTH 496 0
DWIDTH 5 0
BBX 5 8 0 -2
BITMAP
4CDD20
4C17A0
4A01D0
4A02D0
4C2DA0
4DDDA0
4A0020
4A0000
ENDCHAR
STARTCHAR uni0490
ENCODING 1168
SWIDTH 479 0
DWIDTH 5 0
BBX 5 10 0 0
BITMAP
0001B0
0001D0
3FFFD0
3C0000
3C0000
3C0000
3C0000
3C0000
3C0000
3C0000
ENDCHAR
STARTCHAR uni0491
ENCODING 1169
SWIDTH 395 0
DWIDTH 4 0
BBX 4 8 0 0
BITMAP
0019
001D
4FFD
4A00
4A00
4A00
4A00
4A00
ENDCHAR
STARTCHAR uni0492
ENCODING 1170
SWIDTH 487 0
DWIDTH 5 0
BBX 5 8 0 0
BITMAP
2FFFE0
2D0000
2D0000
EFF000
2D0000
2D0000
2D0000
2D0000
ENDCHAR
STARTCHAR uni0493
ENCODING 1171
SWIDTH 371 0
DWIDTH 4 0
BBX 4 6 0 0
BITMAP
3FFE
3B00
EFF0
3B00
3B00
3B00
ENDCHAR
STARTCHAR uni0494
ENCODING 1172
SWIDTH 539 0
DWIDTH 6 0
BBX 6 10 0 -2
BITMAP
2FFFE0
2D0000
2D0000
2D0000
2FFD40
2D03D1
2D00A4
2D0095
0001D2
000B70
ENDCHAR
STARTCHAR uni0495
ENCODING 1173
SWIDTH 443 0
DWIDTH 5 0
BBX 5 8 0 -2
BITMAP
4FFD00
4A0000
4A0000
4FE800
4A1C40
4A0860
001C30
006800
ENDCHAR
STARTCHAR uni0496
ENCODING 1174
SWIDTH 833 0
DWIDTH 9 0
BBX 9 10 0 -2
BITMAP
4C01E01E20
0A61E09700
02D2E2C000
00BFFF8000
02E2E3D000
0981E0B600
1E21E05D00
8A01E00DF0
00000000E0
00000000E0
ENDCHAR
STARTCHAR uni0497
ENCODING 1175
SWIDTH 696 0
DWIDTH 8 0
BBX 8 8 0 -2
BITMAP
5B0D2890
0B5D3D10
04FFF800
096D4D00
2E1D2B50
890D25F5
00000095
00000095
ENDCHAR
STARTCHAR uni0498
ENCODING 1176
SWIDTH 517 0
DWIDTH 6 0
BBX 6 10 0 -2
BITMAP
09ED60
5C13E1
1102D1
00DF60
0003E1
2200C3
6B14E1
09FF50
00A500
00A500
ENDCHAR
STARTCHAR uni0499
ENCODING 1177
SWIDTH 446 0
DWIDTH 5 0
BBX 5 8 0 -2
BITMAP
1BEB10
481D30
05FC00
001B40
581B40
1CFA00
00E000
00E000
ENDCHAR
STARTCHAR uni049A
ENCODING 1178
SWIDTH 617 0
DWIDTH 7 0
BBX 7 10 0 -2
BITMAP
2D00A800
2D06C000
2D3E2000
2FF90000
2D2E2000
2D08A000
2D01E300
2D006F40
00000A40
00000A40
ENDCHAR
STARTCHAR uni049B
ENCODING 1179
SWIDTH 524 0
DWIDTH 6 0
BBX 6 8 0 -2
BITMAP
3B0980
3B6A00
3FF300
3B7A00
3B0D30
3B06F7
000087
000087
ENDCHAR
STARTCHAR uni049C
ENCODING 1180
SWIDTH 553 0
DWIDTH 6 0
BBX 6 8 0 0
BITMAP
3C0098
3C41D1
3CB860
3FFF20
3CB870
3C43D0
3C00C5
3C007B
ENDCHAR
STARTCHAR uni049D
ENCODING 1181
SWIDTH 498 0
DWIDTH 5 0
BBX 6 6 0 0
BITMAP
3B22D1
3BCB40
3FFD00
3BCB40
3B06B0
3B01E3
ENDCHAR
STARTCHAR uni049E
ENCODING 1182
SWIDTH 570 0
DWIDTH 6 0
BBX 6 8 0 0
BITMAP
0F009A
EFF5D1
0F2E30
0FFA00
0F1E30
0F06B0
0F00D5
0F004D
ENDCHAR
STARTCHAR uni049F
ENCODING 1183
SWIDTH 462 0
DWIDTH 5 0
BBX 6 9 -1 0
BITMAP
02C000
4FF900
02C000
02C0A6
02C5B0
02FF40
02C6A0
02C0D3
02C05B
ENDCHAR
STARTCHAR uni04A0
ENCODING 1184
SWIDTH 710 0
DWIDTH 8 0
BBX 8 8 0 0
BITMAP
9FF802E3
00780C60
00788A00
007FF300
00787A00
00781D40
007805C0
007800C6
ENDCHAR
STARTCHAR uni04A1
ENCODING 1185
SWIDTH 607 0
DWIDTH 7 0
BBX 7 6 0 0
BITMAP
9FF42D20
00B4C300
00BFA000
00B4D200
00B46B00
00B40D40
ENDCHAR
STARTCHAR uni04A2
ENCODING 1186
SWIDTH 662 0
DWIDTH 7 0
BBX 7 10 0 -2
BITMAP
2C000F00
2C000F00
2C000F00
2FFFFF00
2C000F00
2C000F00
2C000F00
2C000FC0
000003C0
000003C0
ENDCHAR
STARTCHAR uni04A3
ENCODING 1187
SWIDTH 541 0
DWIDTH 6 0
BBX 6 8 0 -2
BITMAP
3B02C0
3B02C0
3FFFC0
3B02C0
3B02C0
3B02F9
000059
000059
ENDCHAR
STARTCHAR uni04A4
ENCODING 1188
SWIDTH 829 0
DWIDTH 9 0
BBX 9 8 0 0
BITMAP
2C000FFFA0
2C000F0000
2C000F0000
2FFFFF0000
2C000F0000
2C000F0000
2C000F0000
2C000F0000
ENDCHAR
STARTCHAR uni04A5
ENCODING 1189
SWIDTH 614 0
DWIDTH 7 0
BBX 7 6 0 0
BITMAP
4A03FF50
4A03B000
4FFFB000
4A03B000
4A03B000
4A03B000
ENDCHAR
STARTCHAR uni04A6
ENCODING 1190
SWIDTH 880 0
DWIDTH 10 0
BBX 10 10 0 -2
BITMAP
2FFFFE0000
2D001E0000
2D001E0000
2D001FEB10
2D001E17A0
2D001E00E0
2D001E00D1
2D001E00E1
00000004C0
0000001D30
ENDCHAR
STARTCHAR uni04A7
ENCODING 1191
SWIDTH 755 0
DWIDTH 8 0
BBX 8 8 0 -2
BITMAP
4FFFB000
4A03B000
4A03FFB1
4A03B099
4A03B02C
4A03B02C
00000088
000000C1
ENDCHAR
STARTCHAR uni04A8
ENCODING 1192
SWIDTH 641 0
DWIDTH 7 0
BBX 7 8 0 0
BITMAP
0695EA00
1E2E3B50
5A2D0780
693C0690
692C0680
3C0D0850
0D668C10
02CFFF90
ENDCHAR
STARTCHAR uni04A9
ENCODING 1193
SWIDTH 528 0
DWIDTH 6 0
BBX 6 6 0 0
BITMAP
0A5E90
4B97D2
68A4B4
5985B3
2D4AC0
06EFF7
ENDCHAR
STARTCHAR uni04AA
ENCODING 1194
SWIDTH 566 0
DWIDTH 6 0
BBX 6 10 0 -2
BITMAP
03CEA0
0D41A7
3B0048
5A0000
5A0000
3B0048
0D41A7
04FFA0
004A00
004A00
ENDCHAR
STARTCHAR uni04AB
ENCODING 1195
SWIDTH 461 0
DWIDTH 5 0
BBX 5 8 0 -2
BITMAP
09EC20
4B1790
770010
770000
4B1780
09FC20
00E000
00E000
ENDCHAR
STARTCHAR uni04AC
ENCODING 1196
SWIDTH 520 0
DWIDTH 6 0
BBX 6 10 0 -2
BITMAP
AFFFF6
009500
009500
009500
009500
009500
009500
009F20
000C20
000C20
ENDCHAR
STARTCHAR uni04AD
ENCODING 1197
SWIDTH 424 0
DWIDTH 5 0
BBX 5 8 0 -2
BITMAP
BFFF60
02C000
02C000
02C000
02C000
02F900
005900
005900
ENDCHAR
STARTCHAR uni04AE
ENCODING 1198
SWIDTH 524 0
DWIDTH 6 0
BBX 6 8 0 0
BITMAP
9700B6
3D02D0
0B4870
04AD10
00D900
009600
009600
009600
ENDCHAR
STARTCHAR uni04AF
ENCODING 1199
SWIDTH 444 0
DWIDTH 5 0
BBX 5 8 0 -2
BITMAP
860770
3B0C20
0D2D00
09A800
04F400
00F000
00E000
00E000
ENDCHAR
STARTCHAR uni04B0
ENCODING 1200
SWIDTH 524 0
DWIDTH 6 0
BBX 6 8 0 0
BITMAP
9700B5
2D02D0
0A4860
03AC00
08FF50
009600
009600
009600
ENDCHAR
STARTCHAR uni04B1
ENCODING 1201
SWIDTH 444 0
DWIDTH 5 0
BBX 5 8 0 -2
BITMAP
860770
3B0B20
0D1C00
099800
04F300
0EFF00
00E000
00E000
ENDCHAR
STARTCHAR uni04B2
ENCODING 1202
SWIDTH 559 0
DWIDTH 6 0
BBX 6 10 0 -2
BITMAP
5C00B6
0C43D0
05CA60
00CD00
00CD00
05BA60
0D43D0
6C00BF
00000E
00000E
ENDCHAR
STARTCHAR uni04B3
ENCODING 1203
SWIDTH 465 0
DWIDTH 5 0
BBX 5 8 0 -2
BITMAP
690D30
0D6A00
05F200
06F300
0D5B00
790EF0
0002C0
0002C0
ENDCHAR
STARTCHAR uni04B4
ENCODING 1204
SWIDTH 781 0
DWIDTH 9 0
BBX 8 10 0 -2
BITMAP
9FFFA0E1
00F000E1
00F000E1
00F000E1
00F000E1
00F000E1
00F000E1
00FFFFFB
0000003B
0000003A
ENDCHAR
STARTCHAR uni04B5
ENCODING 1205
SWIDTH 587 0
DWIDTH 6 0
BBX 6 8 0 -2
BITMAP
BFF787
086087
086087
086087
086087
08FFFF
00000D
00000D
ENDCHAR
STARTCHAR uni04B6
ENCODING 1206
SWIDTH 638 0
DWIDTH 7 0
BBX 7 10 0 -2
BITMAP
4B004B00
4B004B00
4B004B00
2E216B00
07EEDB00
00004B00
00004B00
00004F80
00000780
00000780
ENDCHAR
STARTCHAR uni04B7
ENCODING 1207
SWIDTH 512 0
DWIDTH 6 0
BBX 6 8 0 -2
BITMAP
780770
780770
5B1870
0BEE70
000770
0007F4
0000A4
0000A4
ENDCHAR
STARTCHAR uni04B8
ENCODING 1208
SWIDTH 595 0
DWIDTH 7 0
BBX 6 8 0 0
BITMAP
4B004B
4B004B
4B074B
2E1B6B
08EFDB
000B4B
00034B
00004B
ENDCHAR
STARTCHAR uni04B9
ENCODING 1209
SWIDTH 483 0
DWIDTH 5 0
BBX 5 6 0 0
BITMAP
590690
595690
3CB790
0AFE90
008690
000690
ENDCHAR
STARTCHAR uni04BA
ENCODING 1210
SWIDTH 595 0
DWIDTH 7 0
BBX 6 8 0 0
BITMAP
5A0000
5A0000
5A0000
5EEFB1
5B10A7
5A0059
5A005A
5A005A
ENDCHAR
STARTCHAR uni04BB
ENCODING 1211
SWIDTH 482 0
DWIDTH 5 0
BBX 5 8 0 0
BITMAP
4A0000
4A0000
4CDD30
4D2880
4A0590
4A0590
4A0590
4A0590
ENDCHAR
STARTCHAR uni04BC
ENCODING 1212
SWIDTH 674 0
DWIDTH 7 0
BBX 7 8 0 0
BITMAP
002CEA00
31C61970
68E003B0
1CFFFFC0
01E00000
00E10000
00A91220
001AED30
ENDCHAR
STARTCHAR uni04BD
ENCODING 1213
SWIDTH 518 0
DWIDTH 6 0
BBX 6 6 0 0
BITMAP
23DE60
CC52D1
6FFFF3
0E0000
0A7160
02CE90
ENDCHAR
STARTCHAR uni04BE
ENCODING 1214
SWIDTH 674 0
DWIDTH 7 0
BBX 7 10 0 -2
BITMAP
002CEA00
31C61970
68E003B0
1CFFFFC0
01E00000
00E10000
00A91220
001AFD30
0000E000
0000E000
ENDCHAR
STARTCHAR uni04BF
ENCODING 1215
SWIDTH 518 0
DWIDTH 6 0
BBX 6 8 0 -2
BITMAP
23DE60
CC52D1
6FFFF3
0E0000
0A7160
02EF90
002C00
002C00
ENDCHAR
STARTCHAR uni04C0
ENCODING 1216
SWIDTH 250 0
DWIDTH 3 0
BBX 2 8 0 0
BITMAP
2D
2D
2D
2D
2D
2D
2D
2D
ENDCHAR
STARTCHAR uni04C1
ENCODING 1217
SWIDTH 791 0
DWIDTH 9 0
BBX 9 11 0 0
BITMAP
003B1D0000
000AE60000
0000000000
4C01E01E20
0A61E09700
02D2E2C000
00BFFF8000
02E2E3D000
0981E0B600
1E21E05D00
8A01E00D50
ENDCHAR
STARTCHAR uni04C2
ENCODING 1218
SWIDTH 662 0
DWIDTH 7 0
BBX 7 9 0 0
BITMAP
00D1B200
006EA000
00000000
5B0D2890
0B5D3D10
04FFF800
096D4D00
2E1D2B50
890D25C0
ENDCHAR
STARTCHAR uni04C3
ENCODING 1219
SWIDTH 553 0
DWIDTH 6 0
BBX 6 10 0 -2
BITMAP
3C00C5
3C0890
3C4C00
3FFE60
3C02D3
3C0078
3C005A
3C0069
0001B5
0007A0
ENDCHAR
STARTCHAR uni04C4
ENCODING 1220
SWIDTH 481 0
DWIDTH 5 0
BBX 5 7 0 -1
BITMAP
3B0970
3B7900
3FFC20
3B07A0
3B01D0
3B07A0
000C20
ENDCHAR
STARTCHAR uni04C5
ENCODING 1221
SWIDTH 662 0
DWIDTH 7 0
BBX 7 10 0 -2
BITMAP
04FFFD00
04A02D00
05A02D00
05902D00
06802D00
08702D00
1C402D20
AA002FD0
000003B0
00000640
ENDCHAR
STARTCHAR uni04C6
ENCODING 1222
SWIDTH 551 0
DWIDTH 6 0
BBX 6 8 0 -2
BITMAP
09FFC0
0A52C0
0A42C0
0B32C0
1E12D2
A802EC
00004B
000074
ENDCHAR
STARTCHAR uni04C7
ENCODING 1223
SWIDTH 620 0
DWIDTH 7 0
BBX 6 10 0 -2
BITMAP
2D001E
2D001E
2D001E
2FFFFE
2D001E
2D001E
2D001E
2D001E
00003D
0001E6
ENDCHAR
STARTCHAR uni04C8
ENCODING 1224
SWIDTH 498 0
DWIDTH 5 0
BBX 5 8 0 -2
BITMAP
4A03B0
4A03B0
4FFFB0
4A03B0
4A03B0
4A03B0
0005A0
003E40
ENDCHAR
STARTCHAR uni04C9
ENCODING 1225
SWIDTH 671 0
DWIDTH 7 0
BBX 7 10 0 -2
BITMAP
2C000F00
2C000F00
2C000F00
2FFFFF00
2C000F00
2C000F00
2C000F20
2C000FE0
000002D0
00000550
ENDCHAR
STARTCHAR uni04CA
ENCODING 1226
SWIDTH 550 0
DWIDTH 6 0
BBX 6 8 0 -2
BITMAP
3B02C0
3B02C0
3FFFC0
3B02C0
3B02C2
3B02EC
00004A
000073
ENDCHAR
STARTCHAR uni04CB
ENCODING 1227
SWIDTH 600 0
DWIDTH 7 0
BBX 6 10 0 -2
BITMAP
4B004B
4B004B
4B004B
2E216B
07EEDB
00004B
00004B
0002FB
0002D0
0002D0
ENDCHAR
STARTCHAR uni04CC
ENCODING 1228
SWIDTH 479 0
DWIDTH 5 0
BBX 5 8 0 -2
BITMAP
780770
780770
5B1870
0BEE70
000770
005F70
005900
005900
ENDCHAR
STARTCHAR uni04CD
ENCODING 1229
SWIDTH 801 0
DWIDTH 9 0
BBX 9 10 0 -2
BITMAP
2F4000E700
2F9004F700
2CD009C700
2CB30D8700
2C683A8700
2C1C858700
2C0BD18810
2C06A08F60
0000000A40
0000000A00
ENDCHAR
STARTCHAR uni04CE
ENCODING 1230
SWIDTH 687 0
DWIDTH 8 0
BBX 8 8 0 -2
BITMAP
3F301F40
3F806F40
3CC0BC40
3BA4BA40
3B4D6A61
3B0E1AE5
000000B3
000001A0
ENDCHAR
STARTCHAR uni04CF
ENCODING 1231
SWIDTH 250 0
DWIDTH 3 0
BBX 2 8 0 0
BITMAP
2D
2D
2D
2D
2D
2D
2D
2D
ENDCHAR
STARTCHAR uni04D0
ENCODING 1232
SWIDTH 576 0
DWIDTH 6 0
BBX 6 11 0 0
BITMAP
0593B0
01CE40
000000
006B00
00BD10
01C860
0583B0
0A40D1
0EFFF5
4A005A
96001E
ENDCHAR
STARTCHAR uni04D1
ENCODING 1233
SWIDTH 479 0
DWIDTH 5 0
BBX 5 9 0 0
BITMAP
0C2A40
05EB00
000000
0AEC20
251870
09EF80
4C1780
5B1A80
1CEB90
ENDCHAR
STARTCHAR uni04D2
ENCODING 1234
SWIDTH 576 0
DWIDTH 6 0
BBX 6 11 0 0
BITMAP
000010
0682C0
000000
006B00
00BD10
01C860
0583B0
0A40D1
0EFFF5
4A005A
96001E
ENDCHAR
STARTCHAR uni04D3
ENCODING 1235
SWIDTH 479 0
DWIDTH 5 0
BBX 5 9 0 0
BITMAP
010100
0D1860
000000
0AEC20
251870
09EF80
4C1780
5B1A80
1CEB90
ENDCHAR
STARTCHAR uni04D4
ENCODING 1236
SWIDTH 812 0
DWIDTH 9 0
BBX 9 8 0 0
BITMAP
0004FFFF60
000CC50000
004A950000
00C39FFF00
04B0860000
0CFFF70000
4C00770000
C6007FFFA0
ENDCHAR
STARTCHAR uni04D5
ENCODING 1237
SWIDTH 728 0
DWIDTH 8 0
BBX 8 6 0 0
BITMAP
1CEA8EB1
251BA187
1BEFFFF9
79196000
791BC121
2DE78ED4
ENDCHAR
STARTCHAR uni04D6
ENCODING 1238
SWIDTH 496 0
DWIDTH 5 0
BBX 6 11 0 0
BITMAP
094770
03DC10
000000
2FFFF0
2C0000
2C0000
2FFF90
2C0000
2C0000
2C0000
2FFFF1
ENDCHAR
STARTCHAR uni04D7
ENCODING 1239
SWIDTH 468 0
DWIDTH 5 0
BBX 5 9 0 0
BITMAP
0D1B30
06EA00
000000
09EC20
4A1690
7FFFB0
780000
4C1220
09ED40
ENDCHAR
STARTCHAR uni04D8
ENCODING 1240
SWIDTH 597 0
DWIDTH 7 0
BBX 6 8 0 0
BITMAP
08EE80
0312C6
00004B
00001D
8FFFFE
68003C
2D21A6
06DE80
ENDCHAR
STARTCHAR uni04D9
ENCODING 1241
SWIDTH 465 0
DWIDTH 5 0
BBX 5 6 0 0
BITMAP
1BE900
141B60
000590
6FFFA0
4A1960
0AEA00
ENDCHAR
STARTCHAR uni04DA
ENCODING 1242
SWIDTH 597 0
DWIDTH 7 0
BBX 6 11 0 0
BITMAP
010000
0A4680
000000
08EE80
0312C6
00004B
00001D
8FFFFE
68003C
2D21A6
06DE80
ENDCHAR
STARTCHAR uni04DB
ENCODING 1243
SWIDTH 465 0
DWIDTH 5 0
BBX 5 9 0 0
BITMAP
010100
0D0A40
000000
1BE900
141B60
000590
6FFFA0
4A1960
0AEA00
ENDCHAR
STARTCHAR uni04DC
ENCODING 1244
SWIDTH 791 0
DWIDTH 9 0
BBX 9 11 0 0
BITMAP
0001010000
004A0D1000
0000000000
4C01E01E20
0A61E09700
02D2E2C000
00BFFF8000
02E2E3D000
0981E0B600
1E21E05D00
8A01E00D50
ENDCHAR
STARTCHAR uni04DD
ENCODING 1245
SWIDTH 662 0
DWIDTH 7 0
BBX 7 9 0 0
BITMAP
00101000
00D0A400
00000000
5B0D2890
0B5D3D10
04FFF800
096D4D00
2E1D2B50
890D25C0
ENDCHAR
STARTCHAR uni04DE
ENCODING 1246
SWIDTH 517 0
DWIDTH 6 0
BBX 6 11 0 0
BITMAP
010000
0C2770
000000
09ED60
5C13E1
1102D1
00DF60
0003E1
2200C3
6B14E1
09ED50
ENDCHAR
STARTCHAR uni04DF
ENCODING 1247
SWIDTH 446 0
DWIDTH 5 0
BBX 5 9 0 0
BITMAP
010100
3B0C20
000000
1BEB10
481D30
05FC00
001B40
581B40
1BEA00
ENDCHAR
STARTCHAR uni04E0
ENCODING 1248
SWIDTH 510 0
DWIDTH 6 0
BBX 5 8 0 0
BITMAP
3FFFB0
001C30
00A500
01FC30
0006C0
2301E0
4C16C0
09EC30
ENDCHAR
STARTCHAR uni04E1
ENCODING 1249
SWIDTH 510 0
DWIDTH 6 0
BBX 5 8 0 -2
BITMAP
3FFFA0
001C30
00B500
02FC30
0006B0
2200E0
4C15B0
08EC30
ENDCHAR
STARTCHAR uni04E2
ENCODING 1250
SWIDTH 619 0
DWIDTH 7 0
BBX 6 10 0 0
BITMAP
02FFF0
000000
2D005E
2D00CE
2D05AE
2D0C3E
2D591E
2DC21E
2F901E
2F201E
ENDCHAR
STARTCHAR uni04E3
ENCODING 1251
SWIDTH 509 0
DWIDTH 6 0
BBX 5 8 0 0
BITMAP
0BFF60
000000
3B06C0
3B0CC0
3B59C0
3BB3C0
3F72C0
3E12C0
ENDCHAR
STARTCHAR uni04E4
ENCODING 1252
SWIDTH 619 0
DWIDTH 7 0
BBX 6 11 0 0
BITMAP
001010
03B0D1
000000
2D005E
2D00CE
2D05AE
2D0C3E
2D591E
2DC21E
2F901E
2F201E
ENDCHAR
STARTCHAR uni04E5
ENCODING 1253
SWIDTH 509 0
DWIDTH 6 0
BBX 5 9 0 0
BITMAP
010000
0C2770
000000
3B06C0
3B0CC0
3B59C0
3BB3C0
3F72C0
3E12C0
ENDCHAR
STARTCHAR uni04E6
ENCODING 1254
SWIDTH 600 0
DWIDTH 7 0
BBX 6 11 0 0
BITMAP
001010
0490D0
000000
04CEA1
0D4198
3B002C
5A001E
5A001E
3B002D
1E4198
04DEA1
ENDCHAR
STARTCHAR uni04E7
ENCODING 1255
SWIDTH 501 0
DWIDTH 6 0
BBX 5 9 0 0
BITMAP
010100
0D1950
000000
08EC30
4C16B0
7800E0
7800E0
4C15B0
08EC30
ENDCHAR
STARTCHAR uni04E8
ENCODING 1256
SWIDTH 593 0
DWIDTH 7 0
BBX 6 8 0 0
BITMAP
04DE80
1D31A6
59002B
6FFFFD
79002D
5B005B
1E51C6
04DE90
ENDCHAR
STARTCHAR uni04E9
ENCODING 1257
SWIDTH 497 0
DWIDTH 5 0
BBX 5 6 0 0
BITMAP
07EC20
3B14B0
6FFFE0
6801E0
3D27B0
07EC20
ENDCHAR
STARTCHAR uni04EA
ENCODING 1258
SWIDTH 593 0
DWIDTH 7 0
BBX 6 11 0 0
BITMAP
001010
04A0D0
000000
04DE80
1D31A6
59002B
6FFFFD
79002D
5B005B
1E51C6
04DE90
ENDCHAR
STARTCHAR uni04EB
ENCODING 1259
SWIDTH 497 0
DWIDTH 5 0
BBX 5 9 0 0
BITMAP
010100
0D0A40
000000
07EC20
3B14B0
6FFFE0
6801E0
3D27B0
07EC20
ENDCHAR
STARTCHAR uni04EC
ENCODING 1260
SWIDTH 589 0
DWIDTH 6 0
BBX 6 11 0 0
BITMAP
000010
0681C0
000000
04DE80
0E41A6
18002B
009FFD
00002D
17004C
0D41B7
04DE90
ENDCHAR
STARTCHAR uni04ED
ENCODING 1261
SWIDTH 472 0
DWIDTH 5 0
BBX 5 9 0 0
BITMAP
010100
1D0B30
000000
1BE900
351A50
01FF80
110690
5A1C50
0AEA00
ENDCHAR
STARTCHAR uni04EE
ENCODING 1262
SWIDTH 547 0
DWIDTH 6 0
BBX 6 10 0 0
BITMAP
08FF90
000000
5B00A7
0E20E2
0974C0
03C970
00CE20
007B00
00A600
0AB100
ENDCHAR
STARTCHAR uni04EF
ENCODING 1263
SWIDTH 416 0
DWIDTH 5 0
BBX 5 10 0 -2
BITMAP
2FFF00
000000
A50C30
591D00
1D4900
0BA500
06F100
03B000
087000
8C1000
ENDCHAR
STARTCHAR uni04F0
ENCODING 1264
SWIDTH 547 0
DWIDTH 6 0
BBX 6 11 0 0
BITMAP
010010
0954A0
000000
5B00A7
0E20E2
0974C0
03C970
00CE20
007B00
00A600
0AB100
ENDCHAR
STARTCHAR uni04F1
ENCODING 1265
SWIDTH 416 0
DWIDTH 5 0
BBX 5 11 0 -2
BITMAP
010100
3B0D10
000000
A50C30
591D00
1D4900
0BA500
06F100
03B000
087000
8C1000
ENDCHAR
STARTCHAR uni04F2
ENCODING 1266
SWIDTH 547 0
DWIDTH 6 0
BBX 6 11 0 0
BITMAP
00A8D0
00B940
000000
5B00A7
0E20E2
0974C0
03C970
00CE20
007B00
00A600
0AB100
ENDCHAR
STARTCHAR uni04F3
ENCODING 1267
SWIDTH 416 0
DWIDTH 5 0
BBX 5 11 0 -2
BITMAP
05BC40
087900
000000
A50C30
591D00
1D4900
0BA500
06F100
03B000
087000
8C1000
ENDCHAR
STARTCHAR uni04F4
ENCODING 1268
SWIDTH 600 0
DWIDTH 7 0
BBX 6 11 0 0
BITMAP
000010
0682C0
000000
4B004B
4B004B
4B004B
2E216B
07EEDB
00004B
00004B
00004B
ENDCHAR
STARTCHAR uni04F5
ENCODING 1269
SWIDTH 479 0
DWIDTH 5 0
BBX 5 9 0 0
BITMAP
010100
2C0C20
000000
780770
780770
5B1870
0BEE70
000770
000770
ENDCHAR
STARTCHAR uni04F6
ENCODING 1270
SWIDTH 487 0
DWIDTH 5 0
BBX 5 10 0 -2
BITMAP
2FFFE0
2D0000
2D0000
2D0000
2D0000
2D0000
2D0000
2FA000
04A000
04A000
ENDCHAR
STARTCHAR uni04F7
ENCODING 1271
SWIDTH 371 0
DWIDTH 4 0
BBX 4 8 0 -2
BITMAP
3FFE
3B00
3B00
3B00
3B00
3F80
0680
0680
ENDCHAR
STARTCHAR uni04F8
ENCODING 1272
SWIDTH 755 0
DWIDTH 8 0
BBX 8 11 0 0
BITMAP
00000100
00773B00
00000000
2D000096
2D000096
2D000096
2FFFB196
2D009896
2D005A96
2D00A896
2FFFB196
ENDCHAR
STARTCHAR uni04F9
ENCODING 1273
SWIDTH 679 0
DWIDTH 7 0
BBX 7 9 0 0
BITMAP
00101000
00D0A400
00000000
3B000680
3B000680
3FFD3680
3B06A680
3B06A680
3FFD3680
ENDCHAR
STARTCHAR uni04FA
ENCODING 1274
SWIDTH 520 0
DWIDTH 6 0
BBX 6 10 0 -2
BITMAP
0BFFF5
0B4000
0B4000
0B4000
9FF500
0B4000
0B4000
0BF100
01E100
0D9000
ENDCHAR
STARTCHAR uni04FB
ENCODING 1275
SWIDTH 410 0
DWIDTH 5 0
BBX 5 8 0 -2
BITMAP
0CFF50
0C2000
0C2000
9FF500
0C2000
0CF000
01E000
0E8000
ENDCHAR
STARTCHAR uni04FC
ENCODING 1276
SWIDTH 570 0
DWIDTH 6 0
BBX 7 10 0 -2
BITMAP
5C00B600
0C43D000
05CA6000
00CD0000
00CD0000
05BA6000
0D43D000
6C00AF10
00001E00
0000D900
ENDCHAR
STARTCHAR uni04FD
ENCODING 1277
SWIDTH 476 0
DWIDTH 5 0
BBX 5 8 0 -2
BITMAP
690D30
0D6A00
05F200
06F300
0D5B00
790CF0
0002E0
000E70
ENDCHAR
STARTCHAR uni04FE
ENCODING 1278
SWIDTH 550 0
DWIDTH 6 0
BBX 6 8 0 0
BITMAP
4C00B6
0A43C0
02BA30
06FF80
01EE10
07BA80
0D43E1
6C00A7
ENDCHAR
STARTCHAR uni04FF
ENCODING 1279
SWIDTH 438 0
DWIDTH 5 0
BBX 5 6 0 0
BITMAP
590C30
0A6700
0FFD00
08F500
1E5C00
790C40
ENDCHAR
STARTCHAR uni0500
ENCODING 1280
SWIDTH 555 0
DWIDTH 6 0
BBX 6 8 0 0
BITMAP
0000A5
0000A5
0000A5
09EFF5
4C10A5
7800A5
4C10A5
09EFF5
ENDCHAR
STARTCHAR uni0501
ENCODING 1281
SWIDTH 496 0
DWIDTH 5 0
BBX 5 8 0 0
BITMAP
0004B0
0004B0
0AEBB0
5B17B0
7704B0
7704B0
5B17B0
0AEAB0
ENDCHAR
STARTCHAR uni0502
ENCODING 1282
SWIDTH 723 0
DWIDTH 8 0
BBX 8 8 0 0
BITMAP
0000A500
0000A500
0000A500
09EFF521
4C10A578
6800A569
4C10A5A7
09EFFFB1
ENDCHAR
STARTCHAR uni0503
ENCODING 1283
SWIDTH 743 0
DWIDTH 8 0
BBX 8 9 0 0
BITMAP
0004A000
0004A000
0004A000
09ECA031
3D17A077
6804A068
6804A078
4C17C1C3
09E8BE70
ENDCHAR
STARTCHAR uni0504
ENCODING 1284
SWIDTH 685 0
DWIDTH 8 0
BBX 7 8 0 0
BITMAP
AFE60000
002E1000
000C3220
002E14A0
0BF802C0
002E23C0
000B5880
0006EB10
ENDCHAR
STARTCHAR uni0505
ENCODING 1285
SWIDTH 562 0
DWIDTH 6 0
BBX 6 6 0 0
BITMAP
AFB100
00A622
00A54A
4FE23B
009879
004EC2
ENDCHAR
STARTCHAR uni0506
ENCODING 1286
SWIDTH 470 0
DWIDTH 5 0
BBX 5 10 0 -2
BITMAP
8FC300
006B00
001D00
006A00
2FF300
005B00
001E20
000EB0
000590
000730
ENDCHAR
STARTCHAR uni0507
ENCODING 1287
SWIDTH 443 0
DWIDTH 5 0
BBX 5 8 0 -2
BITMAP
5FD400
004C00
005B00
0FF500
004C00
001FA0
000680
000820
ENDCHAR
STARTCHAR uni0508
ENCODING 1288
SWIDTH 834 0
DWIDTH 9 0
BBX 9 8 0 0
BITMAP
03FFFC0000
03B03C0000
04B03C0220
04A03C0590
05A03C04B0
06803C05A0
1B502E1A60
9B1009E900
ENDCHAR
STARTCHAR uni0509
ENCODING 1289
SWIDTH 698 0
DWIDTH 8 0
BBX 8 6 0 0
BITMAP
07FFB000
0864B0B2
0854B095
0A44B0A5
1D23D1D2
9A00AE70
ENDCHAR
STARTCHAR uni050A
ENCODING 1290
SWIDTH 864 0
DWIDTH 10 0
BBX 9 8 0 0
BITMAP
3C001D0000
3C001D0000
3C001D0220
3FFFFD04A0
3C001D03C0
3C001D04B0
3C000E2970
3C0008EA00
ENDCHAR
STARTCHAR uni050B
ENCODING 1291
SWIDTH 716 0
DWIDTH 8 0
BBX 8 6 0 0
BITMAP
4A02C000
4A02C094
4FFFC086
4A02C086
4A01E1C3
4A008E80
ENDCHAR
STARTCHAR uni050C
ENCODING 1292
SWIDTH 541 0
DWIDTH 6 0
BBX 6 8 0 0
BITMAP
03DE90
1E4120
4B0000
690052
690096
4B0086
1E41C4
04DE80
ENDCHAR
STARTCHAR uni050D
ENCODING 1293
SWIDTH 452 0
DWIDTH 5 0
BBX 5 6 0 0
BITMAP
07EB00
3D1200
680210
680860
3D2960
07EC10
ENDCHAR
STARTCHAR uni050E
ENCODING 1294
SWIDTH 616 0
DWIDTH 7 0
BBX 7 8 0 0
BITMAP
BFFFF700
00A50000
00A50400
00A50D20
00A50B30
00A50C30
00983D00
003DD300
ENDCHAR
STARTCHAR uni050F
ENCODING 1295
SWIDTH 558 0
DWIDTH 6 0
BBX 6 6 0 0
BITMAP
8FFF80
00E032
00E077
00E069
00E2A6
007EA0
ENDCHAR
STARTCHAR uni0510
ENCODING 1296
SWIDTH 589 0
DWIDTH 6 0
BBX 6 8 0 0
BITMAP
05DFB1
0E318A
0D3002
05FF30
1E3000
2C0004
1E417C
04DFC3
ENDCHAR
STARTCHAR uni0511
ENCODING 1297
SWIDTH 470 0
DWIDTH 5 0
BBX 5 6 0 0
BITMAP
1CFC30
4B1330
0CF700
5B1000
6B1770
1AEC20
ENDCHAR
STARTCHAR uni0512
ENCODING 1298
SWIDTH 664 0
DWIDTH 7 0
BBX 7 10 0 -2
BITMAP
04FFFD00
04A02D00
05A02D00
05902D00
06802D00
08702D00
1C402D00
AA002FC0
000004B0
00002E60
ENDCHAR
STARTCHAR uni0513
ENCODING 1299
SWIDTH 553 0
DWIDTH 6 0
BBX 6 8 0 -2
BITMAP
09FFC0
0A52C0
0A42C0
0B32C0
1E12C0
A802FB
00005B
0003E5
ENDCHAR
STARTCHAR uni1E00
ENCODING 7680
SWIDTH 576 0
DWIDTH 6 0
BBX 6 11 0 -3
BITMAP
006B00
00BD10
01C860
0583B0
0A40D1
0EFFF5
4A005A
96001E
000000
006C00
006C00
ENDCHAR
STARTCHAR uni1E01
ENCODING 7681
SWIDTH 479 0
DWIDTH 5 0
BBX 5 9 0 -3
BITMAP
0AEC20
251870
09EF80
4C1780
5B1A80
1CEB90
000000
04D000
04D000
ENDCHAR
STARTCHAR uni1E3E
ENCODING 7742
SWIDTH 755 0
DWIDTH 8 0
BBX 8 11 0 0
BITMAP
0000B700
0003A000
00000000
2F4000E7
2F9004F7
2CD009C7
2CB30D87
2C683A87
2C1C8587
2C0BD187
2C06A087
ENDCHAR
STARTCHAR uni1E3F
ENCODING 7743
SWIDTH 752 0
DWIDTH 8 0
BBX 8 9 0 0
BITMAP
0000A800
0002B000
00000000
4CDD6DD2
4C18D197
4A059068
4A059068
4A059068
4A059068
ENDCHAR
STARTCHAR Wgrave
ENCODING 7808
SWIDTH 761 0
DWIDTH 8 0
BBX 8 11 0 0
BITMAP
002E3000
00058000
00000000
8704C00E
5907E02C
2C0BA359
0E0C5686
0B5A2AA3
08B60CC1
05F30AC0
02E00790
ENDCHAR
STARTCHAR wgrave
ENCODING 7809
SWIDTH 649 0
DWIDTH 7 0
BBX 7 9 0 0
BITMAP
00C60000
002B0000
00000000
950E13B0
683F5680
2B799940
0DB2CC10
0AC0BC00
06907800
ENDCHAR
STARTCHAR Wacute
ENCODING 7810
SWIDTH 761 0
DWIDTH 8 0
BBX 8 11 0 0
BITMAP
00009900
0001B100
00000000
8704C00E
5907E02C
2C0BA359
0E0C5686
0B5A2AA3
08B60CC1
05F30AC0
02E00790
ENDCHAR
STARTCHAR wacute
ENCODING 7811
SWIDTH 649 0
DWIDTH 7 0
BBX 7 9 0 0
BITMAP
0005D100
000A3000
00000000
950E13B0
683F5680
2B799940
0DB2CC10
0AC0BC00
06907800
ENDCHAR
STARTCHAR Wdieresis
ENCODING 7812
SWIDTH 761 0
DWIDTH 8 0
BBX 8 11 0 0
BITMAP
00010100
00591D00
00000000
8704C00E
5907E02C
2C0BA359
0E0C5686
0B5A2AA3
08B60CC1
05F30AC0
02E00790
ENDCHAR
STARTCHAR wdieresis
ENCODING 7813
SWIDTH 649 0
DWIDTH 7 0
BBX 7 9 0 0
BITMAP
00101000
01C0B300
00000000
950E13B0
683F5680
2B799940
0DB2CC10
0AC0BC00
06907800
ENDCHAR
STARTCHAR uni1EA0
ENCODING 7840
SWIDTH 576 0
DWIDTH 6 0
BBX 6 11 0 -3
BITMAP
006B00
00BD10
01C860
0583B0
0A40D1
0EFFF5
4A005A
96001E
000000
004A00
000100
ENDCHAR
STARTCHAR uni1EA1
ENCODING 7841
SWIDTH 479 0
DWIDTH 5 0
BBX 5 9 0 -3
BITMAP
0AEC20
251870
09EF80
4C1780
5B1A80
1CEB90
000000
02C000
001000
ENDCHAR
STARTCHAR uni1EA2
ENCODING 7842
SWIDTH 576 0
DWIDTH 6 0
BBX 6 12 0 0
BITMAP
003C10
000A20
002B00
000000
006B00
00BD10
01C860
0583B0
0A40D1
0EFFF5
4A005A
96001E
ENDCHAR
STARTCHAR uni1EA3
ENCODING 7843
SWIDTH 479 0
DWIDTH 5 0
BBX 5 10 0 0
BITMAP
009600
002A00
009400
000000
0AEC20
251870
09EF80
4C1780
5B1A80
1CEB90
ENDCHAR
STARTCHAR uni1EA4
ENCODING 7844
SWIDTH 576 0
DWIDTH 6 0
BBX 7 12 0 0
BITMAP
00001D10
009D5700
03B68000
00000000
006B0000
00BD1000
01C86000
0583B000
0A40D100
0EFFF500
4A005A00
96001E00
ENDCHAR
STARTCHAR uni1EA5
ENCODING 7845
SWIDTH 479 0
DWIDTH 5 0
BBX 6 10 0 0
BITMAP
000078
02E891
095B20
000000
0AEC20
251870
09EF80
4C1780
5B1A80
1CEB90
ENDCHAR
STARTCHAR uni1EA6
ENCODING 7846
SWIDTH 576 0
DWIDTH 6 0
BBX 6 12 0 0
BITMAP
960000
299D20
03A680
000000
006B00
00BD10
01C860
0583B0
0A40D1
0EFFF5
4A005A
96001E
ENDCHAR
STARTCHAR uni1EA7
ENCODING 7847
SWIDTH 479 0
DWIDTH 5 0
BBX 6 10 -1 0
BITMAP
1D0000
085E80
0095B2
000000
00AEC2
025187
009EF8
04C178
05B1A8
01CEB9
ENDCHAR
STARTCHAR uni1EA8
ENCODING 7848
SWIDTH 576 0
DWIDTH 6 0
BBX 6 13 0 0
BITMAP
000055
000039
00ACA3
049490
000000
006B00
00BD10
01C860
0583B0
0A40D1
0EFFF5
4A005A
96001E
ENDCHAR
STARTCHAR uni1EA9
ENCODING 7849
SWIDTH 479 0
DWIDTH 5 0
BBX 6 11 0 0
BITMAP
0000A0
0000A2
03D9B0
0A3A30
000000
0AEC20
251870
09EF80
4C1780
5B1A80
1CEB90
ENDCHAR
STARTCHAR uni1EAA
ENCODING 7850
SWIDTH 576 0
DWIDTH 6 0
BBX 6 13 0 0
BITMAP
00B540
006C20
009C20
049490
000000
006B00
00BD10
01C860
0583B0
0A40D1
0EFFF5
4A005A
96001E
ENDCHAR
STARTCHAR uni1EAB
ENCODING 7851
SWIDTH 479 0
DWIDTH 5 0
BBX 5 11 0 0
BITMAP
03A600
055900
02D800
0A3A30
000000
0AEC20
251870
09EF80
4C1780
5B1A80
1CEB90
ENDCHAR
STARTCHAR uni1EAC
ENCODING 7852
SWIDTH 576 0
DWIDTH 6 0
BBX 6 14 0 -3
BITMAP
007C10
01B750
000000
006B00
00BD10
01C860
0583B0
0A40D1
0EFFF5
4A005A
96001E
000000
004A00
000100
ENDCHAR
STARTCHAR uni1EAD
ENCODING 7853
SWIDTH 479 0
DWIDTH 5 0
BBX 5 12 0 -3
BITMAP
01D600
066B00
000000
0AEC20
251870
09EF80
4C1780
5B1A80
1CEB90
000000
02C000
001000
ENDCHAR
STARTCHAR uni1EAE
ENCODING 7854
SWIDTH 576 0
DWIDTH 6 0
BBX 6 13 0 0
BITMAP
000B00
000700
02A670
00AD20
000000
006B00
00BD10
01C860
0583B0
0A40D1
0EFFF5
4A005A
96001E
ENDCHAR
STARTCHAR uni1EAF
ENCODING 7855
SWIDTH 479 0
DWIDTH 5 0
BBX 5 11 0 0
BITMAP
003800
006200
094C10
03E900
000000
0AEC20
251870
09EF80
4C1780
5B1A80
1CEB90
ENDCHAR
STARTCHAR uni1EB0
ENCODING 7856
SWIDTH 576 0
DWIDTH 6 0
BBX 6 13 0 0
BITMAP
008300
003500
02A670
00AD20
000000
006B00
00BD10
01C860
0583B0
0A40D1
0EFFF5
4A005A
96001E
ENDCHAR
STARTCHAR uni1EB1
ENCODING 7857
SWIDTH 479 0
DWIDTH 5 0
BBX 5 11 0 0
BITMAP
01B000
008000
094C10
03E900
000000
0AEC20
251870
09EF80
4C1780
5B1A80
1CEB90
ENDCHAR
STARTCHAR uni1EB2
ENCODING 7858
SWIDTH 576 0
DWIDTH 6 0
BBX 6 14 0 0
BITMAP
001900
001C10
002900
02A660
00BD10
000000
006B00
00BD10
01C860
0583B0
0A40D1
0EFFF5
4A005A
96001E
ENDCHAR
STARTCHAR uni1EB3
ENCODING 7859
SWIDTH 479 0
DWIDTH 5 0
BBX 5 12 0 0
BITMAP
005600
004900
009300
094C00
03E800
000000
0AEC20
251870
09EF80
4C1780
5B1A80
1CEB90
ENDCHAR
STARTCHAR uni1EB4
ENCODING 7860
SWIDTH 576 0
DWIDTH 6 0
BBX 6 14 0 0
BITMAP
00B460
006C30
000000
02A670
00AD20
000000
006B00
00BD10
01C860
0583B0
0A40D1
0EFFF5
4A005A
96001E
ENDCHAR
STARTCHAR uni1EB5
ENCODING 7861
SWIDTH 479 0
DWIDTH 5 0
BBX 5 12 0 0
BITMAP
03B700
065A00
000000
094C00
03E800
000000
0AEC20
251870
09EF80
4C1780
5B1A80
1CEB90
ENDCHAR
STARTCHAR uni1EB6
ENCODING 7862
SWIDTH 576 0
DWIDTH 6 0
BBX 6 14 0 -3
BITMAP
0593B0
01CE40
000000
006B00
00BD10
01C860
0583B0
0A40D1
0EFFF5
4A005A
96001E
000000
004A00
000100
ENDCHAR
STARTCHAR uni1EB7
ENCODING 7863
SWIDTH 479 0
DWIDTH 5 0
BBX 5 12 0 -3
BITMAP
0C2A40
05EB00
000000
0AEC20
251870
09EF80
4C1780
5B1A80
1CEB90
000000
02C000
001000
ENDCHAR
STARTCHAR uni1EB8
ENCODING 7864
SWIDTH 496 0
DWIDTH 5 0
BBX 6 11 0 -3
BITMAP
2FFFF0
2C0000
2C0000
2FFF90
2C0000
2C0000
2C0000
2FFFF1
000000
009500
001000
ENDCHAR
STARTCHAR uni1EB9
ENCODING 7865
SWIDTH 468 0
DWIDTH 5 0
BBX 5 9 0 -3
BITMAP
09EC20
4A1690
7FFFB0
780000
4C1220
09ED40
000000
00C200
001000
ENDCHAR
STARTCHAR uni1EBA
ENCODING 7866
SWIDTH 496 0
DWIDTH 5 0
BBX 6 12 0 0
BITMAP
007800
001C00
006700
000000
2FFFF0
2C0000
2C0000
2FFF90
2C0000
2C0000
2C0000
2FFFF1
ENDCHAR
STARTCHAR uni1EBB
ENCODING 7867
SWIDTH 468 0
DWIDTH 5 0
BBX 5 10 0 0
BITMAP
00A500
003900
00A300
000000
09EC20
4A1690
7FFFB0
780000
4C1220
09ED40
ENDCHAR
STARTCHAR uni1EBC
ENCODING 7868
SWIDTH 496 0
DWIDTH 5 0
BBX 6 11 0 0
BITMAP
05C470
0A3D30
000000
2FFFF0
2C0000
2C0000
2FFF90
2C0000
2C0000
2C0000
2FFFF1
ENDCHAR
STARTCHAR uni1EBD
ENCODING 7869
SWIDTH 468 0
DWIDTH 5 0
BBX 5 9 0 0
BITMAP
099730
0A5D00
000000
09EC20
4A1690
7FFFB0
780000
4C1220
09ED40
ENDCHAR
STARTCHAR uni1EBE
ENCODING 7870
SWIDTH 496 0
DWIDTH 5 0
BBX 6 12 0 0
BITMAP
00005A
01CB83
077A40
000000
2FFFF0
2C0000
2C0000
2FFF90
2C0000
2C0000
2C0000
2FFFF1
ENDCHAR
STARTCHAR uni1EBF
ENCODING 7871
SWIDTH 468 0
DWIDTH 5 0
BBX 6 10 0 0
BITMAP
000087
03E7A1
0A4C20
000000
09EC20
4A1690
7FFFB0
780000
4C1220
09ED40
ENDCHAR
STARTCHAR uni1EC0
ENCODING 7872
SWIDTH 496 0
DWIDTH 5 0
BBX 6 12 0 0
BITMAP
D20000
66CB00
077A40
000000
2FFFF0
2C0000
2C0000
2FFF90
2C0000
2C0000
2C0000
2FFFF1
ENDCHAR
STARTCHAR uni1EC1
ENCODING 7873
SWIDTH 468 0
DWIDTH 5 0
BBX 6 10 -1 0
BITMAP
2D0000
095E70
00B4C2
000000
009EC2
04A169
07FFFB
078000
04C122
009ED4
ENDCHAR
STARTCHAR uni1EC2
ENCODING 7874
SWIDTH 496 0
DWIDTH 5 0
BBX 6 13 0 0
BITMAP
000092
000084
01CBA1
085850
000000
2FFFF0
2C0000
2C0000
2FFF90
2C0000
2C0000
2C0000
2FFFF1
ENDCHAR
STARTCHAR uni1EC3
ENCODING 7875
SWIDTH 468 0
DWIDTH 5 0
BBX 6 11 0 0
BITMAP
000190
0000B1
04D9A0
0B2B20
000000
09EC20
4A1690
7FFFB0
780000
4C1220
09ED40
ENDCHAR
STARTCHAR uni1EC4
ENCODING 7876
SWIDTH 496 0
DWIDTH 5 0
BBX 6 13 0 0
BITMAP
01C600
045B00
01CA00
075850
000000
2FFFF0
2C0000
2C0000
2FFF90
2C0000
2C0000
2C0000
2FFFF1
ENDCHAR
STARTCHAR uni1EC5
ENCODING 7877
SWIDTH 468 0
DWIDTH 5 0
BBX 5 11 0 0
BITMAP
049600
066800
03D700
0A2B20
000000
09EC20
4A1690
7FFFB0
780000
4C1220
09ED40
ENDCHAR
STARTCHAR uni1EC6
ENCODING 7878
SWIDTH 496 0
DWIDTH 5 0
BBX 6 14 0 -3
BITMAP
00B900
048A20
000000
2FFFF0
2C0000
2C0000
2FFF90
2C0000
2C0000
2C0000
2FFFF1
000000
009500
001000
ENDCHAR
STARTCHAR uni1EC7
ENCODING 7879
SWIDTH 468 0
DWIDTH 5 0
BBX 5 12 0 -3
BITMAP
02D500
075B00
000000
09EC20
4A1690
7FFFB0
780000
4C1220
09ED40
000000
00C200
001000
ENDCHAR
STARTCHAR uni1EC8
ENCODING 7880
SWIDTH 250 0
DWIDTH 3 0
BBX 3 12 0 0
BITMAP
0D20
0750
0C10
0000
2D00
2D00
2D00
2D00
2D00
2D00
2D00
2D00
ENDCHAR
STARTCHAR uni1EC9
ENCODING 7881
SWIDTH 234 0
DWIDTH 3 0
BBX 3 10 0 0
BITMAP
1D10
0940
1C00
0000
3B00
3B00
3B00
3B00
3B00
3B00
ENDCHAR
STARTCHAR uni1ECA
ENCODING 7882
SWIDTH 250 0
DWIDTH 3 0
BBX 2 11 0 -3
BITMAP
2D
2D
2D
2D
2D
2D
2D
2D
00
2C
01
ENDCHAR
STARTCHAR uni1ECB
ENCODING 7883
SWIDTH 229 0
DWIDTH 3 0
BBX 2 12 0 -3
BITMAP
01
3A
00
3B
3B
3B
3B
3B
3B
00
4A
01
ENDCHAR
STARTCHAR uni1ECC
ENCODING 7884
SWIDTH 600 0
DWIDTH 7 0
BBX 6 11 0 -3
BITMAP
04CEA1
0D4198
3B002C
5A001E
5A001E
3B002D
1E4198
04DEA1
000000
003B00
000100
ENDCHAR
STARTCHAR uni1ECD
ENCODING 7885
SWIDTH 501 0
DWIDTH 6 0
BBX 5 9 0 -3
BITMAP
08EC30
4C16B0
7800E0
7800E0
4C15B0
08EC30
000000
00B300
001000
ENDCHAR
STARTCHAR uni1ECE
ENCODING 7886
SWIDTH 600 0
DWIDTH 7 0
BBX 6 12 0 0
BITMAP
001D20
000840
000C10
000000
04CEA1
0D4198
3B002C
5A001E
5A001E
3B002D
1E4198
04DEA1
ENDCHAR
STARTCHAR uni1ECF
ENCODING 7887
SWIDTH 501 0
DWIDTH 6 0
BBX 5 10 0 0
BITMAP
009600
002A00
009400
000000
08EC30
4C16B0
7800E0
7800E0
4C15B0
08EC30
ENDCHAR
STARTCHAR uni1ED0
ENCODING 7888
SWIDTH 600 0
DWIDTH 7 0
BBX 7 12 0 0
BITMAP
00000D20
007E5900
02C4A000
00000000
04CEA100
0D419800
3B002C00
5A001E00
5A001E00
3B002D00
1E419800
04DEA100
ENDCHAR
STARTCHAR uni1ED1
ENCODING 7889
SWIDTH 501 0
DWIDTH 6 0
BBX 6 10 0 0
BITMAP
000078
03E8A1
0A5B20
000000
08EC30
4C16B0
7800E0
7800E0
4C15B0
08EC30
ENDCHAR
STARTCHAR uni1ED2
ENCODING 7890
SWIDTH 600 0
DWIDTH 7 0
BBX 6 12 0 0
BITMAP
780000
1A8E30
02B4A0
000000
04CEA1
0D4198
3B002C
5A001E
5A001E
3B002D
1E4198
04DEA1
ENDCHAR
STARTCHAR uni1ED3
ENCODING 7891
SWIDTH 501 0
DWIDTH 6 0
BBX 6 10 -1 0
BITMAP
1D0000
085E80
00A4B2
000000
008EC3
04C16B
07800E
07800E
04C15B
008EC3
ENDCHAR
STARTCHAR uni1ED4
ENCODING 7892
SWIDTH 600 0
DWIDTH 7 0
BBX 6 13 0 0
BITMAP
000046
00002A
009DA4
02A2A0
000000
04CEA1
0D4198
3B002C
5A001E
5A001E
3B002D
1E4198
04DEA1
ENDCHAR
STARTCHAR uni1ED5
ENCODING 7893
SWIDTH 501 0
DWIDTH 6 0
BBX 6 11 0 0
BITMAP
0001A0
0000B1
03D9A0
0A2A20
000000
08EC30
4C16B0
7800E0
7800E0
4C15B0
08EC30
ENDCHAR
STARTCHAR uni1ED6
ENCODING 7894
SWIDTH 600 0
DWIDTH 7 0
BBX 6 13 0 0
BITMAP
009550
006B30
007D30
02B3A0
000000
04CEA1
0D4198
3B002C
5A001E
5A001E
3B002D
1E4198
04DEA1
ENDCHAR
STARTCHAR uni1ED7
ENCODING 7895
SWIDTH 501 0
DWIDTH 6 0
BBX 5 11 0 0
BITMAP
04A600
056900
02D700
0A3A20
000000
08EC30
4C16B0
7800E0
7800E0
4C15B0
08EC30
ENDCHAR
STARTCHAR uni1ED8
ENCODING 7896
SWIDTH 600 0
DWIDTH 7 0
BBX 6 14 0 -3
BITMAP
005D10
00B570
000000
04CEA1
0D4198
3B002C
5A001E
5A001E
3B002D
1E4198
04DEA1
000000
003B00
000100
ENDCHAR
STARTCHAR uni1ED9
ENCODING 7897
SWIDTH 501 0
DWIDTH 6 0
BBX 5 12 0 -3
BITMAP
01D600
075B00
000000
08EC30
4C16B0
7800E0
7800E0
4C15B0
08EC30
000000
00B300
001000
ENDCHAR
STARTCHAR uni1EDA
ENCODING 7898
SWIDTH 592 0
DWIDTH 7 0
BBX 7 11 0 0
BITMAP
00099000
001B1000
00000240
04DE6870
1E41BD10
5A004900
78002C00
78002D00
5A004B00
1E41B600
04DE9000
ENDCHAR
STARTCHAR uni1EDB
ENCODING 7899
SWIDTH 502 0
DWIDTH 6 0
BBX 6 9 0 0
BITMAP
002E20
008500
000012
07EB57
3D16E3
6800D0
6800E0
3D16C0
07EC30
ENDCHAR
STARTCHAR uni1EDC
ENCODING 7900
SWIDTH 592 0
DWIDTH 7 0
BBX 7 11 0 0
BITMAP
02E20000
00680000
00000240
04DE6870
1E41BD10
5A004900
78002C00
78002D00
5A004B00
1E41B600
04DE9000
ENDCHAR
STARTCHAR uni1EDD
ENCODING 7901
SWIDTH 502 0
DWIDTH 6 0
BBX 6 9 0 0
BITMAP
099000
01C100
000012
07EB57
3D16E3
6800D0
6800E0
3D16C0
07EC30
ENDCHAR
STARTCHAR uni1EDE
ENCODING 7902
SWIDTH 592 0
DWIDTH 7 0
BBX 7 12 0 0
BITMAP
002D1000
00093000
001C0000
00000240
04DE6870
1E41BD10
5A004900
78002C00
78002D00
5A004B00
1E41B600
04DE9000
ENDCHAR
STARTCHAR uni1EDF
ENCODING 7903
SWIDTH 502 0
DWIDTH 6 0
BBX 6 10 0 0
BITMAP
009600
002A00
009400
000012
07EB57
3D16E3
6800D0
6800E0
3D16C0
07EC30
ENDCHAR
STARTCHAR uni1EE0
ENCODING 7904
SWIDTH 592 0
DWIDTH 7 0
BBX 7 11 0 0
BITMAP
01D4A000
056B7000
00000240
04DE6870
1E41BD10
5A004900
78002C00
78002D00
5A004B00
1E41B600
04DE9000
ENDCHAR
STARTCHAR uni1EE1
ENCODING 7905
SWIDTH 502 0
DWIDTH 6 0
BBX 6 9 0 0
BITMAP
08A650
0A5D10
000012
07EB57
3D16E3
6800D0
6800E0
3D16C0
07EC30
ENDCHAR
STARTCHAR uni1EE2
ENCODING 7906
SWIDTH 592 0
DWIDTH 7 0
BBX 7 12 0 -3
BITMAP
00000240
04DE6870
1E41BD10
5A004900
78002C00
78002D00
5A004B00
1E41B600
04DE9000
00000000
004A0000
00010000
ENDCHAR
STARTCHAR uni1EE3
ENCODING 7907
SWIDTH 502 0
DWIDTH 6 0
BBX 6 10 0 -3
BITMAP
000012
07EB57
3D16E3
6800D0
6800E0
3D16C0
07EC30
000000
00B300
001000
ENDCHAR
STARTCHAR uni1EE4
ENCODING 7908
SWIDTH 561 0
DWIDTH 6 0
BBX 6 10 0 -2
BITMAP
4A0078
4A0078
4A0078
4A0078
4A0078
4A0087
2E21C5
07EE90
000000
006800
ENDCHAR
STARTCHAR uni1EE5
ENCODING 7909
SWIDTH 483 0
DWIDTH 5 0
BBX 5 9 0 -3
BITMAP
5A0590
5A0590
5A0590
5A0590
3C1990
0BEB90
000000
02C000
001000
ENDCHAR
STARTCHAR uni1EE6
ENCODING 7910
SWIDTH 561 0
DWIDTH 6 0
BBX 6 12 0 0
BITMAP
004B00
000B10
003900
000000
4A0078
4A0078
4A0078
4A0078
4A0078
4A0087
2E21C5
07EE90
ENDCHAR
STARTCHAR uni1EE7
ENCODING 7911
SWIDTH 483 0
DWIDTH 5 0
BBX 5 10 0 0
BITMAP
00A500
003900
00A300
000000
5A0590
5A0590
5A0590
5A0590
3C1990
0BEB90
ENDCHAR
STARTCHAR uni1EE8
ENCODING 7912
SWIDTH 608 0
DWIDTH 7 0
BBX 8 11 0 0
BITMAP
00099000
001B1000
00000052
4A0078C1
4A007E80
4A007800
4A007800
4A007800
4B008700
1E32D400
06DE8000
ENDCHAR
STARTCHAR uni1EE9
ENCODING 7913
SWIDTH 549 0
DWIDTH 6 0
BBX 6 9 0 0
BITMAP
002E20
008500
000002
5A059B
5A05F8
5A0590
5A0590
3C1990
0BEB90
ENDCHAR
STARTCHAR uni1EEA
ENCODING 7914
SWIDTH 608 0
DWIDTH 7 0
BBX 8 11 0 0
BITMAP
02E20000
00680000
00000052
4A0078C1
4A007E80
4A007800
4A007800
4A007800
4B008700
1E32D400
06DE8000
ENDCHAR
STARTCHAR uni1EEB
ENCODING 7915
SWIDTH 549 0
DWIDTH 6 0
BBX 6 9 0 0
BITMAP
099000
01C100
000002
5A059B
5A05F8
5A0590
5A0590
3C1990
0BEB90
ENDCHAR
STARTCHAR uni1EEC
ENCODING 7916
SWIDTH 608 0
DWIDTH 7 0
BBX 8 12 0 0
BITMAP
002D1000
00093000
001C0000
00000052
4A0078C1
4A007E80
4A007800
4A007800
4A007800
4B008700
1E32D400
06DE8000
ENDCHAR
STARTCHAR uni1EED
ENCODING 7917
SWIDTH 549 0
DWIDTH 6 0
BBX 6 10 0 0
BITMAP
009600
002A00
009400
000002
5A059B
5A05F8
5A0590
5A0590
3C1990
0BEB90
ENDCHAR
STARTCHAR uni1EEE
ENCODING 7918
SWIDTH 608 0
DWIDTH 7 0
BBX 8 11 0 0
BITMAP
01D4A000
046B8000
00000052
4A0078C1
4A007E80
4A007800
4A007800
4A007800
4B008700
1E32D400
06DE8000
ENDCHAR
STARTCHAR uni1EEF
ENCODING 7919
SWIDTH 549 0
DWIDTH 6 0
BBX 6 9 0 0
BITMAP
08A640
0A5D10
000002
5A059B
5A05F8
5A0590
5A0590
3C1990
0BEB90
ENDCHAR
STARTCHAR uni1EF0
ENCODING 7920
SWIDTH 608 0
DWIDTH 7 0
BBX 8 12 0 -3
BITMAP
00000052
4A0078C1
4A007E80
4A007800
4A007800
4A007800
4B008700
1E32D400
06DE8000
00000000
004A0000
00010000
ENDCHAR
STARTCHAR uni1EF1
ENCODING 7921
SWIDTH 549 0
DWIDTH 6 0
BBX 6 10 0 -3
BITMAP
000002
5A059B
5A05F8
5A0590
5A0590
3C1990
0BEB90
000000
00C200
001000
ENDCHAR
STARTCHAR Ygrave
ENCODING 7922
SWIDTH 524 0
DWIDTH 6 0
BBX 6 11 0 0
BITMAP
06B000
00A300
000000
9700B6
3D02D0
0B4870
04AD10
00D900
009600
009600
009600
ENDCHAR
STARTCHAR ygrave
ENCODING 7923
SWIDTH 416 0
DWIDTH 5 0
BBX 5 11 0 -2
BITMAP
1D4000
04A000
000000
A50C30
591D00
1D4900
0BA500
06F100
03B000
087000
8C1000
ENDCHAR
STARTCHAR uni1EF4
ENCODING 7924
SWIDTH 524 0
DWIDTH 6 0
BBX 6 11 0 -3
BITMAP
9700B6
3D02D0
0B4870
04AD10
00D900
009600
009600
009600
000000
009500
001000
ENDCHAR
STARTCHAR uni1EF5
ENCODING 7925
SWIDTH 416 0
DWIDTH 5 0
BBX 5 10 0 -4
BITMAP
A50C30
591D00
1D4900
0BA500
06F100
03B000
087000
8C1000
003B00
000100
ENDCHAR
STARTCHAR uni1EF6
ENCODING 7926
SWIDTH 524 0
DWIDTH 6 0
BBX 6 12 0 0
BITMAP
007800
001C00
006700
000000
9700B6
3D02D0
0B4870
04AD10
00D900
009600
009600
009600
ENDCHAR
STARTCHAR uni1EF7
ENCODING 7927
SWIDTH 416 0
DWIDTH 5 0
BBX 5 12 0 -2
BITMAP
00D200
007500
00C100
000000
A50C30
591D00
1D4900
0BA500
06F100
03B000
087000
8C1000
ENDCHAR
STARTCHAR uni1EF8
ENCODING 7928
SWIDTH 524 0
DWIDTH 6 0
BBX 6 11 0 0
BITMAP
05C470
0A3D30
000000
9700B6
3D02D0
0B4870
04AD10
00D900
009600
009600
009600
ENDCHAR
STARTCHAR uni1EF9
ENCODING 7929
SWIDTH 416 0
DWIDTH 5 0
BBX 5 11 0 -2
BITMAP
0C6A00
379900
000000
A50C30
591D00
1D4900
0BA500
06F100
03B000
087000
8C1000
ENDCHAR
STARTCHAR uni1F4D
ENCODING 8013
SWIDTH 634 0
DWIDTH 7 0
BBX 10 8 -3 0
BITMAP
1B681AEC30
09818914D0
0000D200C3
0000E100A5
0000E100A5
0000D200C3
00009914D0
00001AEC40
ENDCHAR
STARTCHAR uni2000
ENCODING 8192
SWIDTH 447 0
DWIDTH 5 0
BBX 1 1 0 0
BITMAP
00
ENDCHAR
STARTCHAR uni2001
ENCODING 8193
SWIDTH 876 0
DWIDTH 10 0
BBX 1 1 0 0
BITMAP
00
ENDCHAR
STARTCHAR uni2002
ENCODING 8194
SWIDTH 447 0
DWIDTH 5 0
BBX 1 1 0 0
BITMAP
00
ENDCHAR
STARTCHAR uni2003
ENCODING 8195
SWIDTH 876 0
DWIDTH 10 0
BBX 1 1 0 0
BITMAP
00
ENDCHAR
STARTCHAR uni2004
ENCODING 8196
SWIDTH 305 0
DWIDTH 3 0
BBX 1 1 0 0
BITMAP
00
ENDCHAR
STARTCHAR uni2005
ENCODING 8197
SWIDTH 233 0
DWIDTH 3 0
BBX 1 1 0 0
BITMAP
00
ENDCHAR
STARTCHAR uni2006
ENCODING 8198
SWIDTH 162 0
DWIDTH 2 0
BBX 1 1 0 0
BITMAP
00
ENDCHAR
STARTCHAR uni2007
ENCODING 8199
SWIDTH 491 0
DWIDTH 5 0
BBX 1 1 0 0
BITMAP
00
ENDCHAR
STARTCHAR uni2008
ENCODING 8200
SWIDTH 249 0
DWIDTH 3 0
BBX 1 1 0 0
BITMAP
00
ENDCHAR
STARTCHAR uni2009
ENCODING 8201
SWIDTH 190 0
DWIDTH 2 0
BBX 1 1 0 0
BITMAP
00
ENDCHAR
STARTCHAR uni200A
ENCODING 8202
SWIDTH 105 0
DWIDTH 1 0
BBX 1 1 0 0
BITMAP
00
ENDCHAR
STARTCHAR uni200B
ENCODING 8203
SWIDTH 0 0
DWIDTH 0 0
BBX 1 1 0 0
BITMAP
00
ENDCHAR
STARTCHAR uni2010
ENCODING 8208
SWIDTH 248 0
DWIDTH 3 0
BBX 3 1 0 3
BITMAP
BF70
ENDCHAR
STARTCHAR uni2011
ENCODING 8209
SWIDTH 248 0
DWIDTH 3 0
BBX 3 1 0 3
BITMAP
BF70
ENDCHAR
STARTCHAR endash
ENCODING 8211
SWIDTH 572 0
DWIDTH 6 0
BBX 6 1 0 3
BITMAP
2FFFF6
ENDCHAR
STARTCHAR emdash
ENCODING 8212
SWIDTH 678 0
DWIDTH 7 0
BBX 7 1 0 3
BITMAP
2FFFFFD0
ENDCHAR
STARTCHAR uni2015
ENCODING 8213
SWIDTH 678 0
DWIDTH 7 0
BBX 7 1 0 3
BITMAP
2FFFFFD0
ENDCHAR
STARTCHAR underscoredbl
ENCODING 8215
SWIDTH 402 0
DWIDTH 4 0
BBX 5 3 0 -3
BITMAP
DFFF40
000000
DFFF40
ENDCHAR
STARTCHAR quoteleft
ENCODING 8216
SWIDTH 194 0
DWIDTH 2 0
BBX 2 3 0 6
BITMAP
19
59
77
ENDCHAR
STARTCHAR quoteright
ENCODING 8217
SWIDTH 194 0
DWIDTH 2 0
BBX 2 3 0 6
BITMAP
4A
58
82
ENDCHAR
STARTCHAR quotesinglbase
ENCODING 8218
SWIDTH 194 0
DWIDTH 2 0
BBX 2 3 0 -2
BITMAP
59
67
82
ENDCHAR
STARTCHAR quotereversed
ENCODING 8219
SWIDTH 194 0
DWIDTH 2 0
BBX 2 3 0 5
BITMAP
86
67
19
ENDCHAR
STARTCHAR quotedblleft
ENCODING 8220
SWIDTH 333 0
DWIDTH 4 0
BBX 4 3 0 6
BITMAP
0A55
49B2
68D1
ENDCHAR
STARTCHAR quotedblright
ENCODING 8221
SWIDTH 337 0
DWIDTH 4 0
BBX 4 3 0 6
BITMAP
3BB3
49C2
74A0
ENDCHAR
STARTCHAR quotedblbase
ENCODING 8222
SWIDTH 326 0
DWIDTH 4 0
BBX 4 4 0 -2
BITMAP
2340
59D1
67D0
8480
ENDCHAR
STARTCHAR dagger
ENCODING 8224
SWIDTH 482 0
DWIDTH 5 0
BBX 5 8 0 0
BITMAP
00C200
00C200
8FFFD0
00C200
00C200
00C200
00C200
00C200
ENDCHAR
STARTCHAR daggerdbl
ENCODING 8225
SWIDTH 500 0
DWIDTH 6 0
BBX 5 10 0 -2
BITMAP
00B300
00B300
8FFFF0
00B300
00B300
00B300
00B300
8FFFF0
00B300
00B300
ENDCHAR
STARTCHAR bullet
ENCODING 8226
SWIDTH 336 0
DWIDTH 4 0
BBX 3 3 0 2
BITMAP
2EA0
3FD0
0420
ENDCHAR
STARTCHAR twodotenleader
ENCODING 8229
SWIDTH 420 0
DWIDTH 5 0
BBX 4 2 0 0
BITMAP
0101
2D2D
ENDCHAR
STARTCHAR ellipsis
ENCODING 8230
SWIDTH 590 0
DWIDTH 7 0
BBX 6 2 0 0
BITMAP
010101
2D2D3C
ENDCHAR
STARTCHAR uni2027
ENCODING 8231
SWIDTH 181 0
DWIDTH 2 0
BBX 2 1 0 3
BITMAP
66
ENDCHAR
STARTCHAR perthousand
ENCODING 8240
SWIDTH 818 0
DWIDTH 9 0
BBX 9 8 0 0
BITMAP
3E90000000
94B1810000
93B3900000
3EA9100000
0047BDAD20
00A395A480
045395A580
0000BDAE20
ENDCHAR
STARTCHAR minute
ENCODING 8242
SWIDTH 174 0
DWIDTH 2 0
BBX 2 2 0 6
BITMAP
75
74
ENDCHAR
STARTCHAR second
ENCODING 8243
SWIDTH 319 0
DWIDTH 4 0
BBX 3 3 0 5
BITMAP
47B0
47B0
4590
ENDCHAR
STARTCHAR guilsinglleft
ENCODING 8249
SWIDTH 271 0
DWIDTH 3 0
BBX 3 4 0 1
BITMAP
0650
2B00
2B00
0650
ENDCHAR
STARTCHAR guilsinglright
ENCODING 8250
SWIDTH 271 0
DWIDTH 3 0
BBX 3 4 0 1
BITMAP
3800
0A30
0A30
3800
ENDCHAR
STARTCHAR exclamdbl
ENCODING 8252
SWIDTH 491 0
DWIDTH 5 0
BBX 5 8 0 0
BITMAP
2D0780
2D0680
2C0680
2C0680
1C0680
180450
010000
1C0580
ENDCHAR
STARTCHAR fraction
ENCODING 8260
SWIDTH 403 0
DWIDTH 4 0
BBX 4 6 0 1
BITMAP
0009
0046
00A0
0650
1A00
6300
ENDCHAR
STARTCHAR uni2074
ENCODING 8308
SWIDTH 329 0
DWIDTH 4 0
BBX 4 4 0 4
BITMAP
05C0
28C0
9FF4
00C0
ENDCHAR
STARTCHAR uni207F
ENCODING 8319
SWIDTH 374 0
DWIDTH 4 0
BBX 4 5 0 3
BITMAP
5BE3
5978
5858
5858
5858
ENDCHAR
STARTCHAR franc
ENCODING 8355
SWIDTH 480 0
DWIDTH 5 0
BBX 5 8 0 0
BITMAP
2FFFE0
2C0000
2C0000
2FFF70
2C0000
2C0000
FFF100
2C0000
ENDCHAR
STARTCHAR lira
ENCODING 8356
SWIDTH 510 0
DWIDTH 6 0
BBX 6 8 0 0
BITMAP
03DE60
0B62E0
0C2030
7FFB00
0C3000
7FFB00
0D2000
7FFFF4
ENDCHAR
STARTCHAR uni20A6
ENCODING 8358
SWIDTH 691 0
DWIDTH 8 0
BBX 8 8 0 0
BITMAP
0C900A50
0CE40A50
CFFFFFF6
0C3A4A50
CFFFFFF6
0C30CB50
0C305F50
0C300D50
ENDCHAR
STARTCHAR peseta
ENCODING 8359
SWIDTH 709 0
DWIDTH 8 0
BBX 8 8 0 0
BITMAP
3FFC1000
3C088B30
3C05FFF1
3C088B30
3FFC2B30
3C000B30
3C000B40
3C0007E1
ENDCHAR
STARTCHAR uni20A8
ENCODING 8360
SWIDTH 911 0
DWIDTH 10 0
BBX 10 8 0 0
BITMAP
2FFE800000
2C02D30000
2C00A5AEB1
2C02D6C184
2FFF81DA30
2C097016E4
2C02E59197
2C00A7BEC1
ENDCHAR
STARTCHAR uni20A9
ENCODING 8361
SWIDTH 634 0
DWIDTH 7 0
BBX 7 8 0 0
BITMAP
960F0780
682F2860
4A4D4A30
CFFFFFB0
0D777D00
CFFFFFB0
09E0E900
06B0C500
ENDCHAR
STARTCHAR uni20AA
ENCODING 8362
SWIDTH 669 0
DWIDTH 7 0
BBX 7 6 0 0
BITMAP
4FFE64A0
4A04C4A0
4A87E4A0
4A87E5A0
4A860890
4A8FFE30
ENDCHAR
STARTCHAR dong
ENCODING 8363
SWIDTH 510 0
DWIDTH 6 0
BBX 6 10 0 -2
BITMAP
005FF9
0004B0
0AEBB0
5B17B0
7704B0
7704B0
5B17B0
0AEAB0
000000
3FFFF0
ENDCHAR
STARTCHAR Euro
ENCODING 8364
SWIDTH 493 0
DWIDTH 5 0
BBX 5 8 0 0
BITMAP
01BEB0
089110
7FFF00
0A5000
7FFF00
096000
05C110
009EB0
ENDCHAR
STARTCHAR uni20B1
ENCODING 8369
SWIDTH 648 0
DWIDTH 7 0
BBX 7 8 0 0
BITMAP
0DFFB100
0D20A800
CFFFFFD0
0D201E00
CFFFFFD0
0D20AA20
0DFFC200
0D200000
ENDCHAR
STARTCHAR uni20B9
ENCODING 8377
SWIDTH 462 0
DWIDTH 5 0
BBX 5 8 0 0
BITMAP
9FFFA0
007B00
9FFFA0
007C00
AFD400
3D2000
06C000
00A900
ENDCHAR
STARTCHAR uni20BA
ENCODING 8378
SWIDTH 500 0
DWIDTH 6 0
BBX 5 8 0 0
BITMAP
096000
09B700
6EA100
6AB700
6EA1E0
6A61E0
096990
09FA10
ENDCHAR
STARTCHAR uni20BC
ENCODING 8380
SWIDTH 575 0
DWIDTH 6 0
BBX 6 6 0 0
BITMAP
005900
04EF80
1D7AB5
59594A
77592C
87592C
ENDCHAR
STARTCHAR uni20BD
ENCODING 8381
SWIDTH 583 0
DWIDTH 6 0
BBX 6 8 0 0
BITMAP
0CFFC3
0C206C
0C200E
0C205C
CFFFD3
0C2000
CFF900
0C2000
ENDCHAR
STARTCHAR uni2105
ENCODING 8453
SWIDTH 640 0
DWIDTH 7 0
BBX 7 8 0 0
BITMAP
1CC00000
47517200
47539000
1CC92000
0038BD20
00A49660
03639660
0000CD20
ENDCHAR
STARTCHAR uni2113
ENCODING 8467
SWIDTH 422 0
DWIDTH 5 0
BBX 5 9 0 0
BITMAP
02DB00
078D20
086E10
08AC00
09F400
6E8000
077000
04B000
00A500
ENDCHAR
STARTCHAR uni2116
ENCODING 8470
SWIDTH 886 0
DWIDTH 10 0
BBX 10 8 0 0
BITMAP
3F10958E90
3F7095D2C1
3CC095D1C1
3B84958E90
3B2A950000
3B0BB5DFF0
3B05F50000
3B00E50000
ENDCHAR
STARTCHAR trademark
ENCODING 8482
SWIDTH 547 0
DWIDTH 6 0
BBX 5 3 0 5
BITMAP
7FA5A0
0757B0
075780
ENDCHAR
STARTCHAR Omega
ENCODING 8486
SWIDTH 581 0
DWIDTH 6 0
BBX 6 8 0 0
BITMAP
04DE70
1E42D4
5B0079
69005A
59005A
2B0077
0A20B1
5FD9FA
ENDCHAR
STARTCHAR estimated
ENCODING 8494
SWIDTH 636 0
DWIDTH 7 0
BBX 7 6 0 0
BITMAP
01AEB200
0B714B00
2F300E20
2FFFFF40
0C511200
01BEC500
ENDCHAR
STARTCHAR oneeighth
ENCODING 8539
SWIDTH 666 0
DWIDTH 7 0
BBX 7 8 0 0
BITMAP
19300000
7E309000
09347000
093A0000
00659E60
01A0AB60
0630C890
0000AE60
ENDCHAR
STARTCHAR threeeighths
ENCODING 8540
SWIDTH 736 0
DWIDTH 8 0
BBX 8 8 0 0
BITMAP
2BD10000
08D10900
11A35500
4EC1A000
00074DE2
00291CC2
00722CA5
00001DE3
ENDCHAR
STARTCHAR fiveeighths
ENCODING 8541
SWIDTH 736 0
DWIDTH 8 0
BBX 8 8 0 0
BITMAP
3FF00000
5ED11800
13B38300
3EC29000
00093DE2
00371CC2
00813CB4
00001DE3
ENDCHAR
STARTCHAR seveneighths
ENCODING 8542
SWIDTH 692 0
DWIDTH 8 0
BBX 7 8 0 0
BITMAP
8FF40000
00A06300
0471A000
0B183000
00295EB0
00915CB0
027079C0
00005EB0
ENDCHAR
STARTCHAR partialdiff
ENCODING 8706
SWIDTH 497 0
DWIDTH 5 0
BBX 5 8 0 0
BITMAP
0CFA00
021C60
0004B0
09EAD0
4C14E0
6801D0
3C1690
08EC10
ENDCHAR
STARTCHAR Delta
ENCODING 8710
SWIDTH 614 0
DWIDTH 7 0
BBX 7 8 0 0
BITMAP
003F1000
008E5000
00D5A000
03B0D000
0860A500
0D105900
4A001D00
9FFFFF40
ENDCHAR
STARTCHAR product
ENCODING 8719
SWIDTH 614 0
DWIDTH 7 0
BBX 6 9 0 -1
BITMAP
2FFFFE
2C001E
2C001E
2C001E
2C001E
2C001E
2C001E
2C001E
2C001E
ENDCHAR
STARTCHAR summation
ENCODING 8721
SWIDTH 513 0
DWIDTH 6 0
BBX 6 9 0 -1
BITMAP
8FFFF2
3C1000
06A000
009700
001E10
009700
05A000
3C1000
8FFFF8
ENDCHAR
STARTCHAR minus
ENCODING 8722
SWIDTH 499 0
DWIDTH 6 0
BBX 5 1 0 3
BITMAP
2FFFA0
ENDCHAR
STARTCHAR radical
ENCODING 8730
SWIDTH 536 0
DWIDTH 6 0
BBX 6 8 0 0
BITMAP
000077
0000C2
0002C0
000680
9F2B30
088D00
03F900
00C400
ENDCHAR
STARTCHAR infinity
ENCODING 8734
SWIDTH 874 0
DWIDTH 10 0
BBX 9 6 0 0
BITMAP
07EB15EC20
3D17AD26B0
7800D600E0
7800D600E0
3D17AD26B0
07EB15EC20
ENDCHAR
STARTCHAR integral
ENCODING 8747
SWIDTH 235 0
DWIDTH 3 0
BBX 5 11 -1 -2
BITMAP
009E10
01E100
02C000
02C000
02C000
02C000
02C000
02C000
02C000
04C000
2E6000
ENDCHAR
STARTCHAR approxequal
ENCODING 8776
SWIDTH 492 0
DWIDTH 5 0
BBX 5 4 0 1
BITMAP
3EA250
426E80
3EA250
425E80
ENDCHAR
STARTCHAR notequal
ENCODING 8800
SWIDTH 479 0
DWIDTH 5 0
BBX 5 7 0 0
BITMAP
000210
000910
3FFF80
008100
3FFF80
091000
010000
ENDCHAR
STARTCHAR lessequal
ENCODING 8804
SWIDTH 445 0
DWIDTH 5 0
BBX 5 6 0 0
BITMAP
003A10
2AB400
7C3000
03AB10
000310
9FFF20
ENDCHAR
STARTCHAR greaterequal
ENCODING 8805
SWIDTH 460 0
DWIDTH 5 0
BBX 5 6 0 0
BITMAP
492000
04BA20
004C70
2CA200
220000
4FFF80
ENDCHAR
STARTCHAR lozenge
ENCODING 9674
SWIDTH 442 0
DWIDTH 5 0
BBX 5 8 0 0
BITMAP
02E100
09B700
1C1D00
770960
770960
1D1D00
09B700
02E100
ENDCHAR
STARTCHAR uniEE01
ENCODING 60929
SWIDTH 271 0
DWIDTH 3 0
BBX 2 7 1 1
BITMAP
10
D1
00
00
00
10
D1
ENDCHAR
STARTCHAR uniEE02
ENCODING 60930
SWIDTH 298 0
DWIDTH 3 0
BBX 3 2 0 4
BITMAP
64B0
64B0
ENDCHAR
STARTCHAR uniF6C3
ENCODING 63171
SWIDTH 235 0
DWIDTH 3 0
BBX 2 2 0 -1
BITMAP
3A
55
ENDCHAR
STARTCHAR uniFB01
ENCODING 64257
SWIDTH 489 0
DWIDTH 5 0
BBX 5 9 0 0
BITMAP
05ED10
0D2200
0E0000
CFD690
0E0690
0E0690
0E0690
0E0690
0E0690
ENDCHAR
STARTCHAR uniFB02
ENCODING 64258
SWIDTH 503 0
DWIDTH 6 0
BBX 5 9 0 0
BITMAP
04EE80
0B44B0
0D13B0
9FF4B0
0D13B0
0D13B0
0D13B0
0D13B0
0D13B0
ENDCHAR
STARTCHAR uniFB03
ENCODING 64259
SWIDTH 744 0
DWIDTH 8 0
BBX 8 9 0 0
BITMAP
04E58EB0
0C42D120
0D13B000
9FFFFA96
0D13B096
0D13B096
0D13B096
0D13B096
0D13B096
ENDCHAR
STARTCHAR uniFB04
ENCODING 64260
SWIDTH 744 0
DWIDTH 8 0
BBX 8 9 0 0
BITMAP
04E59ED4
0C42D196
0D13B096
9FFFFB96
0D13B096
0D13B096
0D13B096
0D13B096
0D13B096
ENDCHAR
STARTCHAR uniFEFF
ENCODING 65279
SWIDTH 0 0
DWIDTH 0 0
BBX 1 1 0 0
BITMAP
00
ENDCHAR
STARTCHAR uniFFFC
ENCODING 65532
SWIDTH 1024 0
DWIDTH 11 0
BBX 11 10 0 -2
BITMAP
8F5F5F7E9CE0
810000000090
000000000000
810000000090
00BE6FB00800
8293AFC32890
00BE6FD3E500
810000000090
000000000000
8F5F5F7E9CE0
ENDCHAR
STARTCHAR uniFFFD
ENCODING 65533
SWIDTH 1025 0
DWIDTH 11 0
BBX 11 11 0 -2
BITMAP
00001B300000
0000BFD20000
000AFFFD2000
009F714EC100
09FF6D2BFC10
4FFFFC2EFF80
09FFF1BFFC10
00AFFFFFC100
000AF0ED2000
0000BFD20000
00001B300000
ENDCHAR
STARTCHAR .notdef
ENCODING -1
SWIDTH 392 0
DWIDTH 4 0
BBX 4 8 0 0
BITMAP
6FFB
4104
4224
4254
4254
4224
4104
6FFB
ENDCHAR
STARTCHAR glyph369
ENCODING -1
SWIDTH 364 0
DWIDTH 4 0
BBX 4 2 0 6
BITMAP
58A4
1890
ENDCHAR
STARTCHAR uni2009.locl
ENCODING -1
SWIDTH 124 0
DWIDTH 1 0
BBX 1 1 0 0
BITMAP
00
ENDCHAR
STARTCHAR f_f.dlig
ENCODING -1
SWIDTH 546 0
DWIDTH 6 0
BBX 6 9 0 0
BITMAP
04E5AD
0C44C0
0D1590
9FFFF9
0D1590
0D1590
0D1590
0D1590
0D1590
ENDCHAR
STARTCHAR longs_t.dlig
ENCODING -1
SWIDTH 544 0
DWIDTH 6 0
BBX 6 10 0 -1
BITMAP
05EC50
0C4690
0D1590
9F4FF8
0D1590
0D1590
0D1590
0D15A0
0D12D7
010000
ENDCHAR
STARTCHAR s_t.dlig
ENCODING -1
SWIDTH 710 0
DWIDTH 8 0
BBX 8 9 0 0
BITMAP
0006EB10
000D2A60
000D0780
0AEF8FF6
4C184780
1CA30780
005D3780
5B1A6690
0AEC13E5
ENDCHAR
STARTCHAR two.dnom
ENCODING -1
SWIDTH 329 0
DWIDTH 4 0
BBX 4 4 0 0
BITMAP
4EC0
33C0
1A20
8FF3
ENDCHAR
STARTCHAR one.dnom
ENCODING -1
SWIDTH 329 0
DWIDTH 4 0
BBX 3 4 0 0
BITMAP
1850
5D60
0660
0660
ENDCHAR
STARTCHAR zero.dnom
ENCODING -1
SWIDTH 329 0
DWIDTH 4 0
BBX 4 4 0 0
BITMAP
3EB0
85B2
85B2
3EB0
ENDCHAR
STARTCHAR nine.c2sc
ENCODING -1
SWIDTH 447 0
DWIDTH 5 0
BBX 5 6 0 0
BITMAP
1BE800
691D20
791C40
1CED30
004D10
0AC400
ENDCHAR
STARTCHAR eight.c2sc
ENCODING -1
SWIDTH 447 0
DWIDTH 5 0
BBX 5 6 0 0
BITMAP
1CFB10
4C2D20
0CFB00
4B1B30
6B1B40
1BEA00
ENDCHAR
STARTCHAR seven.c2sc
ENCODING -1
SWIDTH 447 0
DWIDTH 5 0
BBX 5 6 0 0
BITMAP
9FFF70
000B20
003A00
00B300
03B000
0A5000
ENDCHAR
STARTCHAR six.c2sc
ENCODING -1
SWIDTH 447 0
DWIDTH 5 0
BBX 5 6 0 0
BITMAP
05D800
1D3000
5DEC10
6B1A60
4C1A50
09EB00
ENDCHAR
STARTCHAR five.c2sc
ENCODING -1
SWIDTH 447 0
DWIDTH 5 0
BBX 5 6 0 0
BITMAP
0EFF40
0D0000
2EEC10
000A60
3A1A60
09EB10
ENDCHAR
STARTCHAR four.c2sc
ENCODING -1
SWIDTH 447 0
DWIDTH 5 0
BBX 5 6 0 0
BITMAP
006D00
01DD00
0A5D00
491D00
AFFF90
001D00
ENDCHAR
STARTCHAR three.c2sc
ENCODING -1
SWIDTH 447 0
DWIDTH 5 0
BBX 5 6 0 0
BITMAP
1CEA00
582D20
05FB00
001C30
681C30
2CE900
ENDCHAR
STARTCHAR two.c2sc
ENCODING -1
SWIDTH 447 0
DWIDTH 5 0
BBX 5 6 0 0
BITMAP
1BEA00
791C30
001D10
01B600
1B5000
7FFF80
ENDCHAR
STARTCHAR one.c2sc
ENCODING -1
SWIDTH 447 0
DWIDTH 5 0
BBX 4 6 0 0
BITMAP
05B3
3BD3
00C3
00C3
00C3
00C3
ENDCHAR
STARTCHAR zero.c2sc
ENCODING -1
SWIDTH 447 0
DWIDTH 5 0
BBX 5 6 0 0
BITMAP
0AE900
4B1C30
770950
770950
4B1C30
0AE900
ENDCHAR
STARTCHAR Z.c2sc
ENCODING -1
SWIDTH 454 0
DWIDTH 5 0
BBX 5 6 0 0
BITMAP
8FFF70
001C10
00A400
069000
2C1000
9FFF90
ENDCHAR
STARTCHAR Y.c2sc
ENCODING -1
SWIDTH 458 0
DWIDTH 5 0
BBX 5 6 0 0
BITMAP
970690
2D0D20
09AA00
02F200
00E000
00E000
ENDCHAR
STARTCHAR X.c2sc
ENCODING -1
SWIDTH 478 0
DWIDTH 5 0
BBX 5 6 0 0
BITMAP
6A07A0
0C4D20
03F700
04E800
0C4D20
6A06B0
ENDCHAR
STARTCHAR W.c2sc
ENCODING -1
SWIDTH 655 0
DWIDTH 7 0
BBX 7 6 0 0
BITMAP
850D31D0
582E6490
2B57A760
0C92BA30
0AC09D00
07A06B00
ENDCHAR
STARTCHAR V.c2sc
ENCODING -1
SWIDTH 487 0
DWIDTH 5 0
BBX 6 6 0 0
BITMAP
A501E1
5A04A0
0D0950
094D00
04BA00
00E400
ENDCHAR
STARTCHAR U.c2sc
ENCODING -1
SWIDTH 488 0
DWIDTH 5 0
BBX 5 6 0 0
BITMAP
6802C0
6802C0
6802C0
6802C0
5B16A0
0AEC30
ENDCHAR
STARTCHAR T.c2sc
ENCODING -1
SWIDTH 456 0
DWIDTH 5 0
BBX 5 6 0 0
BITMAP
BFFFB0
00E000
00E000
00E000
00E000
00E000
ENDCHAR
STARTCHAR S.c2sc
ENCODING -1
SWIDTH 453 0
DWIDTH 5 0
BBX 5 6 0 0
BITMAP
1BEB10
5A1970
2DA510
125C50
790880
0AFC20
ENDCHAR
STARTCHAR R.c2sc
ENCODING -1
SWIDTH 465 0
DWIDTH 5 0
BBX 5 6 0 0
BITMAP
4FFC20
4A0790
4A0790
4FFD20
4A1D20
4A06A0
ENDCHAR
STARTCHAR Q.c2sc
ENCODING -1
SWIDTH 519 0
DWIDTH 6 0
BBX 6 7 0 -1
BITMAP
08ED40
4C14D0
7700C2
7700C2
4C14D0
08EF60
0002B0
ENDCHAR
STARTCHAR P.c2sc
ENCODING -1
SWIDTH 481 0
DWIDTH 5 0
BBX 5 6 0 0
BITMAP
4FFD40
4A04C0
4A04D0
4FFD40
4A0000
4A0000
ENDCHAR
STARTCHAR O.c2sc
ENCODING -1
SWIDTH 519 0
DWIDTH 6 0
BBX 6 6 0 0
BITMAP
07ED40
3D14D0
7800C2
6800C2
3D23D0
07ED40
ENDCHAR
STARTCHAR N.c2sc
ENCODING -1
SWIDTH 533 0
DWIDTH 6 0
BBX 6 6 0 0
BITMAP
4D10C2
4E80C2
4AB2C2
4A3AC2
4A09E2
4A02E2
ENDCHAR
STARTCHAR M.c2sc
ENCODING -1
SWIDTH 652 0
DWIDTH 7 0
BBX 7 6 0 0
BITMAP
4F200E70
4E704E70
4AC0A970
49A3C770
4A5D7770
4A0E2770
ENDCHAR
STARTCHAR L.c2sc
ENCODING -1
SWIDTH 411 0
DWIDTH 5 0
BBX 5 6 0 0
BITMAP
4A0000
4A0000
4A0000
4A0000
4A0000
4FFF40
ENDCHAR
STARTCHAR K.c2sc
ENCODING -1
SWIDTH 473 0
DWIDTH 5 0
BBX 5 6 0 0
BITMAP
4A0890
4A5C00
4CE200
4EB700
4A1D30
4A05C0
ENDCHAR
STARTCHAR J.c2sc
ENCODING -1
SWIDTH 419 0
DWIDTH 5 0
BBX 4 6 0 0
BITMAP
000E
000E
000E
000E
863D
3DE6
ENDCHAR
STARTCHAR I.c2sc
ENCODING -1
SWIDTH 221 0
DWIDTH 2 0
BBX 2 6 0 0
BITMAP
4B
4B
4B
4B
4B
4B
ENDCHAR
STARTCHAR H.c2sc
ENCODING -1
SWIDTH 533 0
DWIDTH 6 0
BBX 6 6 0 0
BITMAP
4A00C2
4A00C2
4FFFF2
4A00C2
4A00C2
4A00C2
ENDCHAR
STARTCHAR G.c2sc
ENCODING -1
SWIDTH 509 0
DWIDTH 6 0
BBX 5 6 0 0
BITMAP
08ED50
4C14B0
780000
782FF0
3D21E0
07EE80
ENDCHAR
STARTCHAR F.c2sc
ENCODING -1
SWIDTH 415 0
DWIDTH 5 0
BBX 5 6 0 0
BITMAP
4FFF40
4A0000
4FFE00
4A0000
4A0000
4A0000
ENDCHAR
STARTCHAR dollar.c2sc
ENCODING -1
SWIDTH 453 0
DWIDTH 5 0
BBX 5 10 0 -2
BITMAP
002000
00B000
1BFC10
5A1870
2DA400
016D50
780880
1BFC20
00B000
002000
ENDCHAR
STARTCHAR sterling.c2sc
ENCODING -1
SWIDTH 467 0
DWIDTH 5 0
BBX 5 6 0 0
BITMAP
06EC10
0D2970
0E0010
AFFC00
1D0000
5FFFB0
ENDCHAR
STARTCHAR yen.c2sc
ENCODING -1
SWIDTH 400 0
DWIDTH 4 0
BBX 5 6 0 0
BITMAP
850C10
085400
7FCD00
04A000
7FFD00
04A000
ENDCHAR
STARTCHAR Gamma.c2sc
ENCODING -1
SWIDTH 405 0
DWIDTH 4 0
BBX 5 6 0 0
BITMAP
4FFF30
4A0000
4A0000
4A0000
4A0000
4A0000
ENDCHAR
STARTCHAR Delta.c2sc
ENCODING -1
SWIDTH 487 0
DWIDTH 5 0
BBX 6 6 0 0
BITMAP
00E400
04BA00
094C00
0D0850
5904A0
AFFFE1
ENDCHAR
STARTCHAR Theta.c2sc
ENCODING -1
SWIDTH 519 0
DWIDTH 6 0
BBX 6 6 0 0
BITMAP
07ED40
3D14D0
7AFEC2
6800C2
3D23D0
07ED40
ENDCHAR
STARTCHAR Lambda.c2sc
ENCODING -1
SWIDTH 487 0
DWIDTH 5 0
BBX 6 6 0 0
BITMAP
00E400
04BA00
094D00
0D0950
5A04A0
A501E1
ENDCHAR
STARTCHAR Xi.c2sc
ENCODING -1
SWIDTH 389 0
DWIDTH 4 0
BBX 4 6 0 0
BITMAP
9FFE
0000
5FF9
0000
0000
9FFE
ENDCHAR
STARTCHAR Pi.c2sc
ENCODING -1
SWIDTH 525 0
DWIDTH 6 0
BBX 6 6 0 0
BITMAP
4FFFF1
4A00D1
4A00D1
4A00D1
4A00D1
4A00D1
ENDCHAR
STARTCHAR Sigma.c2sc
ENCODING -1
SWIDTH 435 0
DWIDTH 5 0
BBX 5 6 0 0
BITMAP
9FFF40
3C1000
08A000
08A000
3C1000
9FFF70
ENDCHAR
STARTCHAR Phi.c2sc
ENCODING -1
SWIDTH 587 0
DWIDTH 6 0
BBX 6 6 0 0
BITMAP
004B00
09EFC3
5A4B4C
5A4B4C
09EFC3
004B00
ENDCHAR
STARTCHAR Psi.c2sc
ENCODING -1
SWIDTH 560 0
DWIDTH 6 0
BBX 6 6 0 0
BITMAP
776859
776859
686868
2D79C4
07EE80
006800
ENDCHAR
STARTCHAR Omega.c2sc
ENCODING -1
SWIDTH 540 0
DWIDTH 6 0
BBX 6 6 0 0
BITMAP
07EE60
3D22D2
6900A4
4900A3
1C23B0
5FBCF5
ENDCHAR
STARTCHAR uni0402.c2sc
ENCODING -1
SWIDTH 596 0
DWIDTH 7 0
BBX 7 6 0 0
BITMAP
BFFF6000
02C00000
02EEE700
02D21E10
02C01E10
02C0E800
ENDCHAR
STARTCHAR uni0404.c2sc
ENCODING -1
SWIDTH 490 0
DWIDTH 5 0
BBX 5 6 0 0
BITMAP
08ED40
4A13D0
7FF600
780000
4D13C0
08ED40
ENDCHAR
STARTCHAR uni0409.c2sc
ENCODING -1
SWIDTH 782 0
DWIDTH 9 0
BBX 9 6 0 0
BITMAP
09FFF00000
0950E00000
0A40EFE800
0B30E01D20
1E10E01D10
A900EFE700
ENDCHAR
STARTCHAR uni040A.c2sc
ENCODING -1
SWIDTH 788 0
DWIDTH 9 0
BBX 9 6 0 0
BITMAP
4A00D10000
4A00D10000
4FFFFFE800
4A00D11D20
4A00D11D20
4A00DFE800
ENDCHAR
STARTCHAR uni040B.c2sc
ENCODING -1
SWIDTH 596 0
DWIDTH 7 0
BBX 7 6 0 0
BITMAP
BFFF6000
02C00000
02EDE700
02D22E10
02C00C20
02C00C20
ENDCHAR
STARTCHAR uni040F.c2sc
ENCODING -1
SWIDTH 524 0
DWIDTH 6 0
BBX 6 8 0 -2
BITMAP
4A00D1
4A00D1
4A00D1
4A00D1
4A00D1
4FFFF1
009600
009600
ENDCHAR
STARTCHAR uni0411.c2sc
ENCODING -1
SWIDTH 479 0
DWIDTH 5 0
BBX 5 6 0 0
BITMAP
4FFF40
4A0000
4FFD30
4A05B0
4A05B0
4FFD30
ENDCHAR
STARTCHAR uni0414.c2sc
ENCODING -1
SWIDTH 563 0
DWIDTH 6 0
BBX 6 8 0 -2
BITMAP
06FFF3
0780B3
0770B3
0950B3
1D10B3
AFFFFD
A4001D
A4001D
ENDCHAR
STARTCHAR uni0416.c2sc
ENCODING -1
SWIDTH 651 0
DWIDTH 7 0
BBX 7 6 0 0
BITMAP
5C0D1A70
0A7D5C00
03FFF600
098D6C00
1E1D1D30
8A0D17A0
ENDCHAR
STARTCHAR uni0417.c2sc
ENCODING -1
SWIDTH 466 0
DWIDTH 5 0
BBX 5 6 0 0
BITMAP
2CFC20
461A60
02FC00
000960
561970
2CEB10
ENDCHAR
STARTCHAR uni0418.c2sc
ENCODING -1
SWIDTH 537 0
DWIDTH 6 0
BBX 6 6 0 0
BITMAP
4A01E3
4A0AE3
4A3BB3
4AC2B3
4E80B3
4E10B3
ENDCHAR
STARTCHAR uni041A.c2sc
ENCODING -1
SWIDTH 473 0
DWIDTH 5 0
BBX 5 6 0 0
BITMAP
4A0B60
4A8800
4FE000
4AA700
4A2E10
4A08A0
ENDCHAR
STARTCHAR uni041B.c2sc
ENCODING -1
SWIDTH 521 0
DWIDTH 6 0
BBX 5 6 0 0
BITMAP
09FFF0
0A50E0
0A40E0
0B30E0
1D10E0
A900E0
ENDCHAR
STARTCHAR uni0423.c2sc
ENCODING -1
SWIDTH 454 0
DWIDTH 5 0
BBX 5 6 0 0
BITMAP
880790
2D0C30
0B5C00
05E700
02F100
0E7000
ENDCHAR
STARTCHAR uni0426.c2sc
ENCODING -1
SWIDTH 564 0
DWIDTH 6 0
BBX 6 8 0 -2
BITMAP
4A00D1
4A00D1
4A00D1
4A00D1
4A00D1
4FFFFD
00000D
00000C
ENDCHAR
STARTCHAR uni0427.c2sc
ENCODING -1
SWIDTH 487 0
DWIDTH 5 0
BBX 5 6 0 0
BITMAP
9504A0
9504A0
8816A0
2CEDA0
0004A0
0004A0
ENDCHAR
STARTCHAR uni0428.c2sc
ENCODING -1
SWIDTH 691 0
DWIDTH 8 0
BBX 7 6 0 0
BITMAP
4A0A41E0
4A0A41E0
4A0A41E0
4A0A41E0
4A0A41E0
4FFFFFE0
ENDCHAR
STARTCHAR uni0429.c2sc
ENCODING -1
SWIDTH 731 0
DWIDTH 8 0
BBX 8 8 0 -2
BITMAP
4A0A41E0
4A0A41E0
4A0A41E0
4A0A41E0
4A0A41E0
4FFFFFFB
0000003A
0000003A
ENDCHAR
STARTCHAR uni042A.c2sc
ENCODING -1
SWIDTH 559 0
DWIDTH 6 0
BBX 6 6 0 0
BITMAP
DF9000
069000
06FFC3
06906A
06907A
06FFC2
ENDCHAR
STARTCHAR uni042B.c2sc
ENCODING -1
SWIDTH 658 0
DWIDTH 7 0
BBX 7 6 0 0
BITMAP
4A000680
4A000680
4FFD3680
4A05B680
4A05B680
4FFD3680
ENDCHAR
STARTCHAR uni042C.c2sc
ENCODING -1
SWIDTH 475 0
DWIDTH 5 0
BBX 5 6 0 0
BITMAP
4A0000
4A0000
4FFD30
4A05B0
4A05B0
4FFD30
ENDCHAR
STARTCHAR uni042D.c2sc
ENCODING -1
SWIDTH 491 0
DWIDTH 5 0
BBX 5 6 0 0
BITMAP
1BEB10
791590
00FFD0
0002D0
791890
1BEB20
ENDCHAR
STARTCHAR uni042E.c2sc
ENCODING -1
SWIDTH 705 0
DWIDTH 8 0
BBX 8 6 0 0
BITMAP
4A08ED40
4A4D23D0
4FF800B3
4A5800B3
4A2D23D0
4A06ED40
ENDCHAR
STARTCHAR uni042F.c2sc
ENCODING -1
SWIDTH 499 0
DWIDTH 5 0
BBX 5 6 0 0
BITMAP
09EFC0
3C13C0
2C13C0
09FFC0
0A53C0
4B03C0
ENDCHAR
STARTCHAR uni0492.c2sc
ENCODING -1
SWIDTH 444 0
DWIDTH 5 0
BBX 5 6 0 0
BITMAP
0DFF90
0D1000
0D1000
DFF100
0D1000
0D1000
ENDCHAR
STARTCHAR uni0496.c2sc
ENCODING -1
SWIDTH 676 0
DWIDTH 7 0
BBX 8 8 0 -2
BITMAP
5C0D1A70
0A7D5C00
03FFF600
098D6C00
1E1D1D40
8A0D17F3
000000A3
00000083
ENDCHAR
STARTCHAR uni049A.c2sc
ENCODING -1
SWIDTH 492 0
DWIDTH 5 0
BBX 6 8 0 -2
BITMAP
4A0B60
4A8800
4FE000
4AA700
4A2E20
4A08F2
0000B2
0000B2
ENDCHAR
STARTCHAR uni049C.c2sc
ENCODING -1
SWIDTH 562 0
DWIDTH 6 0
BBX 6 6 0 0
BITMAP
4A20B6
4AB980
4FFE00
4ABA60
4A12E1
4A008A
ENDCHAR
STARTCHAR uni04A0.c2sc
ENCODING -1
SWIDTH 571 0
DWIDTH 6 0
BBX 6 6 0 0
BITMAP
BFB0A7
04B790
04FF10
04B980
04B1E2
04B07B
ENDCHAR
STARTCHAR uni04A8.c2sc
ENCODING -1
SWIDTH 625 0
DWIDTH 7 0
BBX 7 6 0 0
BITMAP
098AE700
4C4C1E10
77590C20
683A0D10
2D3A5C00
05DFFC30
ENDCHAR
STARTCHAR uni04B0.c2sc
ENCODING -1
SWIDTH 480 0
DWIDTH 5 0
BBX 5 6 0 0
BITMAP
970690
2D0D20
09AA00
02F200
0EFF00
00E000
ENDCHAR
STARTCHAR uni04B2.c2sc
ENCODING -1
SWIDTH 514 0
DWIDTH 6 0
BBX 6 8 0 -2
BITMAP
6A07A0
0C4D20
03F700
04E800
0C4D30
6A06F5
000085
000085
ENDCHAR
STARTCHAR uni04B4.c2sc
ENCODING -1
SWIDTH 695 0
DWIDTH 8 0
BBX 7 8 0 -2
BITMAP
BFFF6B30
02C00B30
02C00B30
02C00B30
02C00B30
02FFFFF0
000000D0
000000D0
ENDCHAR
STARTCHAR uni04B8.c2sc
ENCODING -1
SWIDTH 487 0
DWIDTH 5 0
BBX 5 6 0 0
BITMAP
9504A0
9534A0
88B6A0
2CFDA0
00B4A0
0014A0
ENDCHAR
STARTCHAR uni04BA.c2sc
ENCODING -1
SWIDTH 487 0
DWIDTH 5 0
BBX 5 6 0 0
BITMAP
4A0000
4A0000
4EEE50
4B13D0
4A00E0
4A00E0
ENDCHAR
STARTCHAR uni04BC.c2sc
ENCODING -1
SWIDTH 632 0
DWIDTH 7 0
BBX 7 6 0 0
BITMAP
004DE600
21D32D20
C6B00850
4EFFFF70
03D21200
007DE800
ENDCHAR
STARTCHAR uni04D8.c2sc
ENCODING -1
SWIDTH 527 0
DWIDTH 6 0
BBX 6 6 0 0
BITMAP
08ED40
0214E1
0000B4
7FFFF4
5A12C1
09ED50
ENDCHAR
STARTCHAR uni04E0.c2sc
ENCODING -1
SWIDTH 466 0
DWIDTH 5 0
BBX 5 6 0 0
BITMAP
6FFF50
008800
02FA10
000970
571970
2CEB10
ENDCHAR
STARTCHAR uni04E8.c2sc
ENCODING -1
SWIDTH 519 0
DWIDTH 6 0
BBX 6 6 0 0
BITMAP
07ED40
3B12C0
7FFFF2
6800D2
3D24D0
07ED40
ENDCHAR
STARTCHAR lira.c2sc
ENCODING -1
SWIDTH 467 0
DWIDTH 5 0
BBX 5 6 0 0
BITMAP
07ED40
0E2000
AFFC00
0E0000
AFFC00
5FFFB0
ENDCHAR
STARTCHAR Euro.c2sc
ENCODING -1
SWIDTH 433 0
DWIDTH 5 0
BBX 5 6 0 0
BITMAP
03DE40
0C5100
8FFD00
0E0000
8FFE00
08EE40
ENDCHAR
STARTCHAR uni2116.c2sc
ENCODING -1
SWIDTH 884 0
DWIDTH 10 0
BBX 10 6 0 0
BITMAP
4D10C28E80
4E80C3D2D1
4AB2C3D1D1
4A3AC28E80
4A09E20000
4A02E2CFB0
ENDCHAR
STARTCHAR uni20BD.c2sc
ENCODING -1
SWIDTH 512 0
DWIDTH 6 0
BBX 6 6 0 0
BITMAP
0DFEA0
0D11D3
BFFFA0
0D1000
BFF300
0D1000
ENDCHAR
STARTCHAR three.dnom
ENCODING -1
SWIDTH 329 0
DWIDTH 4 0
BBX 4 4 0 0
BITMAP
3CC0
0BC0
11C1
5EB0
ENDCHAR
STARTCHAR four.dnom
ENCODING -1
SWIDTH 329 0
DWIDTH 4 0
BBX 4 4 0 0
BITMAP
05C0
28C0
9FF4
00C0
ENDCHAR
STARTCHAR five.dnom
ENCODING -1
SWIDTH 329 0
DWIDTH 4 0
BBX 4 4 0 0
BITMAP
4FF0
5EC0
22B2
4EB0
ENDCHAR
STARTCHAR six.dnom
ENCODING -1
SWIDTH 329 0
DWIDTH 4 0
BBX 4 4 0 0
BITMAP
1B90
6ED1
76B3
3EC0
ENDCHAR
STARTCHAR seven.dnom
ENCODING -1
SWIDTH 329 0
DWIDTH 4 0
BBX 4 4 0 0
BITMAP
AFF2
00A0
0650
0C00
ENDCHAR
STARTCHAR eight.dnom
ENCODING -1
SWIDTH 329 0
DWIDTH 4 0
BBX 4 4 0 0
BITMAP
4EC0
4CC0
6AC1
4EC0
ENDCHAR
STARTCHAR nine.dnom
ENCODING -1
SWIDTH 329 0
DWIDTH 4 0
BBX 4 4 0 0
BITMAP
4EB0
7CE1
16D1
0D70
ENDCHAR
STARTCHAR glyph550
ENCODING -1
SWIDTH 404 0
DWIDTH 4 0
BBX 4 1 0 3
BITMAP
3FFB
ENDCHAR
STARTCHAR glyph551
ENCODING -1
SWIDTH 306 0
DWIDTH 3 0
BBX 3 4 0 6
BITMAP
03B0
0630
1E30
1E30
ENDCHAR
STARTCHAR E.c2sc
ENCODING -1
SWIDTH 428 0
DWIDTH 5 0
BBX 5 6 0 0
BITMAP
4FFF50
4A0000
4FFF00
4A0000
4A0000
4FFF50
ENDCHAR
STARTCHAR g.ss01
ENCODING -1
SWIDTH 463 0
DWIDTH 5 0
BBX 5 8 0 -2
BITMAP
1BFFD0
691B50
691B50
1DEA00
3A0000
3FFE60
B516B0
6DEB20
ENDCHAR
STARTCHAR alpha.ss02
ENCODING -1
SWIDTH 523 0
DWIDTH 6 0
BBX 6 6 0 0
BITMAP
09E9C1
3D19D0
6803B0
6803B0
4C19D0
09E9C1
ENDCHAR
STARTCHAR R.ss03
ENCODING -1
SWIDTH 577 0
DWIDTH 6 0
BBX 6 8 0 0
BITMAP
2FFEA0
2D01B6
2D0078
2D01B5
2FFFC0
2D01B5
2D0087
2D006A
ENDCHAR
STARTCHAR K.ss04
ENCODING -1
SWIDTH 560 0
DWIDTH 6 0
BBX 6 8 0 0
BITMAP
2D00A8
2D06C0
2D3E20
2FF900
2D2E20
2D08A0
2D01E3
2D006C
ENDCHAR
STARTCHAR k.ss04
ENCODING -1
SWIDTH 453 0
DWIDTH 5 0
BBX 5 9 0 0
BITMAP
4B0000
4B0000
4B0000
4B0C50
4B6A00
4FF200
4B7900
4B1E20
4B07A0
ENDCHAR
STARTCHAR K.ss05
ENCODING -1
SWIDTH 572 0
DWIDTH 6 0
BBX 6 8 0 0
BITMAP
2D00C6
2D08A0
2D4D10
2EE300
2ED500
2D3E20
2D06C0
2D0099
ENDCHAR
STARTCHAR k.ss05
ENCODING -1
SWIDTH 454 0
DWIDTH 5 0
BBX 5 9 0 0
BITMAP
4B0000
4B0000
4B0000
4B2D30
4BB700
4FB000
4CD100
4B6B00
4B0B60
ENDCHAR
STARTCHAR D.c2sc
ENCODING -1
SWIDTH 492 0
DWIDTH 5 0
BBX 5 6 0 0
BITMAP
4FEA10
4A1880
4A02C0
4A02C0
4A1890
4FEA10
ENDCHAR
STARTCHAR C.c2sc
ENCODING -1
SWIDTH 490 0
DWIDTH 5 0
BBX 5 6 0 0
BITMAP
08ED30
4C14C0
780050
780040
4C14C0
08ED30
ENDCHAR
STARTCHAR B.c2sc
ENCODING -1
SWIDTH 475 0
DWIDTH 5 0
BBX 5 6 0 0
BITMAP
4FFD30
4A0970
4FFE20
4A0790
4A0790
4FFD30
ENDCHAR
STARTCHAR A.c2sc
ENCODING -1
SWIDTH 501 0
DWIDTH 6 0
BBX 6 6 0 0
BITMAP
00C500
03DB00
086D10
0D1870
4FFFC0
A600D2
ENDCHAR
STARTCHAR glyph564
ENCODING -1
SWIDTH 236 0
DWIDTH 3 0
BBX 2 2 0 7
BITMAP
0A
2C
ENDCHAR
STARTCHAR glyph565
ENCODING -1
SWIDTH 402 0
DWIDTH 4 0
BBX 4 4 0 7
BITMAP
0A10
0430
4976
0CD1
ENDCHAR
STARTCHAR glyph566
ENCODING -1
SWIDTH 0 0
DWIDTH 0 0
BBX 3 2 -4 7
BITMAP
0830
7960
ENDCHAR
STARTCHAR glyph567
ENCODING -1
SWIDTH 455 0
DWIDTH 5 0
BBX 6 3 0 7
BITMAP
0000D2
07E590
2C4B00
ENDCHAR
STARTCHAR glyph568
ENCODING -1
SWIDTH 454 0
DWIDTH 5 0
BBX 5 3 -1 7
BITMAP
780000
1A8E30
02B4A0
ENDCHAR
STARTCHAR glyph569
ENCODING -1
SWIDTH 446 0
DWIDTH 5 0
BBX 5 4 0 7
BITMAP
000460
0002A0
09DA40
2A2A00
ENDCHAR
STARTCHAR glyph570
ENCODING -1
SWIDTH 453 0
DWIDTH 5 0
BBX 4 4 0 7
BITMAP
0955
06B3
07D2
2A3A
ENDCHAR
STARTCHAR uni0490.c2sc
ENCODING -1
SWIDTH 405 0
DWIDTH 4 0
BBX 5 8 0 0
BITMAP
000820
000C30
4FFF30
4A0000
4A0000
4A0000
4A0000
4A0000
ENDCHAR
STARTCHAR glyph572
ENCODING -1
SWIDTH 404 0
DWIDTH 4 0
BBX 4 4 0 7
BITMAP
00B0
0170
4976
0CD1
ENDCHAR
STARTCHAR glyph573
ENCODING -1
SWIDTH 404 0
DWIDTH 4 0
BBX 4 5 0 7
BITMAP
0290
02C0
0470
4884
0CC0
ENDCHAR
STARTCHAR zero.numr
ENCODING -1
SWIDTH 329 0
DWIDTH 4 0
BBX 4 4 0 4
BITMAP
3EB0
85B2
85B2
3EB0
ENDCHAR
STARTCHAR four.numr
ENCODING -1
SWIDTH 329 0
DWIDTH 4 0
BBX 4 4 0 4
BITMAP
05C0
28C0
9FF4
00C0
ENDCHAR
STARTCHAR five.numr
ENCODING -1
SWIDTH 329 0
DWIDTH 4 0
BBX 4 4 0 4
BITMAP
4FF0
5EC0
22B2
4EB0
ENDCHAR
STARTCHAR six.numr
ENCODING -1
SWIDTH 329 0
DWIDTH 4 0
BBX 4 4 0 4
BITMAP
1B90
6ED1
76B3
3EC0
ENDCHAR
STARTCHAR seven.numr
ENCODING -1
SWIDTH 329 0
DWIDTH 4 0
BBX 4 4 0 4
BITMAP
AFF2
00A0
0650
0C00
ENDCHAR
STARTCHAR eight.numr
ENCODING -1
SWIDTH 329 0
DWIDTH 4 0
BBX 4 4 0 4
BITMAP
4EC0
4CC0
6AC1
4EC0
ENDCHAR
STARTCHAR nine.numr
ENCODING -1
SWIDTH 329 0
DWIDTH 4 0
BBX 4 4 0 4
BITMAP
4EB0
7CE1
16D1
0D70
ENDCHAR
STARTCHAR C.ss06
ENCODING -1
SWIDTH 603 0
DWIDTH 7 0
BBX 6 8 0 0
BITMAP
02BEB2
0C717B
2D0009
4A0000
4B0000
2D0008
0B716C
01BEC2
ENDCHAR
STARTCHAR G.ss06
ENCODING -1
SWIDTH 618 0
DWIDTH 7 0
BBX 7 8 0 0
BITMAP
02BEC300
0C716C00
2D000600
4B000000
4B05FF10
2D000E10
0B813E10
01AED600
ENDCHAR
STARTCHAR D.ss06
ENCODING -1
SWIDTH 608 0
DWIDTH 7 0
BBX 6 8 0 0
BITMAP
2FFE70
2D02C6
2D004C
2D001F
2D001E
2D004C
2D03C6
2FFD70
ENDCHAR
STARTCHAR O.ss06
ENCODING -1
SWIDTH 643 0
DWIDTH 7 0
BBX 7 8 0 0
BITMAP
01BEB200
0B817C00
2E000D30
4B000A50
4B000950
2E000D30
0B817C00
01BEB200
ENDCHAR
STARTCHAR Q.ss06
ENCODING -1
SWIDTH 644 0
DWIDTH 7 0
BBX 7 10 0 -2
BITMAP
01BEB200
0B817C00
2D000D30
4B000A50
4B000950
2E000D30
0B817C00
01BFF300
00007B00
00000100
ENDCHAR
STARTCHAR one.oldstyle.pnum
ENCODING -1
SWIDTH 421 0
DWIDTH 5 0
BBX 4 6 0 0
BITMAP
04A6
2BA7
0087
0087
0087
0087
ENDCHAR
STARTCHAR two.oldstyle.pnum
ENCODING -1
SWIDTH 492 0
DWIDTH 5 0
BBX 5 6 0 0
BITMAP
07ED30
2D1790
120950
008900
089000
2FFFD0
ENDCHAR
STARTCHAR three.oldstyle.pnum
ENCODING -1
SWIDTH 474 0
DWIDTH 5 0
BBX 5 8 0 -2
BITMAP
8FFF80
001C10
00B400
03FA10
001B60
000680
312C40
7EE800
ENDCHAR
STARTCHAR four.oldstyle.pnum
ENCODING -1
SWIDTH 524 0
DWIDTH 6 0
BBX 6 8 0 -2
BITMAP
000B80
005D80
00C780
076680
2B0680
8FFFF7
000680
000680
ENDCHAR
STARTCHAR five.oldstyle.pnum
ENCODING -1
SWIDTH 483 0
DWIDTH 5 0
BBX 5 8 0 -2
BITMAP
0DFFC0
0D0000
1C0000
3EEC20
271890
0003B0
231980
2CEA10
ENDCHAR
STARTCHAR seven.oldstyle.pnum
ENCODING -1
SWIDTH 458 0
DWIDTH 5 0
BBX 5 8 0 -2
BITMAP
8FFFA0
000850
000D10
004900
00A400
01D000
077000
0C2000
ENDCHAR
STARTCHAR glyph592
ENCODING -1
SWIDTH 402 0
DWIDTH 4 0
BBX 4 5 0 7
BITMAP
0C54
16C1
0000
4885
0CC1
ENDCHAR
STARTCHAR glyph593
ENCODING -1
SWIDTH 183 0
DWIDTH 2 0
BBX 2 3 0 -2
BITMAP
87
87
87
ENDCHAR
STARTCHAR OE.c2sc
ENCODING -1
SWIDTH 714 0
DWIDTH 8 0
BBX 8 6 0 0
BITMAP
07EFFFF7
3D12C000
7802FFF2
6802C000
3D22C000
07EFFFF8
ENDCHAR
STARTCHAR nine.oldstyle.pnum
ENCODING -1
SWIDTH 520 0
DWIDTH 6 0
BBX 6 8 0 -2
BITMAP
06ED30
2D24C0
4B00D1
2E23E1
07EDF1
0002E0
021A90
0AEA10
ENDCHAR
STARTCHAR glyph596
ENCODING -1
SWIDTH 234 0
DWIDTH 3 0
BBX 3 3 -1 -2
BITMAP
02C0
04C0
2E60
ENDCHAR
STARTCHAR three.oldstyle
ENCODING -1
SWIDTH 494 0
DWIDTH 5 0
BBX 5 8 0 -2
BITMAP
4FFFB0
000C30
008600
01FC20
001890
0003B0
321A80
4DEA10
ENDCHAR
STARTCHAR five.oldstyle
ENCODING -1
SWIDTH 494 0
DWIDTH 5 0
BBX 5 8 0 -2
BITMAP
0CFFC0
0D0000
0C0000
2EED20
2717A0
0002C0
131890
2CEB10
ENDCHAR
STARTCHAR four.oldstyle
ENCODING -1
SWIDTH 494 0
DWIDTH 5 0
BBX 6 8 0 -2
BITMAP
000C70
006D70
01B870
094870
3A0870
AFFFF5
000870
000870
ENDCHAR
STARTCHAR two.oldstyle
ENCODING -1
SWIDTH 494 0
DWIDTH 5 0
BBX 5 6 0 0
BITMAP
07EC20
3C1880
120A40
009800
099000
3FFFC0
ENDCHAR
STARTCHAR seven.oldstyle
ENCODING -1
SWIDTH 494 0
DWIDTH 5 0
BBX 5 8 0 -2
BITMAP
5FFFD0
000590
000A30
001C00
007700
00C100
03B000
095000
ENDCHAR
STARTCHAR zero.oldstyle
ENCODING -1
SWIDTH 494 0
DWIDTH 5 0
BBX 5 6 0 0
BITMAP
09EC30
5B15C0
9500E0
9500E0
5B15C0
09EC30
ENDCHAR
STARTCHAR six.oldstyle
ENCODING -1
SWIDTH 494 0
DWIDTH 5 0
BBX 5 8 0 0
BITMAP
02BD00
0B7100
2C0000
4EED30
5D26A0
4A02C0
1D26A0
06EC20
ENDCHAR
STARTCHAR nine.oldstyle
ENCODING -1
SWIDTH 494 0
DWIDTH 5 0
BBX 5 8 0 -2
BITMAP
09EC20
4C16A0
7801D0
4C15E0
09ECD0
0004B0
022C60
0DE800
ENDCHAR
STARTCHAR eight.oldstyle
ENCODING -1
SWIDTH 494 0
DWIDTH 5 0
BBX 5 8 0 0
BITMAP
08EC20
2D1890
1D1780
09FE10
2C1780
5903B0
3C1790
08EC20
ENDCHAR
STARTCHAR one.oldstyle
ENCODING -1
SWIDTH 494 0
DWIDTH 5 0
BBX 3 6 1 0
BITMAP
28A0
A8C0
03C0
03C0
03C0
03C0
ENDCHAR
STARTCHAR glyph607
ENCODING -1
SWIDTH 237 0
DWIDTH 3 0
BBX 3 8 -1 -2
BITMAP
02C0
02C0
02C0
02C0
02C0
02C0
04C0
2E50
ENDCHAR
STARTCHAR glyph608
ENCODING -1
SWIDTH 238 0
DWIDTH 3 0
BBX 3 8 -1 -2
BITMAP
02C0
02C0
02C0
02C0
02C0
02C0
04C0
2E50
ENDCHAR
STARTCHAR glyph609
ENCODING -1
SWIDTH 235 0
DWIDTH 3 0
BBX 2 6 0 0
BITMAP
3B
3B
3B
3B
3B
3B
ENDCHAR
STARTCHAR glyph610
ENCODING -1
SWIDTH 235 0
DWIDTH 3 0
BBX 2 8 0 -2
BITMAP
3B
3B
3B
3B
3B
4D
A2
BA
ENDCHAR
STARTCHAR glyph611
ENCODING -1
SWIDTH 235 0
DWIDTH 3 0
BBX 2 6 0 0
BITMAP
3B
3B
3B
3B
3B
3B
ENDCHAR
STARTCHAR germandbls.sc
ENCODING -1
SWIDTH 475 0
DWIDTH 5 0
BBX 5 6 0 0
BITMAP
0AEA10
3C1E20
4A7700
4ACE50
4A17A0
4ADD40
ENDCHAR
STARTCHAR zero.oldstyle.pnum
ENCODING -1
SWIDTH 545 0
DWIDTH 6 0
BBX 6 6 0 0
BITMAP
06DD50
2E22D1
5A0094
5A0095
2D22D2
06EE60
ENDCHAR
STARTCHAR seven.pnum
ENCODING -1
SWIDTH 458 0
DWIDTH 5 0
BBX 5 8 0 0
BITMAP
9FFF80
000940
000C00
005900
00A300
01D000
068000
0C3000
ENDCHAR
STARTCHAR b.ss06
ENCODING -1
SWIDTH 493 0
DWIDTH 5 0
BBX 5 8 0 0
BITMAP
4A0000
4A0000
4CDD30
4D16B0
4A00E0
4A00E0
4D16B0
4BDD30
ENDCHAR
STARTCHAR c.ss06
ENCODING -1
SWIDTH 460 0
DWIDTH 5 0
BBX 5 6 0 0
BITMAP
08EC10
3C1780
780010
680000
3C1680
08EB10
ENDCHAR
STARTCHAR d.ss06
ENCODING -1
SWIDTH 503 0
DWIDTH 6 0
BBX 5 8 0 0
BITMAP
0002C0
0002C0
08EBC0
3D26C0
6802C0
7802C0
3D16C0
08EAC0
ENDCHAR
STARTCHAR g.ss06
ENCODING -1
SWIDTH 500 0
DWIDTH 6 0
BBX 5 8 0 -2
BITMAP
09EAC0
3D16C0
6802C0
7802C0
3D16C0
09ECC0
010790
0BEC20
ENDCHAR
STARTCHAR o.ss06
ENCODING -1
SWIDTH 508 0
DWIDTH 6 0
BBX 6 6 0 0
BITMAP
07EC20
3D26C0
7800E0
6800E1
3D25C0
07ED30
ENDCHAR
STARTCHAR p.ss06
ENCODING -1
SWIDTH 500 0
DWIDTH 6 0
BBX 5 8 0 -2
BITMAP
4CDD30
4C17B0
4A00E0
4A00E0
4C17B0
4DDD30
4A0000
4A0000
ENDCHAR
STARTCHAR q.ss06
ENCODING -1
SWIDTH 508 0
DWIDTH 6 0
BBX 5 8 0 -2
BITMAP
08EBC0
3D26C0
6802C0
6802C0
3D26C0
08ECC0
0002C0
0002C0
ENDCHAR
STARTCHAR e.ss07
ENCODING -1
SWIDTH 468 0
DWIDTH 5 0
BBX 5 6 0 0
BITMAP
07EC20
3B1790
7FFFB0
690000
3E3220
06ED40
ENDCHAR
STARTCHAR g.ss07
ENCODING -1
SWIDTH 492 0
DWIDTH 5 0
BBX 5 8 0 -2
BITMAP
09EAB0
4C17B0
7804B0
6804B0
3C17B0
09ECA0
010880
0AEB10
ENDCHAR
STARTCHAR one.pnum
ENCODING -1
SWIDTH 382 0
DWIDTH 4 0
BBX 4 8 0 0
BITMAP
16C1
78E1
00E1
00E1
00E1
00E1
00E1
00E1
ENDCHAR
STARTCHAR ampersand.c2sc
ENCODING -1
SWIDTH 526 0
DWIDTH 6 0
BBX 6 6 0 0
BITMAP
0AE700
0E3C00
09D410
2CB5C0
6A1CA0
2CEBC1
ENDCHAR
STARTCHAR Lslash.c2sc
ENCODING -1
SWIDTH 411 0
DWIDTH 5 0
BBX 5 6 0 0
BITMAP
4A0000
4A0000
5DA000
CC2000
4A0000
4FFF40
ENDCHAR
STARTCHAR AE.c2sc
ENCODING -1
SWIDTH 676 0
DWIDTH 7 0
BBX 7 6 0 0
BITMAP
003FFFC0
00AA8000
02C6FF80
0A669000
2FFF9000
9805FFF0
ENDCHAR
STARTCHAR Thorn.c2sc
ENCODING -1
SWIDTH 440 0
DWIDTH 5 0
BBX 5 6 0 0
BITMAP
4A0000
4FFA00
4A0A60
4A1A60
4FFB10
4A0000
ENDCHAR
STARTCHAR Oslash.c2sc
ENCODING -1
SWIDTH 519 0
DWIDTH 6 0
BBX 6 8 0 -1
BITMAP
000010
07EDB0
3D29D0
7838C2
68A1C2
3E64D0
1DED40
110000
ENDCHAR
STARTCHAR Hbar.c2sc
ENCODING -1
SWIDTH 533 0
DWIDTH 6 0
BBX 6 6 0 0
BITMAP
4A00C2
BFFFF9
4A00C2
4FFFF2
4A00C2
4A00C2
ENDCHAR
STARTCHAR Eng.c2sc
ENCODING -1
SWIDTH 533 0
DWIDTH 6 0
BBX 6 8 0 -2
BITMAP
4D10C2
4E80C2
4AA2C2
4A29C2
4A08E2
4A01E2
0001D2
000CA0
ENDCHAR
STARTCHAR Dcroat.c2sc
ENCODING -1
SWIDTH 492 0
DWIDTH 5 0
BBX 6 6 -1 0
BITMAP
04FEA1
04A188
4FFA2C
04A02C
04A189
04FEA1
ENDCHAR
STARTCHAR Eth.c2sc
ENCODING -1
SWIDTH 492 0
DWIDTH 5 0
BBX 6 6 -1 0
BITMAP
04FEA1
04A188
4FFA2C
04A02C
04A189
04FEA1
ENDCHAR
STARTCHAR Tbar.c2sc
ENCODING -1
SWIDTH 456 0
DWIDTH 5 0
BBX 5 6 0 0
BITMAP
BFFFB0
00E000
0EFF00
00E000
00E000
00E000
ENDCHAR
STARTCHAR Agrave.c2sc
ENCODING -1
SWIDTH 501 0
DWIDTH 6 0
BBX 6 9 0 0
BITMAP
08A000
00B200
000000
00C500
03DB00
086D10
0D1870
4FFFC0
A600D2
ENDCHAR
STARTCHAR Aacute.c2sc
ENCODING -1
SWIDTH 501 0
DWIDTH 6 0
BBX 6 9 0 0
BITMAP
002E20
007600
000000
00C500
03DB00
086D10
0D1870
4FFFC0
A600D2
ENDCHAR
STARTCHAR Acircumflex.c2sc
ENCODING -1
SWIDTH 501 0
DWIDTH 6 0
BBX 6 9 0 0
BITMAP
01C700
056B10
000000
00C500
03DB00
086D10
0D1870
4FFFC0
A600D2
ENDCHAR
STARTCHAR Atilde.c2sc
ENCODING -1
SWIDTH 501 0
DWIDTH 6 0
BBX 6 9 0 0
BITMAP
07B650
0A4D10
000000
00C500
03DB00
086D10
0D1870
4FFFC0
A600D2
ENDCHAR
STARTCHAR Adieresis.c2sc
ENCODING -1
SWIDTH 501 0
DWIDTH 6 0
BBX 6 9 0 0
BITMAP
010000
0C2860
000000
00C500
03DB00
086D10
0D1870
4FFFC0
A600D2
ENDCHAR
STARTCHAR Aring.c2sc
ENCODING -1
SWIDTH 501 0
DWIDTH 6 0
BBX 6 9 0 0
BITMAP
039800
039800
000000
00C500
03DB00
086D10
0D1870
4FFFC0
A600D2
ENDCHAR
STARTCHAR Aringacute.c2sc
ENCODING -1
SWIDTH 501 0
DWIDTH 6 0
BBX 6 10 0 0
BITMAP
001C00
003600
00C600
00C600
00C500
03DB00
086D10
0D1870
4FFFC0
A600D2
ENDCHAR
STARTCHAR Ccedilla.c2sc
ENCODING -1
SWIDTH 490 0
DWIDTH 5 0
BBX 5 8 0 -2
BITMAP
08ED30
4C14C0
780050
780040
4C14C0
08ED30
005100
00A800
ENDCHAR
STARTCHAR Egrave.c2sc
ENCODING -1
SWIDTH 428 0
DWIDTH 5 0
BBX 5 9 0 0
BITMAP
0C6000
02B000
000000
4FFF50
4A0000
4FFF00
4A0000
4A0000
4FFF50
ENDCHAR
STARTCHAR Eacute.c2sc
ENCODING -1
SWIDTH 428 0
DWIDTH 5 0
BBX 5 9 0 0
BITMAP
005D10
00A300
000000
4FFF50
4A0000
4FFF00
4A0000
4A0000
4FFF50
ENDCHAR
STARTCHAR Ecircumflex.c2sc
ENCODING -1
SWIDTH 428 0
DWIDTH 5 0
BBX 5 9 0 0
BITMAP
03E300
094A00
000000
4FFF50
4A0000
4FFF00
4A0000
4A0000
4FFF50
ENDCHAR
STARTCHAR Edieresis.c2sc
ENCODING -1
SWIDTH 428 0
DWIDTH 5 0
BBX 5 9 0 0
BITMAP
010100
1C0B30
000000
4FFF50
4A0000
4FFF00
4A0000
4A0000
4FFF50
ENDCHAR
STARTCHAR Igrave.c2sc
ENCODING -1
SWIDTH 221 0
DWIDTH 2 0
BBX 3 9 -1 0
BITMAP
2E20
0670
0000
04B0
04B0
04B0
04B0
04B0
04B0
ENDCHAR
STARTCHAR Iacute.c2sc
ENCODING -1
SWIDTH 221 0
DWIDTH 2 0
BBX 3 9 0 0
BITMAP
0980
2B00
0000
4B00
4B00
4B00
4B00
4B00
4B00
ENDCHAR
STARTCHAR Icircumflex.c2sc
ENCODING -1
SWIDTH 221 0
DWIDTH 2 0
BBX 4 9 -1 0
BITMAP
07C1
1B66
0000
04B0
04B0
04B0
04B0
04B0
04B0
ENDCHAR
STARTCHAR Idieresis.c2sc
ENCODING -1
SWIDTH 221 0
DWIDTH 2 0
BBX 4 9 -1 0
BITMAP
0001
681C
0000
04B0
04B0
04B0
04B0
04B0
04B0
ENDCHAR
STARTCHAR Ntilde.c2sc
ENCODING -1
SWIDTH 533 0
DWIDTH 6 0
BBX 6 9 0 0
BITMAP
05C470
093D30
000000
4D10C2
4E80C2
4AB2C2
4A3AC2
4A09E2
4A02E2
ENDCHAR
STARTCHAR Ograve.c2sc
ENCODING -1
SWIDTH 519 0
DWIDTH 6 0
BBX 6 9 0 0
BITMAP
07B000
00B300
000000
07ED40
3D14D0
7800C2
6800C2
3D23D0
07ED40
ENDCHAR
STARTCHAR Oacute.c2sc
ENCODING -1
SWIDTH 519 0
DWIDTH 6 0
BBX 6 9 0 0
BITMAP
001D30
006700
000000
07ED40
3D14D0
7800C2
6800C2
3D23D0
07ED40
ENDCHAR
STARTCHAR Ocircumflex.c2sc
ENCODING -1
SWIDTH 519 0
DWIDTH 6 0
BBX 6 9 0 0
BITMAP
00B800
047A10
000000
07ED40
3D14D0
7800C2
6800C2
3D23D0
07ED40
ENDCHAR
STARTCHAR Otilde.c2sc
ENCODING -1
SWIDTH 519 0
DWIDTH 6 0
BBX 6 9 0 0
BITMAP
06C570
0A3D20
000000
07ED40
3D14D0
7800C2
6800C2
3D23D0
07ED40
ENDCHAR
STARTCHAR Odieresis.c2sc
ENCODING -1
SWIDTH 519 0
DWIDTH 6 0
BBX 6 9 0 0
BITMAP
010000
0B3670
000000
07ED40
3D14D0
7800C2
6800C2
3D23D0
07ED40
ENDCHAR
STARTCHAR Ugrave.c2sc
ENCODING -1
SWIDTH 488 0
DWIDTH 5 0
BBX 5 9 0 0
BITMAP
0A8000
01C100
000000
6802C0
6802C0
6802C0
6802C0
5B16A0
0AEC30
ENDCHAR
STARTCHAR Uacute.c2sc
ENCODING -1
SWIDTH 488 0
DWIDTH 5 0
BBX 5 9 0 0
BITMAP
003D10
009400
000000
6802C0
6802C0
6802C0
6802C0
5B16A0
0AEC30
ENDCHAR
STARTCHAR Ucircumflex.c2sc
ENCODING -1
SWIDTH 488 0
DWIDTH 5 0
BBX 5 9 0 0
BITMAP
01D500
075B00
000000
6802C0
6802C0
6802C0
6802C0
5B16A0
0AEC30
ENDCHAR
STARTCHAR Udieresis.c2sc
ENCODING -1
SWIDTH 488 0
DWIDTH 5 0
BBX 5 9 0 0
BITMAP
010100
0D1950
000000
6802C0
6802C0
6802C0
6802C0
5B16A0
0AEC30
ENDCHAR
STARTCHAR Yacute.c2sc
ENCODING -1
SWIDTH 458 0
DWIDTH 5 0
BBX 5 9 0 0
BITMAP
005C00
00B300
000000
970690
2D0D20
09AA00
02F200
00E000
00E000
ENDCHAR
STARTCHAR Amacron.c2sc
ENCODING -1
SWIDTH 501 0
DWIDTH 6 0
BBX 6 8 0 0
BITMAP
0CFF50
000000
00C500
03DB00
086D10
0D1870
4FFFC0
A600D2
ENDCHAR
STARTCHAR Abreve.c2sc
ENCODING -1
SWIDTH 501 0
DWIDTH 6 0
BBX 6 9 0 0
BITMAP
0C2950
05EB00
000000
00C500
03DB00
086D10
0D1870
4FFFC0
A600D2
ENDCHAR
STARTCHAR Aogonek.c2sc
ENCODING -1
SWIDTH 501 0
DWIDTH 6 0
BBX 6 8 0 -2
BITMAP
00C500
03DB00
086D10
0D1870
4FFFC0
A600D2
000380
0004E2
ENDCHAR
STARTCHAR Cacute.c2sc
ENCODING -1
SWIDTH 490 0
DWIDTH 5 0
BBX 5 9 0 0
BITMAP
002E20
008600
000000
08ED30
4C14C0
780050
780040
4C14C0
08ED30
ENDCHAR
STARTCHAR Ccircumflex.c2sc
ENCODING -1
SWIDTH 490 0
DWIDTH 5 0
BBX 5 9 0 0
BITMAP
01C700
066B10
000000
08ED30
4C14C0
780050
780040
4C14C0
08ED30
ENDCHAR
STARTCHAR Cdotaccent.c2sc
ENCODING -1
SWIDTH 490 0
DWIDTH 5 0
BBX 5 9 0 0
BITMAP
001000
00B300
000000
08ED30
4C14C0
780050
780040
4C14C0
08ED30
ENDCHAR
STARTCHAR Ccaron.c2sc
ENCODING -1
SWIDTH 490 0
DWIDTH 5 0
BBX 5 9 0 0
BITMAP
076B10
00C500
000000
08ED30
4C14C0
780050
780040
4C14C0
08ED30
ENDCHAR
STARTCHAR Dcaron.c2sc
ENCODING -1
SWIDTH 492 0
DWIDTH 5 0
BBX 5 9 0 0
BITMAP
0B5800
04D100
000000
4FEA10
4A1880
4A02C0
4A02C0
4A1890
4FEA10
ENDCHAR
STARTCHAR Emacron.c2sc
ENCODING -1
SWIDTH 428 0
DWIDTH 5 0
BBX 5 8 0 0
BITMAP
0FFF20
000000
4FFF50
4A0000
4FFF00
4A0000
4A0000
4FFF50
ENDCHAR
STARTCHAR Ebreve.c2sc
ENCODING -1
SWIDTH 428 0
DWIDTH 5 0
BBX 5 9 0 0
BITMAP
0D1C10
08E800
000000
4FFF50
4A0000
4FFF00
4A0000
4A0000
4FFF50
ENDCHAR
STARTCHAR Edotaccent.c2sc
ENCODING -1
SWIDTH 428 0
DWIDTH 5 0
BBX 5 9 0 0
BITMAP
001000
00D100
000000
4FFF50
4A0000
4FFF00
4A0000
4A0000
4FFF50
ENDCHAR
STARTCHAR Eogonek.c2sc
ENCODING -1
SWIDTH 428 0
DWIDTH 5 0
BBX 5 8 0 -2
BITMAP
4FFF50
4A0000
4FFF00
4A0000
4A0000
4FFF50
004800
005E20
ENDCHAR
STARTCHAR Ecaron.c2sc
ENCODING -1
SWIDTH 428 0
DWIDTH 5 0
BBX 5 9 0 0
BITMAP
0A4A00
02E200
000000
4FFF50
4A0000
4FFF00
4A0000
4A0000
4FFF50
ENDCHAR
STARTCHAR Gcircumflex.c2sc
ENCODING -1
SWIDTH 509 0
DWIDTH 6 0
BBX 5 9 0 0
BITMAP
01D600
066B00
000000
08ED50
4C14B0
780000
782FF0
3D21E0
07EE80
ENDCHAR
STARTCHAR Gbreve.c2sc
ENCODING -1
SWIDTH 509 0
DWIDTH 6 0
BBX 5 9 0 0
BITMAP
0C2A40
05EB00
000000
08ED50
4C14B0
780000
782FF0
3D21E0
07EE80
ENDCHAR
STARTCHAR Gdotaccent.c2sc
ENCODING -1
SWIDTH 509 0
DWIDTH 6 0
BBX 5 9 0 0
BITMAP
001000
00B300
000000
08ED50
4C14B0
780000
782FF0
3D21E0
07EE80
ENDCHAR
STARTCHAR uni0122.c2sc
ENCODING -1
SWIDTH 509 0
DWIDTH 6 0
BBX 5 9 0 -3
BITMAP
08ED50
4C14B0
780000
782FF0
3D21E0
07EE80
000000
00B200
00A000
ENDCHAR
STARTCHAR Hcircumflex.c2sc
ENCODING -1
SWIDTH 533 0
DWIDTH 6 0
BBX 6 9 0 0
BITMAP
00B800
047A10
000000
4A00C2
4A00C2
4FFFF2
4A00C2
4A00C2
4A00C2
ENDCHAR
STARTCHAR Itilde.c2sc
ENCODING -1
SWIDTH 221 0
DWIDTH 2 0
BBX 4 9 -1 0
BITMAP
2D4A
55B7
0000
04B0
04B0
04B0
04B0
04B0
04B0
ENDCHAR
STARTCHAR Imacron.c2sc
ENCODING -1
SWIDTH 221 0
DWIDTH 2 0
BBX 4 8 -1 0
BITMAP
5FFC
0000
04B0
04B0
04B0
04B0
04B0
04B0
ENDCHAR
STARTCHAR Ibreve.c2sc
ENCODING -1
SWIDTH 221 0
DWIDTH 2 0
BBX 4 9 -1 0
BITMAP
592B
0BE4
0000
04B0
04B0
04B0
04B0
04B0
04B0
ENDCHAR
STARTCHAR Iogonek.c2sc
ENCODING -1
SWIDTH 221 0
DWIDTH 2 0
BBX 2 8 0 -2
BITMAP
4B
4B
4B
4B
4B
4D
93
AA
ENDCHAR
STARTCHAR Idotaccent.c2sc
ENCODING -1
SWIDTH 221 0
DWIDTH 2 0
BBX 2 9 0 0
BITMAP
01
4A
00
4B
4B
4B
4B
4B
4B
ENDCHAR
STARTCHAR Jcircumflex.c2sc
ENCODING -1
SWIDTH 419 0
DWIDTH 5 0
BBX 5 9 0 0
BITMAP
004E20
00A580
000000
000E00
000E00
000E00
000E00
863D00
3DE600
ENDCHAR
STARTCHAR uni0136.c2sc
ENCODING -1
SWIDTH 473 0
DWIDTH 5 0
BBX 5 9 0 -3
BITMAP
4A0890
4A5C00
4CE200
4EB700
4A1D30
4A05C0
000000
00D000
028000
ENDCHAR
STARTCHAR Lacute.c2sc
ENCODING -1
SWIDTH 411 0
DWIDTH 5 0
BBX 5 9 0 0
BITMAP
0A8000
2B0000
000000
4A0000
4A0000
4A0000
4A0000
4A0000
4FFF40
ENDCHAR
STARTCHAR uni013B.c2sc
ENCODING -1
SWIDTH 411 0
DWIDTH 5 0
BBX 5 9 0 -3
BITMAP
4A0000
4A0000
4A0000
4A0000
4A0000
4FFF40
000000
00D000
028000
ENDCHAR
STARTCHAR Lcaron.c2sc
ENCODING -1
SWIDTH 411 0
DWIDTH 5 0
BBX 5 6 0 0
BITMAP
4A6700
4A8200
4A0000
4A0000
4A0000
4FFF40
ENDCHAR
STARTCHAR Ldot.c2sc
ENCODING -1
SWIDTH 411 0
DWIDTH 5 0
BBX 5 6 0 0
BITMAP
4A0000
4A1000
4A8600
4A0000
4A0000
4FFF40
ENDCHAR
STARTCHAR Nacute.c2sc
ENCODING -1
SWIDTH 533 0
DWIDTH 6 0
BBX 6 9 0 0
BITMAP
001D40
005800
000000
4D10C2
4E80C2
4AB2C2
4A3AC2
4A09E2
4A02E2
ENDCHAR
STARTCHAR uni0145.c2sc
ENCODING -1
SWIDTH 533 0
DWIDTH 6 0
BBX 6 9 0 -3
BITMAP
4D10C2
4E80C2
4AB2C2
4A3AC2
4A09E2
4A02E2
000000
009400
009100
ENDCHAR
STARTCHAR Ncaron.c2sc
ENCODING -1
SWIDTH 533 0
DWIDTH 6 0
BBX 6 9 0 0
BITMAP
048A20
00A700
000000
4D10C2
4E80C2
4AB2C2
4A3AC2
4A09E2
4A02E2
ENDCHAR
STARTCHAR Omacron.c2sc
ENCODING -1
SWIDTH 519 0
DWIDTH 6 0
BBX 6 8 0 0
BITMAP
0AFF70
000000
07ED40
3D14D0
7800C2
6800C2
3D23D0
07ED40
ENDCHAR
STARTCHAR Obreve.c2sc
ENCODING -1
SWIDTH 519 0
DWIDTH 6 0
BBX 6 9 0 0
BITMAP
0A4860
03EC10
000000
07ED40
3D14D0
7800C2
6800C2
3D23D0
07ED40
ENDCHAR
STARTCHAR Ohungarumlaut.c2sc
ENCODING -1
SWIDTH 519 0
DWIDTH 6 0
BBX 6 9 0 0
BITMAP
00C8B0
029A20
000000
07ED40
3D14D0
7800C2
6800C2
3D23D0
07ED40
ENDCHAR
STARTCHAR Racute.c2sc
ENCODING -1
SWIDTH 465 0
DWIDTH 5 0
BBX 5 9 0 0
BITMAP
006C00
00B200
000000
4FFC20
4A0790
4A0790
4FFD20
4A1D20
4A06A0
ENDCHAR
STARTCHAR uni0156.c2sc
ENCODING -1
SWIDTH 465 0
DWIDTH 5 0
BBX 5 9 0 -3
BITMAP
4FFC20
4A0790
4A0790
4FFD20
4A1D20
4A06A0
000000
00D000
028000
ENDCHAR
STARTCHAR Rcaron.c2sc
ENCODING -1
SWIDTH 465 0
DWIDTH 5 0
BBX 5 9 0 0
BITMAP
0A4A00
02D100
000000
4FFC20
4A0790
4A0790
4FFD20
4A1D20
4A06A0
ENDCHAR
STARTCHAR Sacute.c2sc
ENCODING -1
SWIDTH 453 0
DWIDTH 5 0
BBX 5 9 0 0
BITMAP
005D10
00A300
000000
1BEB10
5A1970
2DA510
125C50
790880
0AFC20
ENDCHAR
STARTCHAR Scircumflex.c2sc
ENCODING -1
SWIDTH 453 0
DWIDTH 5 0
BBX 5 9 0 0
BITMAP
02E400
094A00
000000
1BEB10
5A1970
2DA510
125C50
790880
0AFC20
ENDCHAR
STARTCHAR Scedilla.c2sc
ENCODING -1
SWIDTH 453 0
DWIDTH 5 0
BBX 5 8 0 -2
BITMAP
1BEB10
5A1970
2DA510
125C50
790880
0AFC20
007000
00C600
ENDCHAR
STARTCHAR Scaron.c2sc
ENCODING -1
SWIDTH 453 0
DWIDTH 5 0
BBX 5 9 0 0
BITMAP
094B00
01D200
000000
1BEB10
5A1970
2DA510
125C50
790880
0AFC20
ENDCHAR
STARTCHAR uni021A.c2sc
ENCODING -1
SWIDTH 456 0
DWIDTH 5 0
BBX 5 9 0 -3
BITMAP
BFFFB0
00E000
00E000
00E000
00E000
00E000
000000
00D000
028000
ENDCHAR
STARTCHAR Tcaron.c2sc
ENCODING -1
SWIDTH 456 0
DWIDTH 5 0
BBX 5 9 0 0
BITMAP
0A4A00
02E200
000000
BFFFB0
00E000
00E000
00E000
00E000
00E000
ENDCHAR
STARTCHAR uni0162.c2sc
ENCODING -1
SWIDTH 456 0
DWIDTH 5 0
BBX 5 8 0 -2
BITMAP
BFFFB0
00E000
00E000
00E000
00E000
00E000
007000
00D400
ENDCHAR
STARTCHAR Utilde.c2sc
ENCODING -1
SWIDTH 488 0
DWIDTH 5 0
BBX 5 9 0 0
BITMAP
099740
0A5D10
000000
6802C0
6802C0
6802C0
6802C0
5B16A0
0AEC30
ENDCHAR
STARTCHAR Umacron.c2sc
ENCODING -1
SWIDTH 488 0
DWIDTH 5 0
BBX 5 8 0 0
BITMAP
0DFF40
000000
6802C0
6802C0
6802C0
6802C0
5B16A0
0AEC30
ENDCHAR
STARTCHAR Ubreve.c2sc
ENCODING -1
SWIDTH 488 0
DWIDTH 5 0
BBX 5 9 0 0
BITMAP
0D1A30
06EA00
000000
6802C0
6802C0
6802C0
6802C0
5B16A0
0AEC30
ENDCHAR
STARTCHAR Uring.c2sc
ENCODING -1
SWIDTH 488 0
DWIDTH 5 0
BBX 5 9 0 0
BITMAP
049700
048800
000000
6802C0
6802C0
6802C0
6802C0
5B16A0
0AEC30
ENDCHAR
STARTCHAR Uhungarumlaut.c2sc
ENCODING -1
SWIDTH 488 0
DWIDTH 5 0
BBX 5 9 0 0
BITMAP
01D980
048B10
000000
6802C0
6802C0
6802C0
6802C0
5B16A0
0AEC30
ENDCHAR
STARTCHAR Uogonek.c2sc
ENCODING -1
SWIDTH 488 0
DWIDTH 5 0
BBX 5 8 0 -2
BITMAP
6802C0
6802C0
6802C0
6802C0
5B16A0
0AFD20
009300
008C00
ENDCHAR
STARTCHAR Wcircumflex.c2sc
ENCODING -1
SWIDTH 655 0
DWIDTH 7 0
BBX 7 9 0 0
BITMAP
002D5000
0075B000
00000000
850D31D0
582E6490
2B57A760
0C92BA30
0AC09D00
07A06B00
ENDCHAR
STARTCHAR Ycircumflex.c2sc
ENCODING -1
SWIDTH 458 0
DWIDTH 5 0
BBX 5 9 0 0
BITMAP
03E300
094900
000000
970690
2D0D20
09AA00
02F200
00E000
00E000
ENDCHAR
STARTCHAR Ydieresis.c2sc
ENCODING -1
SWIDTH 458 0
DWIDTH 5 0
BBX 5 9 0 0
BITMAP
010100
2C0C20
000000
970690
2D0D20
09AA00
02F200
00E000
00E000
ENDCHAR
STARTCHAR Zacute.c2sc
ENCODING -1
SWIDTH 454 0
DWIDTH 5 0
BBX 5 9 0 0
BITMAP
005C00
00B300
000000
8FFF70
001C10
00A400
069000
2C1000
9FFF90
ENDCHAR
STARTCHAR Zdotaccent.c2sc
ENCODING -1
SWIDTH 454 0
DWIDTH 5 0
BBX 5 9 0 0
BITMAP
001000
00D000
000000
8FFF70
001C10
00A400
069000
2C1000
9FFF90
ENDCHAR
STARTCHAR Zcaron.c2sc
ENCODING -1
SWIDTH 454 0
DWIDTH 5 0
BBX 5 9 0 0
BITMAP
0A4A00
02E200
000000
8FFF70
001C10
00A400
069000
2C1000
9FFF90
ENDCHAR
STARTCHAR two.pnum
ENCODING -1
SWIDTH 493 0
DWIDTH 5 0
BBX 5 8 0 0
BITMAP
09EC20
5B1890
3305A0
000A40
006A00
03C100
1C3000
6FFFF0
ENDCHAR
STARTCHAR three.pnum
ENCODING -1
SWIDTH 493 0
DWIDTH 5 0
BBX 5 8 0 0
BITMAP
08EC20
4C1880
230870
02FD10
000980
2304A0
4B1880
09EB10
ENDCHAR
STARTCHAR four.pnum
ENCODING -1
SWIDTH 493 0
DWIDTH 5 0
BBX 6 8 0 0
BITMAP
001E40
009E40
02BB40
0A3B40
3A0B40
9FFFF1
000B40
000B40
ENDCHAR
STARTCHAR five.pnum
ENCODING -1
SWIDTH 493 0
DWIDTH 5 0
BBX 5 8 0 0
BITMAP
0AFFB0
0C2000
0D1000
0EDD40
0415C0
0200E0
1D15C0
06ED30
ENDCHAR
STARTCHAR six.pnum
ENCODING -1
SWIDTH 503 0
DWIDTH 6 0
BBX 5 8 0 0
BITMAP
01AE10
099100
0E0000
2EDE40
3E34D0
2C00E0
0D34C0
04DD40
ENDCHAR
STARTCHAR eight.pnum
ENCODING -1
SWIDTH 513 0
DWIDTH 6 0
BBX 5 8 0 0
BITMAP
07ED30
1E26A0
0D2690
07FE10
1D26A0
4B01D0
2D25B0
07ED30
ENDCHAR
STARTCHAR nine.pnum
ENCODING -1
SWIDTH 503 0
DWIDTH 6 0
BBX 5 8 0 0
BITMAP
08EA00
2D1B60
680590
6804A0
3D1AA0
09EA80
003D30
08D500
ENDCHAR
STARTCHAR zero.pnum
ENCODING -1
SWIDTH 513 0
DWIDTH 6 0
BBX 5 8 0 0
BITMAP
06EC20
1E27A0
3B01D0
4A00E0
4A00E0
3B01D0
1E27A0
06EC20
ENDCHAR
STARTCHAR G_acutecomb.ccmp
ENCODING -1
SWIDTH 590 0
DWIDTH 7 0
BBX 6 11 0 0
BITMAP
000B70
003A00
000000
05DEA1
1E41A7
4B0036
5A0000
5A0AFB
3C004B
1E516B
04CEC3
ENDCHAR
STARTCHAR g_acutecomb.ccmp
ENCODING -1
SWIDTH 492 0
DWIDTH 5 0
BBX 5 11 0 -2
BITMAP
004D10
00A300
000000
0AEAB0
5C17B0
7704B0
7704B0
4B17B0
0AEBB0
020790
0BEC20
ENDCHAR
STARTCHAR N_gravecomb.ccmp
ENCODING -1
SWIDTH 619 0
DWIDTH 7 0
BBX 6 11 0 0
BITMAP
01D400
004A00
000000
2F200E
2F900E
2DC20E
2C590E
2C0C2E
2C05AE
2C00CE
2C004E
ENDCHAR
STARTCHAR n_gravecomb.ccmp
ENCODING -1
SWIDTH 483 0
DWIDTH 5 0
BBX 5 9 0 0
BITMAP
0A8000
01C100
000000
4CDD30
4D2880
4A0590
4A0590
4A0590
4A0590
ENDCHAR
STARTCHAR A_uni030F.ccmp
ENCODING -1
SWIDTH 576 0
DWIDTH 6 0
BBX 6 11 0 0
BITMAP
1D9900
03BB10
000000
006B00
00BD10
01C860
0583B0
0A40D1
0EFFF5
4A005A
96001E
ENDCHAR
STARTCHAR a_uni030F.ccmp
ENCODING -1
SWIDTH 479 0
DWIDTH 5 0
BBX 5 9 0 0
BITMAP
5BC200
0A8800
000000
0AEC20
251870
09EF80
4C1780
5B1A80
1CEB90
ENDCHAR
STARTCHAR E_uni030F.ccmp
ENCODING -1
SWIDTH 496 0
DWIDTH 5 0
BBX 6 11 0 0
BITMAP
3DB400
088A00
000000
2FFFF0
2C0000
2C0000
2FFF90
2C0000
2C0000
2C0000
2FFFF1
ENDCHAR
STARTCHAR e_uni030F.ccmp
ENCODING -1
SWIDTH 468 0
DWIDTH 5 0
BBX 5 9 0 0
BITMAP
7AD100
0B8700
000000
09EC20
4A1690
7FFFB0
780000
4C1220
09ED40
ENDCHAR
STARTCHAR I_uni030F.ccmp
ENCODING -1
SWIDTH 250 0
DWIDTH 3 0
BBX 4 11 -1 0
BITMAP
B9B0
2CA2
0000
02D0
02D0
02D0
02D0
02D0
02D0
02D0
02D0
ENDCHAR
STARTCHAR dotlessi_uni030F.ccmp
ENCODING -1
SWIDTH 234 0
DWIDTH 3 0
BBX 4 9 -1 0
BITMAP
C8A0
2BB1
0000
03B0
03B0
03B0
03B0
03B0
03B0
ENDCHAR
STARTCHAR O_uni030F.ccmp
ENCODING -1
SWIDTH 600 0
DWIDTH 7 0
BBX 6 11 0 0
BITMAP
0C8B00
02CB20
000000
04CEA1
0D4198
3B002C
5A001E
5A001E
3B002D
1E4198
04DEA1
ENDCHAR
STARTCHAR o_uni030F.ccmp
ENCODING -1
SWIDTH 501 0
DWIDTH 6 0
BBX 5 9 0 0
BITMAP
6BD200
0A8700
000000
08EC30
4C16B0
7800E0
7800E0
4C15B0
08EC30
ENDCHAR
STARTCHAR R_uni030F.ccmp
ENCODING -1
SWIDTH 530 0
DWIDTH 6 0
BBX 6 11 0 0
BITMAP
4CB400
088A00
000000
2FFE80
2C02D3
2C00A5
2C02D3
2FFF80
2C0970
2C02E1
2C00A7
ENDCHAR
STARTCHAR r_uni030F.ccmp
ENCODING -1
SWIDTH 304 0
DWIDTH 3 0
BBX 5 9 -1 0
BITMAP
3DA500
079A00
000000
04CE20
04D100
04A000
04A000
04A000
04A000
ENDCHAR
STARTCHAR U_uni030F.ccmp
ENCODING -1
SWIDTH 561 0
DWIDTH 6 0
BBX 6 11 0 0
BITMAP
1D9700
05AB00
000000
4A0078
4A0078
4A0078
4A0078
4A0078
4A0087
2E21C5
07EE90
ENDCHAR
STARTCHAR u_uni030F.ccmp
ENCODING -1
SWIDTH 483 0
DWIDTH 5 0
BBX 5 9 0 0
BITMAP
7AD100
0B8700
000000
5A0590
5A0590
5A0590
5A0590
3C1990
0BEB90
ENDCHAR
STARTCHAR Upsilon1_acutecomb.ccmp
ENCODING -1
SWIDTH 514 0
DWIDTH 6 0
BBX 8 9 -2 0
BITMAP
3B000000
366C0099
000B52D1
0005A780
0000DD20
00008B00
00006900
00006900
00006900
ENDCHAR
STARTCHAR B_dotbelowcomb.ccmp
ENCODING -1
SWIDTH 545 0
DWIDTH 6 0
BBX 6 11 0 -3
BITMAP
2FFE80
2C01D2
2C02D1
2FFF80
2C01D3
2C00A5
2C01D3
2FFE80
000000
009500
001000
ENDCHAR
STARTCHAR b_dotbelowcomb.ccmp
ENCODING -1
SWIDTH 493 0
DWIDTH 5 0
BBX 5 11 0 -3
BITMAP
4A0000
4A0000
4CDD40
4D15B0
4A01D0
4A01D0
4D15B0
4BDD30
000000
00A400
001000
ENDCHAR
STARTCHAR D_dotbelowcomb.ccmp
ENCODING -1
SWIDTH 570 0
DWIDTH 6 0
BBX 6 11 0 -3
BITMAP
2FFD50
2C03D3
2C0077
2C0069
2C0069
2C0077
2C03D3
2FFD50
000000
009500
001000
ENDCHAR
STARTCHAR d_dotbelowcomb.ccmp
ENCODING -1
SWIDTH 496 0
DWIDTH 5 0
BBX 5 11 0 -3
BITMAP
0004B0
0004B0
0AEBB0
5B17B0
7704B0
7704B0
5B17B0
0AEAB0
000000
009500
001000
ENDCHAR
STARTCHAR D_uniF6C3.ccmp
ENCODING -1
SWIDTH 570 0
DWIDTH 6 0
BBX 6 11 0 -3
BITMAP
2FFD50
2C03D3
2C0077
2C0069
2C0069
2C0077
2C03D3
2FFD50
000000
009400
009100
ENDCHAR
STARTCHAR d_uniF6C3.ccmp
ENCODING -1
SWIDTH 496 0
DWIDTH 5 0
BBX 5 11 0 -3
BITMAP
0004B0
0004B0
0AEBB0
5B17B0
7704B0
7704B0
5B17B0
0AEAB0
000000
009500
009100
ENDCHAR
STARTCHAR H_dotbelowcomb.ccmp
ENCODING -1
SWIDTH 620 0
DWIDTH 7 0
BBX 6 11 0 -3
BITMAP
2C000F
2C000F
2C000F
2FFFFF
2C000F
2C000F
2C000F
2C000F
000000
003B00
000100
ENDCHAR
STARTCHAR h_dotbelowcomb.ccmp
ENCODING -1
SWIDTH 482 0
DWIDTH 5 0
BBX 5 11 0 -3
BITMAP
4A0000
4A0000
4CDD30
4D2880
4A0590
4A0590
4A0590
4A0590
000000
00B300
001000
ENDCHAR
STARTCHAR K_acutecomb.ccmp
ENCODING -1
SWIDTH 544 0
DWIDTH 6 0
BBX 6 11 0 0
BITMAP
001D30
006700
000000
2C00B6
2C07A0
2C3D10
2DD600
2FAC00
2D0B60
2C02E1
2C008A
ENDCHAR
STARTCHAR k_acutecomb.ccmp
ENCODING -1
SWIDTH 450 0
DWIDTH 5 0
BBX 5 11 0 0
BITMAP
004D10
00A300
000000
4A0000
4A0000
4A0C40
4A8800
4CD000
4EC500
4A3D10
4A0880
ENDCHAR
STARTCHAR K_dotbelowcomb.ccmp
ENCODING -1
SWIDTH 544 0
DWIDTH 6 0
BBX 6 11 0 -3
BITMAP
2C00B6
2C07A0
2C3D10
2DD600
2FAC00
2D0B60
2C02E1
2C008A
000000
006800
000100
ENDCHAR
STARTCHAR k_dotbelowcomb.ccmp
ENCODING -1
SWIDTH 450 0
DWIDTH 5 0
BBX 5 11 0 -3
BITMAP
4A0000
4A0000
4A0C40
4A8800
4CD000
4EC500
4A3D10
4A0880
000000
01D000
001000
ENDCHAR
STARTCHAR L_dotbelowcomb.ccmp
ENCODING -1
SWIDTH 475 0
DWIDTH 5 0
BBX 5 11 0 -3
BITMAP
2C0000
2C0000
2C0000
2C0000
2C0000
2C0000
2C0000
2FFFE0
000000
009500
001000
ENDCHAR
STARTCHAR l_dotbelowcomb.ccmp
ENCODING -1
SWIDTH 229 0
DWIDTH 3 0
BBX 2 11 0 -3
BITMAP
3B
3B
3B
3B
3B
3B
3B
3B
00
4A
01
ENDCHAR
STARTCHAR M_dotbelowcomb.ccmp
ENCODING -1
SWIDTH 755 0
DWIDTH 8 0
BBX 8 11 0 -3
BITMAP
2F4000E7
2F9004F7
2CD009C7
2CB30D87
2C683A87
2C1C8587
2C0BD187
2C06A087
00000000
00059000
00001000
ENDCHAR
STARTCHAR m_dotbelowcomb.ccmp
ENCODING -1
SWIDTH 752 0
DWIDTH 8 0
BBX 8 9 0 -3
BITMAP
4CDD6DD2
4C18D197
4A059068
4A059068
4A059068
4A059068
00000000
00059000
00001000
ENDCHAR
STARTCHAR N_dotbelowcomb.ccmp
ENCODING -1
SWIDTH 619 0
DWIDTH 7 0
BBX 6 11 0 -3
BITMAP
2F200E
2F900E
2DC20E
2C590E
2C0C2E
2C05AE
2C00CE
2C004E
000000
003B00
000100
ENDCHAR
STARTCHAR n_dotbelowcomb.ccmp
ENCODING -1
SWIDTH 483 0
DWIDTH 5 0
BBX 5 9 0 -3
BITMAP
4CDD30
4D2880
4A0590
4A0590
4A0590
4A0590
000000
00C200
001000
ENDCHAR
STARTCHAR O_tildecomb_acutecomb.ccmp
ENCODING -1
SWIDTH 600 0
DWIDTH 7 0
BBX 6 11 0 0
BITMAP
000910
008950
000000
04CEA1
0D4198
3B002C
5A001E
5A001E
3B002D
1E4198
04DEA1
ENDCHAR
STARTCHAR P_acutecomb.ccmp
ENCODING -1
SWIDTH 554 0
DWIDTH 6 0
BBX 6 11 0 0
BITMAP
001D30
006700
000000
2FFEA1
2C01A7
2C005A
2C01A7
2FFFB1
2C0000
2C0000
2C0000
ENDCHAR
STARTCHAR p_acutecomb.ccmp
ENCODING -1
SWIDTH 493 0
DWIDTH 5 0
BBX 5 11 0 -2
BITMAP
001D50
005900
000000
4CDD40
4C16B0
4A01D0
4A01D0
4C16B0
4CDD30
4A0000
4A0000
ENDCHAR
STARTCHAR R_dotbelowcomb.ccmp
ENCODING -1
SWIDTH 530 0
DWIDTH 6 0
BBX 6 11 0 -3
BITMAP
2FFE80
2C02D3
2C00A5
2C02D3
2FFF80
2C0970
2C02E1
2C00A7
000000
00A400
001000
ENDCHAR
STARTCHAR r_dotbelowcomb.ccmp
ENCODING -1
SWIDTH 304 0
DWIDTH 3 0
BBX 4 9 0 -3
BITMAP
4CE2
4D10
4A00
4A00
4A00
4A00
0000
4A00
0100
ENDCHAR
STARTCHAR S_dotbelowcomb.ccmp
ENCODING -1
SWIDTH 518 0
DWIDTH 6 0
BBX 6 11 0 -3
BITMAP
07ED40
3D13E1
4B0062
0BB400
005BA0
4400C3
4C12E2
07EE70
000000
008600
001000
ENDCHAR
STARTCHAR s_dotbelowcomb.ccmp
ENCODING -1
SWIDTH 455 0
DWIDTH 5 0
BBX 5 9 0 -3
BITMAP
0AEB10
4C1840
1DA300
016E40
591A60
1BEC10
000000
00C200
001000
ENDCHAR
STARTCHAR T_dotbelowcomb.ccmp
ENCODING -1
SWIDTH 520 0
DWIDTH 6 0
BBX 6 11 0 -3
BITMAP
AFFFF6
009500
009500
009500
009500
009500
009500
009500
000000
009500
001000
ENDCHAR
STARTCHAR t_dotbelowcomb.ccmp
ENCODING -1
SWIDTH 295 0
DWIDTH 3 0
BBX 3 10 0 -3
BITMAP
0E00
DFC0
0E00
0E00
0E00
0E10
0AC0
0000
0590
0010
ENDCHAR
STARTCHAR U_tildecomb_acutecomb.ccmp
ENCODING -1
SWIDTH 561 0
DWIDTH 6 0
BBX 6 11 0 0
BITMAP
001A00
01AA30
000000
4A0078
4A0078
4A0078
4A0078
4A0078
4A0087
2E21C5
07EE90
ENDCHAR
STARTCHAR V_tildecomb.ccmp
ENCODING -1
SWIDTH 560 0
DWIDTH 6 0
BBX 6 11 0 0
BITMAP
03D3A0
074C50
000000
97004C
5B0087
1E00D3
0B42D0
068690
02CA40
00CD00
007A00
ENDCHAR
STARTCHAR v_tildecomb.ccmp
ENCODING -1
SWIDTH 427 0
DWIDTH 5 0
BBX 5 9 0 0
BITMAP
0C6A00
379900
000000
950A40
590D00
1C2B00
0B7600
07E200
02D000
ENDCHAR
STARTCHAR V_dotbelowcomb.ccmp
ENCODING -1
SWIDTH 560 0
DWIDTH 6 0
BBX 6 11 0 -3
BITMAP
97004C
5B0087
1E00D3
0B42D0
068690
02CA40
00CD00
007A00
000000
006800
000100
ENDCHAR
STARTCHAR v_dotbelowcomb.ccmp
ENCODING -1
SWIDTH 427 0
DWIDTH 5 0
BBX 5 9 0 -3
BITMAP
950A40
590D00
1C2B00
0B7600
07E200
02D000
000000
02C000
001000
ENDCHAR
STARTCHAR W_dotbelowcomb.ccmp
ENCODING -1
SWIDTH 761 0
DWIDTH 8 0
BBX 8 11 0 -3
BITMAP
8704C00E
5907E02C
2C0BA359
0E0C5686
0B5A2AA3
08B60CC1
05F30AC0
02E00790
00000000
0004A000
00001000
ENDCHAR
STARTCHAR w_dotbelowcomb.ccmp
ENCODING -1
SWIDTH 649 0
DWIDTH 7 0
BBX 7 9 0 -3
BITMAP
950E13B0
683F5680
2B799940
0DB2CC10
0AC0BC00
06907800
00000000
000D1000
00010000
ENDCHAR
STARTCHAR Z_dotbelowcomb.ccmp
ENCODING -1
SWIDTH 522 0
DWIDTH 6 0
BBX 6 11 0 -3
BITMAP
7FFFF2
0004C0
000C30
006900
01D100
097000
3D0000
8FFFF4
000000
00A400
001000
ENDCHAR
STARTCHAR z_dotbelowcomb.ccmp
ENCODING -1
SWIDTH 438 0
DWIDTH 5 0
BBX 5 9 0 -3
BITMAP
7FFF40
003C00
00C300
079000
2D1000
7FFF60
000000
01D000
001000
ENDCHAR
STARTCHAR Alphatonos.c2sc
ENCODING -1
SWIDTH 501 0
DWIDTH 6 0
BBX 6 7 0 0
BITMAP
2B0000
36C500
03DB00
086D10
0D1870
4FFFC0
A600D2
ENDCHAR
STARTCHAR Epsilontonos.c2sc
ENCODING -1
SWIDTH 458 0
DWIDTH 5 0
BBX 6 7 -1 0
BITMAP
850000
81FFFA
00E000
00FFF4
00E000
00E000
00FFFA
ENDCHAR
STARTCHAR Etatonos.c2sc
ENCODING -1
SWIDTH 562 0
DWIDTH 6 0
BBX 7 7 -1 0
BITMAP
67000000
72E00770
00E00770
00FFFF70
00E00770
00E00770
00E00770
ENDCHAR
STARTCHAR Iotatonos.c2sc
ENCODING -1
SWIDTH 250 0
DWIDTH 3 0
BBX 3 7 -1 0
BITMAP
6700
72E0
00E0
00E0
00E0
00E0
00E0
ENDCHAR
STARTCHAR Omicrontonos.c2sc
ENCODING -1
SWIDTH 523 0
DWIDTH 6 0
BBX 7 7 -1 0
BITMAP
1C000000
277ED400
03D23D00
06800B30
06800B30
02D23D00
006ED400
ENDCHAR
STARTCHAR Upsilontonos.c2sc
ENCODING -1
SWIDTH 487 0
DWIDTH 5 0
BBX 7 7 -1 0
BITMAP
D1000000
94C02D10
00C38700
004BD100
000C7000
000A4000
000A4000
ENDCHAR
STARTCHAR Omegatonos.c2sc
ENCODING -1
SWIDTH 545 0
DWIDTH 6 0
BBX 7 7 -1 0
BITMAP
0D000000
186EE600
02E22D20
05A00950
03A00940
00C32B00
05FCBF60
ENDCHAR
STARTCHAR Alpha.c2sc
ENCODING -1
SWIDTH 501 0
DWIDTH 6 0
BBX 6 6 0 0
BITMAP
00C500
03DB00
086D10
0D1870
4FFFC0
A600D2
ENDCHAR
STARTCHAR Beta.c2sc
ENCODING -1
SWIDTH 475 0
DWIDTH 5 0
BBX 5 6 0 0
BITMAP
4FFD30
4A0970
4FFE20
4A0790
4A0790
4FFD30
ENDCHAR
STARTCHAR Epsilon.c2sc
ENCODING -1
SWIDTH 428 0
DWIDTH 5 0
BBX 5 6 0 0
BITMAP
4FFF50
4A0000
4FFF00
4A0000
4A0000
4FFF50
ENDCHAR
STARTCHAR Zeta.c2sc
ENCODING -1
SWIDTH 454 0
DWIDTH 5 0
BBX 5 6 0 0
BITMAP
8FFF70
001C10
00A400
069000
2C1000
9FFF90
ENDCHAR
STARTCHAR Eta.c2sc
ENCODING -1
SWIDTH 533 0
DWIDTH 6 0
BBX 6 6 0 0
BITMAP
4A00C2
4A00C2
4FFFF2
4A00C2
4A00C2
4A00C2
ENDCHAR
STARTCHAR Iota.c2sc
ENCODING -1
SWIDTH 221 0
DWIDTH 2 0
BBX 2 6 0 0
BITMAP
4B
4B
4B
4B
4B
4B
ENDCHAR
STARTCHAR Kappa.c2sc
ENCODING -1
SWIDTH 473 0
DWIDTH 5 0
BBX 5 6 0 0
BITMAP
4A0890
4A5C00
4CE200
4EB700
4A1D30
4A05C0
ENDCHAR
STARTCHAR Mu.c2sc
ENCODING -1
SWIDTH 652 0
DWIDTH 7 0
BBX 7 6 0 0
BITMAP
4F200E70
4E704E70
4AC0A970
49A3C770
4A5D7770
4A0E2770
ENDCHAR
STARTCHAR Nu.c2sc
ENCODING -1
SWIDTH 533 0
DWIDTH 6 0
BBX 6 6 0 0
BITMAP
4D10C2
4E80C2
4AB2C2
4A3AC2
4A09E2
4A02E2
ENDCHAR
STARTCHAR Omicron.c2sc
ENCODING -1
SWIDTH 519 0
DWIDTH 6 0
BBX 6 6 0 0
BITMAP
07ED40
3D14D0
7800C2
6800C2
3D23D0
07ED40
ENDCHAR
STARTCHAR Rho.c2sc
ENCODING -1
SWIDTH 481 0
DWIDTH 5 0
BBX 5 6 0 0
BITMAP
4FFD40
4A04C0
4A04D0
4FFD40
4A0000
4A0000
ENDCHAR
STARTCHAR Tau.c2sc
ENCODING -1
SWIDTH 456 0
DWIDTH 5 0
BBX 5 6 0 0
BITMAP
BFFFB0
00E000
00E000
00E000
00E000
00E000
ENDCHAR
STARTCHAR Upsilon.c2sc
ENCODING -1
SWIDTH 458 0
DWIDTH 5 0
BBX 5 6 0 0
BITMAP
970690
2D0D20
09AA00
02F200
00E000
00E000
ENDCHAR
STARTCHAR Chi.c2sc
ENCODING -1
SWIDTH 478 0
DWIDTH 5 0
BBX 5 6 0 0
BITMAP
6A07A0
0C4D20
03F700
04E800
0C4D20
6A06B0
ENDCHAR
STARTCHAR Iotadieresis.c2sc
ENCODING -1
SWIDTH 221 0
DWIDTH 2 0
BBX 4 9 -1 0
BITMAP
0001
681C
0000
04B0
04B0
04B0
04B0
04B0
04B0
ENDCHAR
STARTCHAR Upsilondieresis.c2sc
ENCODING -1
SWIDTH 458 0
DWIDTH 5 0
BBX 5 9 0 0
BITMAP
010100
2C0C20
000000
970690
2D0D20
09AA00
02F200
00E000
00E000
ENDCHAR
STARTCHAR uni0401.c2sc
ENCODING -1
SWIDTH 428 0
DWIDTH 5 0
BBX 5 9 0 0
BITMAP
010100
1C0B30
000000
4FFF50
4A0000
4FFF00
4A0000
4A0000
4FFF50
ENDCHAR
STARTCHAR uni0403.c2sc
ENCODING -1
SWIDTH 405 0
DWIDTH 4 0
BBX 5 9 0 0
BITMAP
005D10
00A300
000000
4FFF30
4A0000
4A0000
4A0000
4A0000
4A0000
ENDCHAR
STARTCHAR uni0405.c2sc
ENCODING -1
SWIDTH 453 0
DWIDTH 5 0
BBX 5 6 0 0
BITMAP
1BEB10
5A1970
2DA510
125C50
790880
0AFC20
ENDCHAR
STARTCHAR uni0406.c2sc
ENCODING -1
SWIDTH 221 0
DWIDTH 2 0
BBX 2 6 0 0
BITMAP
4B
4B
4B
4B
4B
4B
ENDCHAR
STARTCHAR uni0407.c2sc
ENCODING -1
SWIDTH 221 0
DWIDTH 2 0
BBX 4 9 -1 0
BITMAP
0001
681C
0000
04B0
04B0
04B0
04B0
04B0
04B0
ENDCHAR
STARTCHAR uni0408.c2sc
ENCODING -1
SWIDTH 419 0
DWIDTH 5 0
BBX 4 6 0 0
BITMAP
000E
000E
000E
000E
863D
3DE6
ENDCHAR
STARTCHAR uni040C.c2sc
ENCODING -1
SWIDTH 473 0
DWIDTH 5 0
BBX 5 9 0 0
BITMAP
006C00
00B200
000000
4A0890
4A5C00
4CE200
4EB700
4A1D30
4A05C0
ENDCHAR
STARTCHAR uni040E.c2sc
ENCODING -1
SWIDTH 454 0
DWIDTH 5 0
BBX 5 9 0 0
BITMAP
1D1D10
08E800
000000
880790
2D0C30
0B5C00
05E700
02F100
0E7000
ENDCHAR
STARTCHAR uni0410.c2sc
ENCODING -1
SWIDTH 501 0
DWIDTH 6 0
BBX 6 6 0 0
BITMAP
00C500
03DB00
086D10
0D1870
4FFFC0
A600D2
ENDCHAR
STARTCHAR uni0412.c2sc
ENCODING -1
SWIDTH 475 0
DWIDTH 5 0
BBX 5 6 0 0
BITMAP
4FFD30
4A0970
4FFE20
4A0790
4A0790
4FFD30
ENDCHAR
STARTCHAR uni0413.c2sc
ENCODING -1
SWIDTH 405 0
DWIDTH 4 0
BBX 5 6 0 0
BITMAP
4FFF30
4A0000
4A0000
4A0000
4A0000
4A0000
ENDCHAR
STARTCHAR uni0415.c2sc
ENCODING -1
SWIDTH 428 0
DWIDTH 5 0
BBX 5 6 0 0
BITMAP
4FFF50
4A0000
4FFF00
4A0000
4A0000
4FFF50
ENDCHAR
STARTCHAR uni0419.c2sc
ENCODING -1
SWIDTH 537 0
DWIDTH 6 0
BBX 6 9 0 0
BITMAP
095670
03DD20
000000
4A01E3
4A0AE3
4A3BB3
4AC2B3
4E80B3
4E10B3
ENDCHAR
STARTCHAR uni041C.c2sc
ENCODING -1
SWIDTH 652 0
DWIDTH 7 0
BBX 7 6 0 0
BITMAP
4F200E70
4E704E70
4AC0A970
49A3C770
4A5D7770
4A0E2770
ENDCHAR
STARTCHAR uni041D.c2sc
ENCODING -1
SWIDTH 533 0
DWIDTH 6 0
BBX 6 6 0 0
BITMAP
4A00C2
4A00C2
4FFFF2
4A00C2
4A00C2
4A00C2
ENDCHAR
STARTCHAR uni041E.c2sc
ENCODING -1
SWIDTH 519 0
DWIDTH 6 0
BBX 6 6 0 0
BITMAP
07ED40
3D14D0
7800C2
6800C2
3D23D0
07ED40
ENDCHAR
STARTCHAR uni041F.c2sc
ENCODING -1
SWIDTH 525 0
DWIDTH 6 0
BBX 6 6 0 0
BITMAP
4FFFF1
4A00D1
4A00D1
4A00D1
4A00D1
4A00D1
ENDCHAR
STARTCHAR uni0420.c2sc
ENCODING -1
SWIDTH 481 0
DWIDTH 5 0
BBX 5 6 0 0
BITMAP
4FFD40
4A04C0
4A04D0
4FFD40
4A0000
4A0000
ENDCHAR
STARTCHAR uni0421.c2sc
ENCODING -1
SWIDTH 490 0
DWIDTH 5 0
BBX 5 6 0 0
BITMAP
08ED30
4C14C0
780050
780040
4C14C0
08ED30
ENDCHAR
STARTCHAR uni0422.c2sc
ENCODING -1
SWIDTH 456 0
DWIDTH 5 0
BBX 5 6 0 0
BITMAP
BFFFB0
00E000
00E000
00E000
00E000
00E000
ENDCHAR
STARTCHAR uni0425.c2sc
ENCODING -1
SWIDTH 478 0
DWIDTH 5 0
BBX 5 6 0 0
BITMAP
6A07A0
0C4D20
03F700
04E800
0C4D20
6A06B0
ENDCHAR
STARTCHAR uni0498.c2sc
ENCODING -1
SWIDTH 466 0
DWIDTH 5 0
BBX 5 8 0 -2
BITMAP
2CFC20
461A60
02FC00
000960
561970
3DFB10
01D000
01D000
ENDCHAR
STARTCHAR uni04A2.c2sc
ENCODING -1
SWIDTH 533 0
DWIDTH 6 0
BBX 6 8 0 -2
BITMAP
4A00C2
4A00C2
4FFFF2
4A00C2
4A00C2
4A00CF
00000E
00000E
ENDCHAR
STARTCHAR uni04AA.c2sc
ENCODING -1
SWIDTH 490 0
DWIDTH 5 0
BBX 5 8 0 -2
BITMAP
07ED40
3C13D0
780000
780000
4C13C0
09FE40
00B400
00B400
ENDCHAR
STARTCHAR uni04AE.c2sc
ENCODING -1
SWIDTH 458 0
DWIDTH 5 0
BBX 5 6 0 0
BITMAP
970690
2D0D20
09AA00
02F200
00E000
00E000
ENDCHAR
STARTCHAR uni04BE.c2sc
ENCODING -1
SWIDTH 632 0
DWIDTH 7 0
BBX 7 8 0 -2
BITMAP
004DE600
21D32D20
C6B00850
4EFFFF70
03D21200
007FF800
0004A000
0004A000
ENDCHAR
STARTCHAR uni04E2.c2sc
ENCODING -1
SWIDTH 537 0
DWIDTH 6 0
BBX 6 8 0 0
BITMAP
09FF80
000000
4A01E3
4A0AE3
4A3BB3
4AC2B3
4E80B3
4E10B3
ENDCHAR
STARTCHAR uni04EE.c2sc
ENCODING -1
SWIDTH 454 0
DWIDTH 5 0
BBX 5 8 0 0
BITMAP
1FFF10
000000
880790
2D0C30
0B5C00
05E700
02F100
0E7000
ENDCHAR
STARTCHAR uni0424.c2sc
ENCODING -1
SWIDTH 587 0
DWIDTH 6 0
BBX 6 6 0 0
BITMAP
004B00
09EFC3
5A4B4C
5A4B4C
09EFC3
004B00
ENDCHAR
STARTCHAR IJ.c2sc
ENCODING -1
SWIDTH 641 0
DWIDTH 7 0
BBX 7 6 0 0
BITMAP
4B000860
4B000860
4B000860
4B000860
4B3B1B50
4B0AEB10
ENDCHAR
STARTCHAR AEacute.c2sc
ENCODING -1
SWIDTH 676 0
DWIDTH 7 0
BBX 7 9 0 0
BITMAP
0000A800
0002B000
00000000
003FFFC0
00AA8000
02C6FF80
0A669000
2FFF9000
9805FFF0
ENDCHAR
STARTCHAR Oslashacute.c2sc
ENCODING -1
SWIDTH 519 0
DWIDTH 6 0
BBX 6 10 0 -1
BITMAP
001D30
006700
000010
07EDB0
3D29D0
7838C2
68A1C2
3E64D0
1DED40
110000
ENDCHAR
STARTCHAR uni0218.c2sc
ENCODING -1
SWIDTH 453 0
DWIDTH 5 0
BBX 5 9 0 -3
BITMAP
1BEB10
5A1970
2DA510
125C50
790880
0AFC20
000000
00D000
01A000
ENDCHAR
STARTCHAR Wgrave.c2sc
ENCODING -1
SWIDTH 655 0
DWIDTH 7 0
BBX 7 9 0 0
BITMAP
00A80000
001C1000
00000000
850D31D0
582E6490
2B57A760
0C92BA30
0AC09D00
07A06B00
ENDCHAR
STARTCHAR Wacute.c2sc
ENCODING -1
SWIDTH 655 0
DWIDTH 7 0
BBX 7 9 0 0
BITMAP
0003D100
00094000
00000000
850D31D0
582E6490
2B57A760
0C92BA30
0AC09D00
07A06B00
ENDCHAR
STARTCHAR Wdieresis.c2sc
ENCODING -1
SWIDTH 655 0
DWIDTH 7 0
BBX 7 9 0 0
BITMAP
00101000
00D0A400
00000000
850D31D0
582E6490
2B57A760
0C92BA30
0AC09D00
07A06B00
ENDCHAR
STARTCHAR Ygrave.c2sc
ENCODING -1
SWIDTH 458 0
DWIDTH 5 0
BBX 5 9 0 0
BITMAP
0C6000
02B000
000000
970690
2D0D20
09AA00
02F200
00E000
00E000
ENDCHAR
STARTCHAR Aogonek.locl
ENCODING -1
SWIDTH 576 0
DWIDTH 6 0
BBX 6 10 0 -2
BITMAP
006B00
00BD10
01C860
0583B0
0A40D1
0EFFF5
4A005A
96021E
00A200
00B900
ENDCHAR
STARTCHAR aogonek.locl
ENCODING -1
SWIDTH 479 0
DWIDTH 5 0
BBX 5 8 0 -2
BITMAP
0AEC20
251870
09EF80
4C1780
5B1A80
1CFB90
093000
09B000
ENDCHAR
STARTCHAR Eogonek.locl
ENCODING -1
SWIDTH 496 0
DWIDTH 5 0
BBX 6 10 0 -2
BITMAP
2FFFF0
2C0000
2C0000
2FFF90
2C0000
2C0000
2C0000
2FFFF1
02A100
02E400
ENDCHAR
STARTCHAR eogonek.locl
ENCODING -1
SWIDTH 468 0
DWIDTH 5 0
BBX 5 8 0 -2
BITMAP
09EC20
4A1690
7FFFB0
780000
4C1220
09FD40
048000
05E100
ENDCHAR
STARTCHAR Aogonek.c2sc.locl
ENCODING -1
SWIDTH 501 0
DWIDTH 6 0
BBX 6 8 0 -2
BITMAP
00C500
03DB00
086D10
0D1870
4FFFC0
A621D2
039000
03E300
ENDCHAR
STARTCHAR Eogonek.c2sc.locl
ENCODING -1
SWIDTH 428 0
DWIDTH 5 0
BBX 5 8 0 -2
BITMAP
4FFF50
4A0000
4FFF00
4A0000
4A0000
4FFF50
066000
07D000
ENDCHAR
STARTCHAR glyph1293
ENCODING -1
SWIDTH 234 0
DWIDTH 3 0
BBX 2 9 0 -3
BITMAP
3B
3B
3B
3B
3B
3B
00
4A
01
ENDCHAR
ENDFONT
